<?xml version="1.0" encoding="utf-8"?>
<!-- Generator: Adobe Illustrator 25.0.0, SVG Export Plug-In . SVG Version: 6.00 Build 0)  -->
<svg version="1.1" id="Layer_1" xmlns="http://www.w3.org/2000/svg" xmlns:xlink="http://www.w3.org/1999/xlink" x="0px" y="0px"
	 viewBox="0 0 3300 2200" style="enable-background:new 0 0 3300 2200;" xml:space="preserve">
<style type="text/css">
	.st0{fill:#FFFFFF;}
	.st1{fill:none;stroke:#000000;stroke-width:0.5;}
	.st2{font-family:'Helvetica-Bold';}
	.st3{font-size:13px;}
	.st4{font-family:'Helvetica';}
	.st5{fill:none;stroke:#00AEEF;stroke-width:0.5;}
	.st6{fill:#27AAE1;}
	.st7{fill:none;stroke:#27AAE1;stroke-width:0.5;}
</style>
<g id="Notes">
	<rect id="artboard" y="0" class="st0" width="3300" height="2200"/>
	<line class="st1" x1="263" y1="292" x2="3036" y2="292"/>
	<text transform="matrix(1 0 0 1 263 322)" class="st2 st3">Weight/Scale Variations</text>
	<text transform="matrix(1 0 0 1 534.0633 322)" class="st4 st3">Ultralight</text>
	<text transform="matrix(1 0 0 1 843.7775 322)" class="st4 st3">Thin</text>
	<text transform="matrix(1 0 0 1 1139.035 322)" class="st4 st3">Light</text>
	<text transform="matrix(1 0 0 1 1427.0773 322)" class="st4 st3">Regular</text>
	<text transform="matrix(1 0 0 1 1723.4419 322)" class="st4 st3">Medium</text>
	<text transform="matrix(1 0 0 1 2016.1719 322)" class="st4 st3">Semibold</text>
	<text transform="matrix(1 0 0 1 2326.9705 322)" class="st4 st3">Bold</text>
	<text transform="matrix(1 0 0 1 2618.2659 322)" class="st4 st3">Heavy</text>
	<text transform="matrix(1 0 0 1 2917.5054 322)" class="st4 st3">Black</text>
	<line class="st1" x1="263" y1="1903" x2="3036" y2="1903"/>
	<g transform="matrix(1 0 0 1 263 1933)">
		<path d="M9.2,0.8c1.1,0,2.1-0.2,3-0.6c1-0.4,1.8-1,2.5-1.7c0.7-0.7,1.3-1.6,1.7-2.5c0.4-1,0.6-2,0.6-3s-0.2-2.1-0.6-3
			c-0.4-1-1-1.8-1.7-2.5c-0.7-0.7-1.6-1.3-2.5-1.7c-1-0.4-2-0.6-3-0.6c-1.1,0-2.1,0.2-3,0.6s-1.8,1-2.5,1.7C3-11.9,2.4-11,2-10.1
			c-0.4,1-0.6,2-0.6,3S1.6-5,2-4c0.4,1,1,1.8,1.7,2.5s1.6,1.3,2.5,1.7C7.2,0.6,8.2,0.8,9.2,0.8z M9.2-0.7c-0.9,0-1.7-0.2-2.5-0.5
			C6-1.5,5.3-1.9,4.7-2.5c-0.6-0.6-1-1.3-1.4-2C3-5.3,2.9-6.2,2.9-7.1c0-0.9,0.2-1.7,0.5-2.5c0.3-0.8,0.8-1.5,1.4-2
			c0.6-0.6,1.3-1,2-1.4c0.8-0.3,1.6-0.5,2.5-0.5c0.9,0,1.7,0.2,2.5,0.5c0.8,0.3,1.5,0.8,2,1.4c0.6,0.6,1,1.3,1.4,2
			c0.3,0.8,0.5,1.6,0.5,2.5c0,0.9-0.2,1.7-0.5,2.5c-0.3,0.8-0.8,1.5-1.4,2c-0.6,0.6-1.3,1-2,1.4C11-0.8,10.1-0.7,9.2-0.7z M5.7-7.1
			c0,0.2,0.1,0.4,0.2,0.5C6-6.4,6.2-6.3,6.4-6.3h2.1v2.1c0,0.2,0.1,0.4,0.2,0.5C8.8-3.5,9-3.5,9.2-3.5c0.2,0,0.4-0.1,0.5-0.2
			C9.9-3.8,10-4,10-4.2v-2.1h2.1c0.2,0,0.4-0.1,0.5-0.2c0.1-0.1,0.2-0.3,0.2-0.5c0-0.2-0.1-0.4-0.2-0.5c-0.1-0.1-0.3-0.2-0.5-0.2H10
			v-2.1c0-0.2-0.1-0.4-0.2-0.5c-0.1-0.1-0.3-0.2-0.5-0.2c-0.2,0-0.4,0.1-0.5,0.2c-0.1,0.1-0.2,0.3-0.2,0.5v2.1H6.4
			C6.2-7.8,6-7.7,5.9-7.6C5.7-7.5,5.7-7.3,5.7-7.1z"/>
	</g>
	<g transform="matrix(1 0 0 1 281.867 1933)">
		<path d="M11.7,2.9c1.4,0,2.6-0.3,3.8-0.8c1.2-0.5,2.3-1.2,3.2-2.2c0.9-0.9,1.6-2,2.2-3.2c0.5-1.2,0.8-2.5,0.8-3.8
			c0-1.4-0.3-2.6-0.8-3.8c-0.5-1.2-1.2-2.3-2.2-3.2c-0.9-0.9-2-1.6-3.2-2.2c-1.2-0.5-2.5-0.8-3.8-0.8s-2.6,0.3-3.8,0.8
			c-1.2,0.5-2.3,1.2-3.2,2.2c-0.9,0.9-1.6,2-2.2,3.2C2-9.7,1.7-8.4,1.7-7.1c0,1.4,0.3,2.6,0.8,3.8S3.8-0.9,4.7,0
			c0.9,0.9,2,1.6,3.2,2.2S10.3,2.9,11.7,2.9z M11.7,1.2c-1.2,0-2.2-0.2-3.2-0.6c-1-0.4-1.9-1-2.6-1.8C5.1-1.9,4.5-2.8,4.1-3.8
			S3.4-5.9,3.4-7.1c0-1.2,0.2-2.2,0.6-3.2s1-1.9,1.8-2.6c0.8-0.8,1.6-1.4,2.6-1.8c1-0.4,2.1-0.6,3.2-0.6s2.2,0.2,3.2,0.6
			c1,0.4,1.9,1,2.6,1.8c0.8,0.8,1.4,1.6,1.8,2.6c0.4,1,0.6,2.1,0.6,3.2c0,1.2-0.2,2.2-0.6,3.2c-0.4,1-1,1.9-1.8,2.6
			c-0.8,0.8-1.6,1.4-2.6,1.8S12.9,1.2,11.7,1.2z M7.2-7.1c0,0.2,0.1,0.4,0.2,0.6C7.6-6.3,7.8-6.3,8-6.3h2.9v2.9
			c0,0.2,0.1,0.4,0.2,0.6c0.1,0.2,0.3,0.2,0.6,0.2c0.2,0,0.4-0.1,0.6-0.2c0.2-0.2,0.2-0.4,0.2-0.6v-2.9h2.9c0.2,0,0.4-0.1,0.6-0.2
			s0.2-0.3,0.2-0.6c0-0.2-0.1-0.4-0.2-0.6c-0.2-0.2-0.4-0.2-0.6-0.2h-2.9v-2.9c0-0.3-0.1-0.5-0.2-0.6s-0.4-0.2-0.6-0.2
			c-0.2,0-0.4,0.1-0.6,0.2c-0.1,0.2-0.2,0.4-0.2,0.6v2.9H8c-0.3,0-0.5,0.1-0.6,0.2C7.3-7.5,7.2-7.3,7.2-7.1z"/>
	</g>
	<g transform="matrix(1 0 0 1 305.646 1933)">
		<path d="M15,5.7c1.4,0,2.7-0.2,4-0.6c1.3-0.4,2.4-1,3.5-1.8c1.1-0.8,2-1.7,2.8-2.8C26-0.6,26.6-1.8,27-3.1c0.4-1.3,0.6-2.6,0.6-4
			c0-1.4-0.2-2.7-0.6-4c-0.4-1.3-1-2.4-1.8-3.5c-0.8-1.1-1.7-2-2.8-2.8c-1.1-0.8-2.2-1.4-3.5-1.8c-1.3-0.4-2.6-0.6-4-0.6
			c-1.4,0-2.7,0.2-4,0.6c-1.3,0.4-2.4,1-3.5,1.8c-1.1,0.8-2,1.7-2.8,2.8c-0.8,1.1-1.4,2.2-1.8,3.5c-0.4,1.3-0.6,2.6-0.6,4
			c0,1.4,0.2,2.7,0.6,4c0.4,1.3,1,2.4,1.8,3.5c0.8,1.1,1.7,2,2.8,2.8C8.6,4,9.7,4.6,11,5C12.2,5.4,13.6,5.7,15,5.7z M15,3.8
			c-1.2,0-2.4-0.2-3.4-0.6c-1.1-0.4-2.1-0.9-3-1.5C7.6,1.1,6.8,0.3,6.2-0.6C5.5-1.5,5-2.5,4.6-3.6C4.3-4.7,4.1-5.8,4.1-7.1
			c0-1.2,0.2-2.4,0.5-3.5c0.4-1.1,0.9-2.1,1.5-3c0.7-0.9,1.4-1.7,2.4-2.4s1.9-1.2,3-1.5c1.1-0.4,2.2-0.5,3.4-0.5
			c1.2,0,2.4,0.2,3.5,0.5c1.1,0.4,2.1,0.9,3,1.5c0.9,0.7,1.7,1.5,2.4,2.4c0.7,0.9,1.2,1.9,1.5,3c0.4,1.1,0.6,2.2,0.6,3.5
			c0,1.2-0.2,2.4-0.5,3.4c-0.4,1.1-0.9,2.1-1.5,3c-0.7,0.9-1.5,1.7-2.4,2.4c-0.9,0.7-1.9,1.2-3,1.5C17.3,3.7,16.2,3.8,15,3.8z
			 M9.2-7.1c0,0.3,0.1,0.5,0.3,0.6c0.2,0.2,0.4,0.2,0.7,0.2h3.9v4c0,0.3,0.1,0.5,0.2,0.7c0.2,0.2,0.4,0.3,0.6,0.3
			c0.3,0,0.5-0.1,0.7-0.3c0.2-0.2,0.3-0.4,0.3-0.7v-4h4c0.3,0,0.5-0.1,0.7-0.2c0.2-0.2,0.3-0.4,0.3-0.6c0-0.3-0.1-0.5-0.3-0.7
			C20.3-7.9,20.1-8,19.8-8h-4v-3.9c0-0.3-0.1-0.5-0.3-0.7c-0.2-0.2-0.4-0.3-0.7-0.3c-0.3,0-0.5,0.1-0.6,0.3
			c-0.2,0.2-0.2,0.4-0.2,0.7V-8h-3.9C9.8-8,9.6-7.9,9.5-7.7C9.3-7.5,9.2-7.3,9.2-7.1z"/>
	</g>
	<text transform="matrix(1 0 0 1 263 1953)" class="st2 st3">Design Variations</text>
	<text transform="matrix(1 0 0 1 263 1971)" class="st4 st3">Symbols are supported in up to nine weights and three scales.</text>
	<text transform="matrix(1 0 0 1 263 1989)" class="st4 st3">For optimal layout with text and other symbols, vertically align</text>
	<text transform="matrix(1 0 0 1 263 2007)" class="st4 st3">symbols with the adjacent text.</text>
	<line class="st5" x1="776" y1="1919" x2="776" y2="1933"/>
	<g transform="matrix(1 0 0 1 776 1933)">
		<path d="M3.3,0.2c0.3,0,0.5-0.1,0.6-0.2c0.1-0.1,0.3-0.3,0.4-0.6L5.5-4h5.8l1.3,3.4c0.1,0.3,0.2,0.5,0.4,0.6
			c0.1,0.1,0.3,0.2,0.6,0.2c0.3,0,0.5-0.1,0.6-0.2c0.2-0.1,0.2-0.3,0.2-0.6c0-0.1,0-0.3-0.1-0.5L9.7-13.4c-0.1-0.3-0.3-0.5-0.5-0.7
			c-0.2-0.1-0.5-0.2-0.8-0.2c-0.6,0-1,0.3-1.2,0.9L2.6-1.2C2.5-1,2.5-0.8,2.5-0.6c0,0.2,0.1,0.4,0.2,0.6S3.1,0.2,3.3,0.2z M6-5.5
			l2.4-6.6h0l2.4,6.6H6z"/>
	</g>
	<line class="st5" x1="793.2" y1="1919" x2="793.2" y2="1933"/>
	<text transform="matrix(1 0 0 1 776 1953)" class="st2 st3">Margins</text>
	<text transform="matrix(1 0 0 1 776 1971)" class="st4 st3">Leading and trailing margins on the left and right side of each symbol</text>
	<text transform="matrix(1 0 0 1 776 1989)" class="st4 st3">can be adjusted by modifying the x-location of the margin guidelines.</text>
	<text transform="matrix(1 0 0 1 776 2007)" class="st4 st3">Modifications are automatically applied proportionally to all</text>
	<text transform="matrix(1 0 0 1 776 2025)" class="st4 st3">scales and weights.</text>
	<g transform="matrix(1 0 0 1 1289 1933)">
		<path d="M2.8,1.9l1.7,1.7C5,4,5.4,4.2,5.9,4.2c0.5,0,0.9-0.3,1.4-0.8L18-8.4l-1-1L6.4,2.3C6.2,2.5,6.1,2.6,5.9,2.6
			c-0.2,0-0.4-0.1-0.6-0.3L4.1,1.1C3.9,0.9,3.8,0.7,3.8,0.5c0-0.2,0.1-0.4,0.3-0.5l11.5-10.8l-1-1L3-0.9C2.6-0.4,2.3,0,2.3,0.5
			C2.2,1,2.4,1.4,2.8,1.9z M9.3-16.3c-0.2,0.2-0.3,0.4-0.4,0.7c0,0.3,0,0.5,0.1,0.7c0.1,0.2,0.3,0.3,0.5,0.4c0.2,0.1,0.5,0.1,0.8,0
			c0.7-0.2,1.5-0.2,2.2-0.2c0.7,0,1.5,0.3,2.2,0.7l-0.6,1.5c-0.2,0.4-0.2,0.8-0.1,1.1c0.1,0.3,0.2,0.6,0.5,0.9l2.3,2.3
			c0.2,0.2,0.5,0.4,0.7,0.4c0.2,0,0.5,0,0.8,0L19.4-8l0.7,0.7l0,0.6c0,0.2,0,0.5,0.1,0.7c0.1,0.2,0.2,0.4,0.5,0.7l0.8,0.7
			c0.2,0.2,0.5,0.4,0.8,0.4c0.3,0,0.5-0.1,0.8-0.3l2.9-2.9c0.2-0.2,0.3-0.5,0.3-0.8c0-0.3-0.1-0.5-0.4-0.8L25-9.9
			c-0.2-0.2-0.5-0.4-0.7-0.5c-0.2-0.1-0.4-0.1-0.7-0.1l-0.6,0l-0.6-0.6l0.2-1.1c0.1-0.3,0.1-0.5,0-0.8s-0.3-0.5-0.6-0.8L19.9-16
			c-0.8-0.8-1.7-1.4-2.7-1.9c-0.9-0.4-1.9-0.6-2.8-0.6c-1,0-1.9,0.2-2.8,0.5C10.8-17.6,10-17.1,9.3-16.3z M10.8-16
			c0.6-0.4,1.3-0.8,1.9-0.9c0.7-0.2,1.4-0.2,2.1-0.2c0.7,0.1,1.4,0.3,2.1,0.6c0.7,0.3,1.3,0.7,1.8,1.3l2.4,2.4
			c0.1,0.1,0.2,0.2,0.2,0.3c0,0.1,0,0.3,0,0.4L21-10.5l1.5,1.5l1-0.1c0.1,0,0.2,0,0.3,0c0.1,0,0.1,0.1,0.2,0.2l0.6,0.6l-2.4,2.4
			l-0.6-0.6c-0.1-0.1-0.2-0.2-0.2-0.2c0-0.1,0-0.2,0-0.3l0.1-1L20-9.5l-1.5,0.3c-0.2,0-0.3,0-0.4,0c-0.1,0-0.2-0.1-0.3-0.2l-2-2
			c-0.1-0.1-0.2-0.2-0.2-0.3c0-0.1,0-0.3,0.1-0.4l0.9-2.1c-0.8-0.7-1.7-1.2-2.6-1.5c-1-0.3-2-0.3-3,0c-0.1,0-0.1,0-0.2,0
			C10.7-15.9,10.7-15.9,10.8-16z"/>
	</g>
	<text transform="matrix(1 0 0 1 1289 1953)" class="st2 st3">Exporting</text>
	<text transform="matrix(1 0 0 1 1289 1971)" class="st4 st3">Symbols should be outlined when exporting to ensure the</text>
	<text transform="matrix(1 0 0 1 1289 1989)" class="st4 st3">design is preserved when submitting to Xcode.</text>
	<text id="template-version" transform="matrix(1 0 0 1 2952.4141 1933)" class="st4 st3">Template v.3.0</text>
	<text transform="matrix(1 0 0 1 2865.4575 1951)" class="st4 st3">Requires Xcode 13 or greater</text>
	<text id="descriptive-name" transform="matrix(1 0 0 1 2801.1621 1969)" class="st4 st3">Generated from chart.line.uptrend.xyaxis</text>
	<text transform="matrix(1 0 0 1 2912.4111 1987)" class="st4 st3">Typeset at 100 points</text>
	<text transform="matrix(1 0 0 1 263 726)" class="st4 st3">Small</text>
	<text transform="matrix(1 0 0 1 263 1156)" class="st4 st3">Medium</text>
	<text transform="matrix(1 0 0 1 263 1586)" class="st4 st3">Large</text>
</g>
<g id="Guides">
	<g id="H-reference" transform="matrix(1 0 0 1 339 696)">
		<path class="st6" d="M1,0h2.6l25.7-67.1H30v-3.3h-1.9L1,0z M11.7-24.5H47l-0.8-2.2H12.4L11.7-24.5z M55.1,0h2.6L30.6-70.5h-1.2
			v3.3L55.1,0z"/>
	</g>
	<line id="Baseline-S" class="st7" x1="263" y1="696" x2="3036" y2="696"/>
	<line id="Capline-S" class="st7" x1="263" y1="625.5" x2="3036" y2="625.5"/>
	<g id="H-reference_1_" transform="matrix(1 0 0 1 339 1126)">
		<path class="st6" d="M1,0h2.6l25.7-67.1H30v-3.3h-1.9L1,0z M11.7-24.5H47l-0.8-2.2H12.4L11.7-24.5z M55.1,0h2.6L30.6-70.5h-1.2
			v3.3L55.1,0z"/>
	</g>
	<line id="Baseline-M" class="st7" x1="263" y1="1126" x2="3036" y2="1126"/>
	<line id="Capline-M" class="st7" x1="263" y1="1055.5" x2="3036" y2="1055.5"/>
	<g id="H-reference_2_" transform="matrix(1 0 0 1 339 1556)">
		<path class="st6" d="M1,0h2.6l25.7-67.1H30v-3.3h-1.9L1,0z M11.7-24.5H47l-0.8-2.2H12.4L11.7-24.5z M55.1,0h2.6L30.6-70.5h-1.2
			v3.3L55.1,0z"/>
	</g>
	<line id="Baseline-L" class="st7" x1="263" y1="1556" x2="3036" y2="1556"/>
	<line id="Capline-L" class="st7" x1="263" y1="1485.5" x2="3036" y2="1485.5"/>
	<line id="left-margin-Regular-M" class="st5" x1="1384.9" y1="1030.8" x2="1384.9" y2="1150.1"/>
	<line id="right-margin-Regular-M" class="st5" x1="1514.8" y1="1030.8" x2="1514.8" y2="1150.1"/>
</g>
<g id="Symbols">
	<g id="Black-L" transform="matrix(1 0 0 1 2843.73 1556)">
		<path d="M16.1,22.1c0,2,0.6,3.7,1.9,4.9c1.3,1.3,2.9,1.9,5,1.9h129c2.9,0,5.4-0.9,7.4-2.8c2-1.9,3-4.3,3-7.3c0-3-1-5.4-3-7.3
			c-2-1.9-4.4-2.8-7.4-2.8H38c-1.1,0-1.7-0.6-1.7-1.7v-96.8c0-2.9-0.9-5.4-2.8-7.4c-1.9-2-4.3-3-7.3-3s-5.4,1-7.3,3
			c-1.9,2-2.8,4.4-2.8,7.4V22.1z M34.6-13.6l26-27.6c0.4-0.5,0.9-0.7,1.4-0.7s0.9,0.2,1.4,0.7l20,21.4c1.7,1.9,3.5,3.2,5.4,4.1
			c1.9,0.8,3.7,1.2,5.7,1.2c3.8,0,7.5-1.7,11-5.2l26.1-26.3l8.1,8.2c1.4,1.4,3,2.1,4.7,2.1c1.7,0,3.2-0.5,4.7-1.6
			c1.4-1.1,2.4-2.6,2.9-4.6l10.2-37.7c0.5-1.8,0.3-3.5-0.5-5.1c-0.8-1.6-2-2.8-3.6-3.5c-1.6-0.8-3.3-0.9-5.2-0.4l-37.6,10.1
			c-2,0.5-3.5,1.5-4.7,2.9c-1.1,1.4-1.7,2.9-1.7,4.6c0,1.7,0.7,3.3,2.2,4.7l7.7,7.8L95.8-34.9c-0.4,0.5-0.8,0.7-1.4,0.7
			c-0.5,0-0.9-0.2-1.4-0.7L73-56.4c-1.8-1.9-3.6-3.2-5.4-4.1c-1.8-0.8-3.7-1.2-5.6-1.2c-1.9,0-3.7,0.4-5.5,1.2
			c-1.8,0.8-3.6,2.2-5.5,4.1l-29.3,30L34.6-13.6z"/>
	</g>
	<g id="Heavy-L" transform="matrix(1 0 0 1 2548.48 1556)">
		<path d="M16.1,21.3c0,1.9,0.6,3.4,1.7,4.5c1.2,1.2,2.7,1.7,4.6,1.7h128.2c2.5,0,4.6-0.8,6.4-2.4c1.7-1.6,2.6-3.7,2.6-6.3
			c0-2.6-0.9-4.7-2.6-6.3c-1.7-1.6-3.8-2.5-6.4-2.5H35.3c-1.1,0-1.7-0.6-1.7-1.7v-98c0-2.5-0.8-4.6-2.4-6.3
			c-1.6-1.7-3.7-2.6-6.3-2.6c-2.6,0-4.7,0.9-6.3,2.6c-1.6,1.7-2.5,3.8-2.5,6.3V21.3z M32-14.1l26.3-27.5c0.5-0.5,1-0.8,1.6-0.8
			c0.5,0,1.1,0.3,1.6,0.8l20.9,22.1c1.6,1.8,3.3,3,5,3.8c1.7,0.8,3.5,1.2,5.3,1.2c3.6,0,7-1.6,10.3-4.9l26.3-26.5l8.8,8.9
			c1.2,1.2,2.6,1.8,4.1,1.9c1.5,0,2.8-0.5,4-1.4c1.2-1,2.1-2.3,2.5-4l9.8-37.4c0.4-1.6,0.3-3.1-0.4-4.4c-0.7-1.4-1.7-2.4-3.1-3.1
			c-1.4-0.7-2.9-0.8-4.5-0.4l-37.4,9.7c-1.7,0.5-3.1,1.3-4.1,2.5c-1,1.2-1.5,2.5-1.4,4c0,1.5,0.6,2.8,1.9,4.1l8.5,8.6L94.3-32.7
			c-0.5,0.5-1,0.8-1.6,0.8c-0.5,0-1.1-0.3-1.6-0.8L70.2-54.9c-1.6-1.8-3.3-3-5-3.8c-1.7-0.8-3.5-1.2-5.3-1.2c-1.8,0-3.5,0.4-5.2,1.1
			s-3.4,2-5.1,3.8L20.7-25.4L32-14.1z"/>
	</g>
	<g id="Bold-L" transform="matrix(1 0 0 1 2253.41 1556)">
		<path d="M16.1,20.4c0,1.7,0.5,3.1,1.6,4.1c1,1,2.4,1.6,4.1,1.6h127.4c2.1,0,3.8-0.7,5.2-2c1.4-1.4,2.1-3.1,2.1-5.2
			s-0.7-3.8-2.1-5.2c-1.4-1.4-3.2-2-5.2-2h-117c-1.1,0-1.7-0.6-1.7-1.7v-99.4c0-2-0.7-3.8-2-5.2c-1.3-1.4-3.1-2.1-5.2-2.1
			c-2.1,0-3.9,0.7-5.2,2.1c-1.4,1.4-2,3.2-2,5.2V20.4z M29.2-14.6L55.7-42c0.6-0.6,1.2-0.9,1.8-0.9c0.6,0,1.2,0.3,1.8,0.9l22,22.8
			c1.5,1.6,3.1,2.8,4.7,3.5c1.6,0.7,3.2,1.1,4.9,1.1c3.3,0,6.4-1.5,9.5-4.6l26.5-26.7l9.5,9.6c1,1,2.2,1.5,3.4,1.6
			c1.2,0,2.3-0.4,3.3-1.2c1-0.8,1.7-1.9,2.1-3.4l9.4-37.1c0.4-1.4,0.3-2.6-0.3-3.7c-0.6-1.1-1.4-2-2.6-2.5c-1.1-0.6-2.4-0.7-3.7-0.3
			l-37,9.4c-1.4,0.4-2.6,1-3.4,2c-0.8,1-1.2,2.1-1.2,3.3c0,1.2,0.5,2.3,1.6,3.4l9.3,9.4L92.7-30.2c-0.6,0.6-1.2,0.9-1.8,0.9
			c-0.6,0-1.2-0.3-1.8-0.9l-22-22.9c-1.5-1.6-3.1-2.8-4.7-3.5c-1.6-0.7-3.2-1.1-4.9-1.1c-1.6,0-3.2,0.4-4.8,1.1
			c-1.5,0.7-3.1,1.9-4.7,3.5L19.6-24.2L29.2-14.6z"/>
	</g>
	<g id="Semibold-L" transform="matrix(1 0 0 1 1957.82 1556)">
		<path d="M16.1,19.8c0,1.6,0.5,2.8,1.4,3.8s2.2,1.4,3.8,1.4h126.9c1.7,0,3.2-0.6,4.4-1.7c1.2-1.2,1.8-2.6,1.8-4.4
			c0-1.8-0.6-3.2-1.8-4.4c-1.2-1.2-2.7-1.7-4.4-1.7H30c-1.1,0-1.6-0.5-1.6-1.6V-89.2c0-1.7-0.6-3.2-1.7-4.4
			c-1.2-1.2-2.6-1.8-4.4-1.8c-1.8,0-3.3,0.6-4.4,1.8c-1.2,1.2-1.7,2.7-1.7,4.4V19.8z M27.2-15l26.7-27.3c0.7-0.7,1.3-1,2-1
			c0.7,0,1.3,0.3,2,1L80.6-19c1.4,1.5,2.9,2.6,4.4,3.3c1.5,0.7,3,1,4.6,1c3.1,0,6.1-1.5,9-4.4l26.7-26.9l10.1,10.1
			c0.9,0.9,1.9,1.3,2.9,1.3c1,0,2-0.3,2.8-1.1c0.8-0.7,1.4-1.7,1.8-2.9l9.1-36.8c0.3-1.2,0.2-2.2-0.3-3.2c-0.5-1-1.2-1.7-2.2-2.1
			c-1-0.5-2-0.6-3.2-0.2l-36.8,9.1c-1.3,0.3-2.2,0.9-2.9,1.7c-0.7,0.8-1.1,1.8-1,2.8s0.5,2,1.4,2.9l9.9,10L91.6-28.6
			c-0.7,0.7-1.3,1-2,1c-0.7,0-1.3-0.3-2-1L64.9-52c-1.4-1.5-2.9-2.6-4.4-3.3c-1.5-0.7-3-1-4.6-1c-1.6,0-3.1,0.3-4.5,1
			C50-54.6,48.5-53.5,47-52L18.8-23.4L27.2-15z"/>
	</g>
	<g id="Medium-L" transform="matrix(1 0 0 1 1661.97 1556)">
		<path d="M137.3-65.4c-2.4-1.8-2-5.3,0.8-6.5l27.4-11.6c2.7-1.1,5.6,1.1,5.3,4l-3.7,29.5c-0.3,2.9-3.8,4.4-6.1,2.6l-7.5-5.2
			c-11.9,14.7-29.7,36.3-46.6,36.3c-25,0-34.8-19.5-47.3-19.5c-11.8,0-27,18.6-31.2,23.1V8.1c0,1.5,1.2,2.7,2.7,2.7h116.6
			c1.4,0,2.6,0.4,3.7,1.4c1,1,1.6,3.5,1.6,4.9s-0.5,4-1.6,4.9c-1,0.9-2.2,1.4-3.7,1.4h-127c-1.4,0-2.8-0.4-3.7-1.3
			c-0.9-0.9-1.4-2.1-1.4-3.7v-108c0-1.3,0.4-2.5,1.4-3.5c1-1,3.2-1.6,4.9-1.6c1.7,0,3.9,0.5,4.9,1.6c0.9,0.9,1.4,2.2,1.4,3.5v60.6
			C32.8-33,47.8-49,59.4-49c16.1,0,20.9,20,46.7,20c16.9,0,27.6-17.2,37.7-30.9"/>
	</g>
	<g id="Regular-L" transform="matrix(1 0 0 1 1366.37 1556)">
		<g>
			<path d="M167.4-77.4l-3.1,25c-0.3,2.4-3.2,3.7-5.2,2.2l-5.9-4.5c-11.7,14.4-29.9,37.2-47.2,37.2c-24.6,0-34.3-19.2-46.7-19.2
				c-11.6,0-29.1,18.3-33.2,22.8v25.3c0,1.2,0.6,1.8,1.8,1.8h118.3c1.4,0,2.6,0.4,3.6,1.4c1,1,1.6,2.2,1.6,3.6
				c0,1.4-0.5,2.7-1.6,3.6c-1,0.9-2.2,1.4-3.6,1.4H21.1c-1.4,0-2.7-0.4-3.6-1.3c-0.9-0.9-1.4-2.1-1.4-3.6V-88.1
				c0-1.3,0.4-2.5,1.4-3.5c1-1,2.2-1.5,3.6-1.5c1.4,0,2.6,0.5,3.6,1.5c0.9,0.9,1.4,2.2,1.4,3.5v60.9c4.4-4.1,21.7-20,33.1-20
				c15.8,0,20.6,19.7,46,19.7c18,0,28.9-19.8,39.6-33.6l-5.8-4.4c-2.1-1.6-1.7-4.5,0.6-5.6l23.2-9.8
				C165.2-81.7,167.6-79.9,167.4-77.4z"/>
		</g>
	</g>
	<g id="Light-L" transform="matrix(1 0 0 1 1070.11 1556)">
		<path d="M16.1,19.2c0,1.2,0.4,2.1,1.1,2.8s1.7,1.1,2.8,1.1h126.7c0.9,0,1.7-0.3,2.3-0.9c0.7-0.6,1-1.4,1-2.3c0-1-0.3-1.7-1-2.3
			c-0.7-0.6-1.4-0.9-2.3-0.9H24c-0.9,0-1.4-0.5-1.4-1.4V-89.8c0-0.9-0.3-1.6-0.9-2.3c-0.6-0.7-1.4-1-2.3-1c-1,0-1.8,0.3-2.4,1
			c-0.6,0.7-0.9,1.5-0.9,2.3V19.2z M21.8-15.8l26.6-26.4c1.1-1.1,2-1.6,3-1.6c1,0,1.9,0.5,3,1.6l25.1,24.9c1.2,1.2,2.4,2.2,3.6,2.7
			c1.2,0.6,2.5,0.9,3.7,0.9c2.5,0,5-1.2,7.3-3.6l28.8-29l11.8,11.8c0.5,0.5,1,0.8,1.6,0.8c0.6,0,1.1-0.2,1.5-0.6
			c0.4-0.4,0.8-0.9,1-1.7l7.8-35.8c0.2-0.7,0.1-1.3-0.1-1.9c-0.3-0.5-0.7-0.9-1.2-1.2c-0.5-0.2-1.1-0.3-1.8-0.1l-35.8,7.9
			c-0.7,0.2-1.3,0.5-1.7,0.9c-0.4,0.4-0.6,0.9-0.5,1.5c0,0.5,0.3,1.1,0.8,1.6l11.7,11.7L89.7-22.5c-1.1,1-2,1.5-3,1.5
			c-1,0-1.9-0.5-3-1.5l-25.1-25c-1.2-1.2-2.4-2.1-3.6-2.7c-1.2-0.6-2.4-0.9-3.7-0.9c-1.3,0-2.5,0.3-3.7,0.8
			c-1.2,0.6-2.4,1.5-3.6,2.7L16.9-20.6L21.8-15.8z"/>
	</g>
	<g id="Thin-L" transform="matrix(1 0 0 1 773.988 1556)">
		<path d="M16.1,19.8c0,0.9,0.3,1.7,0.8,2.2c0.5,0.5,1.3,0.8,2.2,0.8h127.7c0.5,0,0.9-0.2,1.3-0.5c0.4-0.3,0.6-0.8,0.6-1.4
			c0-0.6-0.2-1.1-0.6-1.4c-0.4-0.3-0.9-0.5-1.3-0.5H21c-0.7,0-1-0.3-1-1V-91.2c0-0.5-0.2-0.9-0.5-1.4c-0.3-0.4-0.8-0.7-1.4-0.7
			c-0.7,0-1.2,0.2-1.5,0.7c-0.4,0.4-0.5,0.9-0.5,1.4V19.8z M19-15.9l26.1-25.3c1.4-1.4,2.7-2.1,3.9-2.1c1.2,0,2.5,0.7,3.9,2.1
			l26.6,25.9c1.1,1.1,2.1,1.9,3.2,2.4c1.1,0.5,2.1,0.7,3.2,0.7c2.2,0,4.4-1,6.4-3.1l31.1-31.4l13,12.9c0.3,0.3,0.7,0.5,1,0.5
			c0.4,0,0.7-0.1,0.9-0.3c0.3-0.2,0.5-0.6,0.6-1l6.8-34.9c0.1-0.5,0.1-0.9-0.1-1.2c-0.2-0.3-0.4-0.6-0.8-0.7
			c-0.3-0.1-0.7-0.2-1.2-0.1l-34.9,6.8c-0.5,0.1-0.8,0.3-1,0.6c-0.2,0.3-0.3,0.6-0.3,0.9c0,0.3,0.2,0.7,0.5,1l12.6,12.7L89.9-18.4
			c-1.4,1.4-2.7,2.1-3.9,2.1c-1.2,0-2.5-0.7-3.9-2.1L55.5-44.2c-1.1-1.1-2.2-1.9-3.2-2.4c-1-0.5-2.1-0.7-3.2-0.7
			c-1.1,0-2.2,0.2-3.2,0.7c-1.1,0.5-2.1,1.3-3.2,2.4L16.3-18.7L19-15.9z"/>
	</g>
	<g id="Ultralight-L" transform="matrix(1 0 0 1 477.579 1556)">
		<path d="M16.1,20.1c0,0.8,0.2,1.5,0.7,1.9c0.5,0.5,1.1,0.7,1.9,0.7h128.2c0.3,0,0.6-0.1,0.9-0.3c0.3-0.2,0.4-0.5,0.4-0.9
			c0-0.4-0.1-0.8-0.4-0.9c-0.3-0.2-0.6-0.2-0.9-0.2H19.5c-0.6,0-0.9-0.3-0.9-0.9V-91.9c0-0.3-0.1-0.6-0.3-0.9
			c-0.2-0.3-0.5-0.5-0.9-0.5c-0.5,0-0.8,0.2-1.1,0.5s-0.3,0.6-0.3,0.9V20.1z M17.7-16l25.8-24.8c1.6-1.6,3.1-2.4,4.4-2.4
			c1.4,0,2.8,0.8,4.4,2.4l27.3,26.4c1,1,2,1.7,3,2.2c1,0.5,2,0.7,3,0.7c2.1,0,4.1-1,6-2.9l32.3-32.6l13.5,13.4
			c0.2,0.2,0.5,0.4,0.7,0.4c0.2,0,0.5,0,0.6-0.1c0.2-0.1,0.3-0.4,0.4-0.7l6.2-34.4c0.1-0.4,0.1-0.7-0.1-0.9
			c-0.1-0.2-0.3-0.4-0.5-0.5c-0.2-0.1-0.5-0.1-0.9-0.1l-34.4,6.2c-0.3,0.1-0.6,0.2-0.7,0.4c-0.1,0.2-0.2,0.4-0.1,0.6
			s0.2,0.5,0.4,0.7L122-48.8L90-16.2c-1.6,1.6-3.1,2.4-4.4,2.4c-1.4,0-2.8-0.8-4.4-2.4L53.8-42.6c-1-1-2-1.7-3-2.2s-2-0.7-3-0.7
			c-1,0-2,0.2-3,0.7s-2,1.2-3,2.2L16-17.7L17.7-16z"/>
	</g>
	<g id="Black-M" transform="matrix(1 0 0 1 2862.82 1126)">
		<path d="M12.5,10c0,1.6,0.5,2.9,1.5,4c1,1,2.3,1.5,4,1.5h100.8c2.5,0,4.7-0.8,6.3-2.4c1.7-1.6,2.5-3.7,2.5-6.2
			c0-2.6-0.8-4.7-2.5-6.3c-1.7-1.6-3.8-2.4-6.3-2.4H31.1c-0.8,0-1.3-0.4-1.3-1.3v-75c0-2.5-0.8-4.7-2.4-6.4
			c-1.6-1.7-3.7-2.6-6.2-2.6c-2.6,0-4.7,0.9-6.3,2.6c-1.6,1.7-2.4,3.8-2.4,6.4V10z M28.3-18.1l19.8-21.1c0.4-0.4,0.7-0.6,1.1-0.6
			c0.4,0,0.8,0.2,1.1,0.6l15,16.3c1.4,1.5,2.8,2.6,4.3,3.3c1.5,0.7,3,1,4.6,1c3.1,0,6.1-1.4,8.9-4.2l20.6-20.8l6,6.1
			c1.2,1.2,2.5,1.8,4,1.8c1.5,0,2.8-0.4,4-1.4s2-2.2,2.5-3.9l7.9-29.2c0.4-1.6,0.3-3.1-0.4-4.4c-0.7-1.3-1.7-2.3-3.1-3
			c-1.4-0.7-2.8-0.8-4.4-0.4l-29.2,7.8c-1.7,0.5-3,1.3-3.9,2.5c-1,1.2-1.4,2.5-1.4,4c0,1.5,0.6,2.8,1.9,4l5.6,5.7L75.5-35.7
			c-0.3,0.4-0.7,0.6-1.1,0.6c-0.4,0-0.8-0.2-1.1-0.6l-15-16.3c-1.4-1.5-2.9-2.6-4.4-3.3c-1.5-0.7-3-1-4.6-1c-1.5,0-3,0.3-4.5,1
			c-1.4,0.6-2.9,1.7-4.4,3.3L17.6-28.8L28.3-18.1z"/>
	</g>
	<g id="Heavy-M" transform="matrix(1 0 0 1 2567.44 1126)">
		<path d="M12.5,9.1c0,1.5,0.5,2.7,1.4,3.7c0.9,0.9,2.2,1.4,3.7,1.4h100c2.2,0,4-0.7,5.5-2.1c1.5-1.4,2.2-3.2,2.2-5.4
			c0-2.2-0.7-4.1-2.2-5.5c-1.5-1.4-3.3-2.1-5.5-2.1H28.8c-0.9,0-1.3-0.4-1.3-1.3v-75.6c0-2.2-0.7-4-2.1-5.5
			c-1.4-1.5-3.2-2.2-5.4-2.2c-2.3,0-4.1,0.7-5.5,2.2c-1.4,1.5-2.1,3.3-2.1,5.5V9.1z M26.2-18.6l20.1-21.2c0.4-0.4,0.8-0.6,1.2-0.6
			c0.4,0,0.8,0.2,1.2,0.6L64.4-23c1.3,1.4,2.7,2.5,4.1,3.1s2.8,0.9,4.3,0.9c2.9,0,5.7-1.3,8.4-4l20.4-20.6l6.5,6.5
			c1.1,1.1,2.2,1.6,3.5,1.6c1.3,0,2.4-0.4,3.5-1.2c1.1-0.8,1.8-2,2.2-3.5l7.7-29.1c0.4-1.4,0.3-2.7-0.4-3.8c-0.6-1.2-1.5-2-2.7-2.6
			c-1.2-0.6-2.4-0.7-3.8-0.4l-29.1,7.7c-1.5,0.4-2.6,1.1-3.5,2.1c-0.8,1-1.3,2.2-1.2,3.4c0,1.3,0.6,2.4,1.6,3.5l6.2,6.2L74-34.3
			c-0.4,0.4-0.8,0.6-1.2,0.6c-0.4,0-0.8-0.2-1.2-0.6L56-51.1c-1.3-1.4-2.7-2.5-4.1-3.1c-1.4-0.6-2.8-0.9-4.3-0.9
			c-1.4,0-2.8,0.3-4.2,0.9c-1.4,0.6-2.7,1.6-4.1,3.1L16.7-28.1L26.2-18.6z"/>
	</g>
	<g id="Bold-M" transform="matrix(1 0 0 1 2272.22 1126)">
		<path d="M12.5,8.2c0,1.4,0.4,2.5,1.3,3.4c0.9,0.9,2,1.3,3.4,1.3h99c1.8,0,3.3-0.6,4.6-1.8c1.2-1.2,1.9-2.7,1.9-4.5
			s-0.6-3.3-1.9-4.5c-1.2-1.2-2.8-1.8-4.6-1.8H26.4C25.5,0.3,25-0.2,25-1v-76.1c0-1.8-0.6-3.3-1.8-4.6c-1.2-1.2-2.7-1.9-4.5-1.9
			c-1.9,0-3.4,0.6-4.6,1.9s-1.8,2.8-1.8,4.6V8.2z M24-19l20.5-21.3c0.4-0.4,0.8-0.6,1.2-0.6c0.4,0,0.8,0.2,1.2,0.6L63.4-23
			c1.2,1.3,2.5,2.3,3.8,2.9s2.6,0.9,4,0.9c2.7,0,5.3-1.2,7.8-3.7l20.3-20.4l7,7.1c0.9,0.9,1.9,1.3,2.9,1.4c1,0,2-0.3,2.9-1
			c0.9-0.7,1.5-1.7,1.8-2.9l7.6-28.9c0.3-1.2,0.2-2.2-0.3-3.2c-0.5-1-1.2-1.7-2.2-2.2c-1-0.5-2-0.6-3.2-0.3l-28.9,7.5
			c-1.3,0.3-2.2,0.9-3,1.8c-0.7,0.9-1.1,1.8-1.1,2.9c0,1,0.5,2,1.4,2.9l6.8,6.9l-18.5,19C72-32.2,71.6-32,71.2-32
			c-0.4,0-0.8-0.2-1.2-0.7L53.5-50c-1.3-1.3-2.5-2.3-3.8-2.9c-1.3-0.6-2.6-0.9-4-0.9c-1.3,0-2.6,0.3-3.9,0.9
			c-1.3,0.6-2.5,1.5-3.8,2.9L15.6-27.3L24-19z"/>
	</g>
	<g id="Semibold-M" transform="matrix(1 0 0 1 1976.53 1126)">
		<path d="M12.5,7.5c0,1.3,0.4,2.4,1.2,3.2c0.8,0.8,1.9,1.2,3.2,1.2h98.3c1.5,0,2.8-0.5,3.9-1.5c1.1-1,1.6-2.3,1.6-3.9
			c0-1.6-0.5-2.9-1.6-3.9c-1.1-1-2.4-1.5-3.9-1.5H24.7c-0.9,0-1.3-0.4-1.3-1.3v-76.5c0-1.5-0.5-2.8-1.5-3.9c-1-1.1-2.3-1.6-3.9-1.6
			c-1.6,0-2.9,0.5-3.9,1.6s-1.5,2.4-1.5,3.9V7.5z M22.4-19.4l20.7-21.4c0.4-0.4,0.8-0.7,1.3-0.7c0.4,0,0.9,0.2,1.3,0.7l17,17.7
			c1.2,1.2,2.3,2.1,3.6,2.7c1.2,0.6,2.5,0.9,3.8,0.9c2.5,0,5-1.2,7.4-3.5l20.1-20.3l7.4,7.4c0.8,0.8,1.6,1.2,2.5,1.2
			s1.7-0.3,2.5-0.9c0.7-0.6,1.3-1.5,1.5-2.6l7.4-28.8c0.3-1,0.2-1.9-0.2-2.8c-0.4-0.8-1.1-1.5-1.9-1.9c-0.9-0.4-1.8-0.5-2.8-0.2
			l-28.8,7.4c-1.1,0.3-2,0.8-2.6,1.6c-0.6,0.7-0.9,1.5-0.9,2.4c0,0.9,0.4,1.7,1.2,2.5l7.3,7.3L71.3-31.5c-0.4,0.4-0.8,0.7-1.3,0.7
			c-0.4,0-0.8-0.2-1.3-0.7l-17-17.7c-1.2-1.2-2.4-2.1-3.6-2.7c-1.2-0.6-2.5-0.8-3.7-0.8c-1.3,0-2.5,0.3-3.7,0.8
			c-1.2,0.5-2.4,1.5-3.6,2.7L14.9-26.8L22.4-19.4z"/>
	</g>
	<g id="Medium-M" transform="matrix(1 0 0 1 1680.6 1126)">
		<path d="M107.8-58.6c-1.9-1.4-1.5-4.2,0.6-5.1l21.4-9.1c2.1-0.8,4.4,0.8,4.2,3.1l-2.9,23.1c-0.2,2.3-3,3.5-4.8,2l-5.9-4
			C111.1-37.1,97.2-20.2,84-20.2c-19.6,0-27.2-15.3-37.1-15.3c-9.2,0-21.1,14.6-24.4,18.1V-1c0,1.2,1,2.1,2.1,2.1h91.3
			c1.1,0,2.1,0.3,2.9,1.1c0.8,0.8,1.2,2.7,1.2,3.9s-0.4,3.2-1.2,3.9c-0.8,0.7-1.7,1.1-2.9,1.1H16.5c-1.1,0-2.2-0.3-2.9-1
			c-0.7-0.7-1.1-1.6-1.1-2.9v-84.6c0-1,0.3-1.9,1.1-2.8c0.8-0.8,2.5-1.2,3.9-1.2c1.3,0,3,0.4,3.9,1.2c0.7,0.7,1.1,1.7,1.1,2.8v47.5
			c3.5-3.3,15.2-15.9,24.3-15.9c12.6,0,16.4,15.7,36.6,15.7c13.2,0,21.6-13.5,29.5-24.2"/>
	</g>
	<g id="Regular-M" transform="matrix(1 0 0 1 1384.9 1126)">
		<g>
			<path d="M129.9-67.9l-2.4,19.4c-0.2,1.9-2.5,2.9-4,1.7l-4.6-3.5c-9.1,11.2-23.2,28.9-36.6,28.9c-19.1,0-26.6-14.9-36.2-14.9
				c-9,0-22.6,14.2-25.8,17.7V1c0,0.9,0.5,1.4,1.4,1.4h91.8c1.1,0,2,0.3,2.8,1.1s1.2,1.7,1.2,2.8s-0.4,2.1-1.2,2.8
				c-0.8,0.7-1.7,1.1-2.8,1.1H16.4c-1.1,0-2.1-0.3-2.8-1s-1.1-1.6-1.1-2.8v-82.6c0-1,0.3-1.9,1.1-2.7s1.7-1.2,2.8-1.2s2,0.4,2.8,1.2
				c0.7,0.7,1.1,1.7,1.1,2.7v47.3c3.4-3.2,16.8-15.5,25.7-15.5c12.3,0,16,15.3,35.7,15.3c14,0,22.4-15.4,30.7-26.1l-4.5-3.4
				c-1.6-1.2-1.3-3.5,0.5-4.3l18-7.6C128.2-71.2,130.1-69.8,129.9-67.9z"/>
		</g>
	</g>
	<g id="Light-M" transform="matrix(1 0 0 1 1088.59 1126)">
		<path d="M12.5,6.8c0,1,0.3,1.8,0.9,2.4C14,9.7,14.8,10,15.8,10h97.8c0.8,0,1.5-0.3,2.1-0.8c0.6-0.6,0.9-1.3,0.9-2.1
			c0-0.9-0.3-1.6-0.9-2.1c-0.6-0.6-1.3-0.9-2.1-0.9H19.7c-0.8,0-1.2-0.4-1.2-1.2v-80c0-0.8-0.3-1.5-0.9-2.1
			c-0.6-0.6-1.3-0.9-2.1-0.9c-0.9,0-1.6,0.3-2.2,0.9c-0.6,0.6-0.9,1.3-0.9,2.1V6.8z M17.8-20.1l20.8-20.8c0.7-0.7,1.3-1,2-1
			c0.6,0,1.3,0.3,2,1l19,19c1,1,1.9,1.7,2.9,2.2c1,0.5,2,0.7,3,0.7c2.1,0,4.1-1,6-2.9L95-43.5l8.8,8.8c0.5,0.5,0.9,0.7,1.4,0.7
			c0.5,0,1-0.2,1.4-0.5c0.4-0.4,0.7-0.9,0.9-1.5l6.5-28c0.2-0.6,0.1-1.1-0.1-1.6c-0.2-0.5-0.6-0.8-1.1-1s-1-0.3-1.6-0.1l-28,6.5
			c-0.7,0.2-1.2,0.5-1.5,0.9c-0.4,0.4-0.5,0.9-0.5,1.3c0,0.5,0.2,1,0.7,1.4l8.7,8.7l-21,21.3c-0.7,0.7-1.4,1-2,1c-0.6,0-1.3-0.3-2-1
			l-19-19c-1-1-2-1.8-3-2.2c-1-0.5-2-0.7-3-0.7c-1,0-2,0.2-3,0.7c-1,0.5-2,1.2-3,2.2L13.3-24.6L17.8-20.1z"/>
	</g>
	<g id="Thin-M" transform="matrix(1 0 0 1 792.412 1126)">
		<path d="M12.5,7.3c0,0.8,0.2,1.4,0.7,1.9c0.5,0.4,1.1,0.7,1.8,0.7h98.7c0.5,0,0.9-0.2,1.3-0.5c0.4-0.3,0.6-0.7,0.6-1.3
			c0-0.6-0.2-1-0.6-1.3c-0.4-0.3-0.8-0.5-1.3-0.5H17c-0.6,0-0.9-0.3-0.9-0.9v-83.8c0-0.5-0.2-0.9-0.5-1.3c-0.3-0.4-0.7-0.6-1.3-0.6
			c-0.6,0-1.1,0.2-1.4,0.6c-0.3,0.4-0.5,0.8-0.5,1.3V7.3z M15.4-20.2l20.3-19.9c1-1,2-1.5,2.8-1.5c0.9,0,1.8,0.5,2.8,1.5l20.3,19.9
			c0.9,0.9,1.7,1.5,2.6,1.9c0.8,0.4,1.7,0.6,2.6,0.6c1.8,0,3.5-0.8,5.2-2.5l23.6-23.8l9.8,9.8c0.3,0.3,0.6,0.4,0.9,0.5
			c0.3,0,0.6-0.1,0.9-0.3c0.3-0.2,0.4-0.5,0.5-0.9l5.5-27.2c0.1-0.4,0.1-0.8-0.1-1.1c-0.1-0.3-0.4-0.5-0.7-0.7
			c-0.3-0.1-0.7-0.2-1.1-0.1l-27.2,5.5c-0.4,0.1-0.7,0.3-0.9,0.5c-0.2,0.3-0.3,0.5-0.3,0.8c0,0.3,0.2,0.6,0.5,0.9l9.5,9.6L69.6-23.1
			c-1,1-1.9,1.5-2.8,1.5c-0.9,0-1.8-0.5-2.8-1.5L43.7-42.9c-0.9-0.9-1.7-1.5-2.6-1.9c-0.9-0.4-1.7-0.6-2.6-0.6
			c-0.9,0-1.7,0.2-2.6,0.6c-0.9,0.4-1.7,1-2.6,1.9L12.8-22.8L15.4-20.2z"/>
	</g>
	<g id="Ultralight-M" transform="matrix(1 0 0 1 495.973 1126)">
		<path d="M12.5,7.6c0,0.7,0.2,1.2,0.6,1.6c0.4,0.4,0.9,0.6,1.6,0.6h99.2c0.3,0,0.6-0.1,0.8-0.3c0.3-0.2,0.4-0.5,0.4-0.8
			c0-0.4-0.1-0.7-0.4-0.9c-0.3-0.2-0.5-0.3-0.8-0.3H15.6c-0.5,0-0.7-0.2-0.7-0.7v-85.7c0-0.3-0.1-0.6-0.3-0.8
			c-0.2-0.3-0.5-0.4-0.9-0.4c-0.4,0-0.8,0.1-1,0.4c-0.2,0.3-0.3,0.6-0.3,0.8V7.6z M14.1-20.3l20.1-19.4c1.2-1.2,2.3-1.7,3.3-1.7
			c1,0,2.1,0.6,3.3,1.7l21,20.3c0.8,0.8,1.6,1.4,2.4,1.7c0.8,0.4,1.6,0.5,2.4,0.5c1.7,0,3.3-0.8,4.8-2.3l24.6-24.9l10.3,10.3
			c0.2,0.2,0.4,0.3,0.6,0.3c0.2,0,0.4,0,0.6-0.1c0.2-0.1,0.3-0.3,0.3-0.6l5-26.8c0.1-0.3,0.1-0.6,0-0.8c-0.1-0.2-0.3-0.4-0.5-0.5
			c-0.2-0.1-0.5-0.1-0.8-0.1l-26.8,5c-0.3,0.1-0.5,0.2-0.6,0.4c-0.1,0.2-0.2,0.4-0.1,0.6c0,0.2,0.2,0.4,0.4,0.7l10,10.1L69.7-21.1
			c-1.2,1.2-2.2,1.8-3.3,1.8c-1,0-2.1-0.6-3.3-1.8L42.2-41.4c-0.8-0.8-1.6-1.4-2.4-1.8c-0.8-0.4-1.6-0.5-2.4-0.5
			c-0.8,0-1.6,0.2-2.4,0.6c-0.8,0.4-1.6,1-2.4,1.8L12.5-21.9L14.1-20.3z"/>
	</g>
	<g id="Black-S" transform="matrix(1 0 0 1 2877.71 696)">
		<path d="M9.8,0.5c0,1.3,0.4,2.4,1.2,3.2c0.8,0.8,1.9,1.2,3.2,1.2h79.3c2.1,0,3.8-0.7,5.2-2c1.4-1.3,2.1-3,2.1-5.1
			c0-2.1-0.7-3.8-2.1-5.1c-1.4-1.3-3.1-2-5.2-2H24.9c-0.7,0-1-0.3-1-1v-58.8c0-2.1-0.7-3.8-2-5.2c-1.3-1.4-3-2.1-5.1-2.1
			s-3.8,0.7-5.1,2.1c-1.3,1.4-2,3.1-2,5.2V0.5z M22.7-21.7l15.4-16.5c0.3-0.3,0.6-0.5,0.9-0.5c0.3,0,0.6,0.2,0.9,0.5l11.6,12.6
			c1.1,1.2,2.3,2.1,3.5,2.6s2.4,0.8,3.6,0.8c2.5,0,4.8-1.1,7.1-3.4L82-41.9l4.6,4.6c1,1,2.1,1.5,3.3,1.5c1.2,0,2.3-0.4,3.3-1.1
			c1-0.8,1.7-1.8,2-3.1l6.2-22.9c0.4-1.3,0.3-2.5-0.3-3.6c-0.6-1.1-1.4-1.9-2.5-2.5c-1.1-0.6-2.3-0.7-3.6-0.3l-22.9,6.1
			c-1.4,0.4-2.4,1-3.2,2c-0.8,1-1.1,2.1-1.1,3.2c0,1.2,0.5,2.3,1.5,3.3l4.2,4.3L59.6-35.9c-0.2,0.3-0.5,0.4-0.9,0.4
			c-0.3,0-0.6-0.2-0.9-0.5L46.1-48.6c-1.1-1.2-2.3-2.1-3.5-2.6C41.5-51.7,40.3-52,39-52c-1.2,0-2.4,0.3-3.5,0.8
			c-1.2,0.5-2.3,1.4-3.5,2.6L14-30.3L22.7-21.7z"/>
	</g>
	<g id="Heavy-S" transform="matrix(1 0 0 1 2582.09 696)">
		<path d="M9.8-0.3c0,1.2,0.4,2.2,1.1,3c0.8,0.8,1.8,1.1,3,1.1h78.5c1.8,0,3.3-0.6,4.6-1.7c1.2-1.2,1.8-2.7,1.8-4.5
			c0-1.8-0.6-3.3-1.8-4.5c-1.2-1.2-2.7-1.7-4.6-1.7H23.3c-0.7,0-1-0.3-1-1v-58.9c0-1.8-0.6-3.3-1.7-4.6c-1.2-1.2-2.7-1.8-4.5-1.8
			c-1.8,0-3.3,0.6-4.5,1.8c-1.2,1.2-1.7,2.7-1.7,4.6V-0.3z M21.2-22l15.7-16.7c0.3-0.3,0.5-0.5,0.8-0.5s0.6,0.2,0.9,0.5l12.1,13
			c1.1,1.1,2.2,2,3.3,2.5c1.1,0.5,2.3,0.8,3.4,0.8c2.3,0,4.6-1.1,6.7-3.2l16-16.1l4.9,4.9c0.9,0.9,1.8,1.3,2.9,1.3
			c1.1,0,2-0.3,2.9-1c0.9-0.7,1.5-1.6,1.8-2.8l6.2-22.9c0.3-1.1,0.2-2.2-0.3-3.2c-0.5-1-1.2-1.7-2.2-2.2c-1-0.5-2-0.6-3.2-0.3
			l-22.8,6.1C69-61.4,68-60.9,67.4-60c-0.7,0.9-1,1.8-1,2.8c0,1,0.5,2,1.3,2.9l4.7,4.7L58.3-35c-0.2,0.3-0.5,0.4-0.8,0.4
			c-0.3,0-0.6-0.2-0.9-0.5l-12.1-13c-1.1-1.2-2.1-2-3.3-2.5c-1.1-0.5-2.3-0.7-3.5-0.7c-1.1,0-2.3,0.2-3.4,0.7
			c-1.1,0.5-2.2,1.3-3.4,2.5L13.3-29.9L21.2-22z"/>
	</g>
	<g id="Bold-S" transform="matrix(1 0 0 1 2286.6 696)">
		<path d="M9.8-1.2c0,1.2,0.4,2.1,1.1,2.8c0.7,0.7,1.6,1.1,2.8,1.1h77.5c1.5,0,2.8-0.5,3.8-1.5c1-1,1.6-2.3,1.6-3.8
			c0-1.5-0.5-2.8-1.6-3.8c-1-1-2.3-1.5-3.8-1.5H21.5c-0.7,0-1.1-0.4-1.1-1.1v-59c0-1.5-0.5-2.8-1.5-3.8c-1-1-2.3-1.6-3.8-1.6
			c-1.5,0-2.8,0.5-3.8,1.6c-1,1-1.5,2.3-1.5,3.8V-1.2z M19.5-22.4l16.1-16.9c0.2-0.3,0.5-0.4,0.8-0.4c0.3,0,0.6,0.1,0.8,0.4
			l12.6,13.4c1,1.1,2,1.8,3.1,2.3c1,0.5,2.1,0.7,3.2,0.7c2.2,0,4.3-1,6.3-3L78-41.6l5.3,5.3c0.7,0.7,1.6,1.1,2.5,1.1
			c0.9,0,1.7-0.3,2.4-0.9c0.7-0.6,1.2-1.4,1.5-2.4l6.1-22.9c0.3-1,0.2-1.9-0.2-2.7c-0.4-0.8-1-1.4-1.9-1.8c-0.8-0.4-1.7-0.5-2.7-0.2
			l-22.8,6c-1,0.3-1.9,0.8-2.5,1.5s-0.9,1.5-0.9,2.4c0,0.9,0.4,1.7,1.1,2.5l5.1,5.2L56.9-34c-0.2,0.3-0.5,0.4-0.8,0.4
			c-0.3,0-0.6-0.1-0.8-0.4L42.7-47.5c-1-1.1-2-1.8-3.1-2.3s-2.1-0.7-3.2-0.7c-1.1,0-2.1,0.2-3.1,0.7c-1,0.5-2.1,1.2-3.1,2.3
			l-17.6,18L19.5-22.4z"/>
	</g>
	<g id="Semibold-S" transform="matrix(1 0 0 1 1990.73 696)">
		<path d="M9.8-1.8c0,1.1,0.3,2,1,2.7c0.7,0.7,1.6,1,2.7,1h76.9c1.3,0,2.4-0.4,3.4-1.3c0.9-0.9,1.4-2,1.4-3.3c0-1.3-0.5-2.4-1.4-3.3
			c-0.9-0.9-2-1.3-3.4-1.3H20.2c-0.8,0-1.1-0.4-1.1-1.1v-59c0-1.3-0.4-2.4-1.3-3.3c-0.9-0.9-2-1.4-3.3-1.4c-1.3,0-2.4,0.5-3.3,1.4
			c-0.9,0.9-1.3,2-1.3,3.3V-1.8z M18.3-22.7l16.3-17c0.2-0.3,0.5-0.4,0.8-0.4c0.3,0,0.5,0.1,0.8,0.4l13,13.6c1,1,1.9,1.7,2.9,2.2
			c1,0.5,2,0.7,3.1,0.7c2.1,0,4-1,6-2.9l15.3-15.4l5.5,5.5c0.7,0.7,1.4,1,2.2,1c0.8,0,1.5-0.3,2.1-0.8c0.6-0.5,1.1-1.3,1.3-2.2
			l6.1-22.8c0.2-0.9,0.2-1.6-0.2-2.4c-0.4-0.7-0.9-1.2-1.6-1.6c-0.7-0.4-1.5-0.4-2.4-0.2l-22.7,6c-0.9,0.3-1.7,0.7-2.2,1.3
			c-0.5,0.6-0.8,1.3-0.8,2.1c0,0.8,0.3,1.5,1,2.1l5.4,5.5L56-33.4c-0.2,0.2-0.5,0.4-0.8,0.4c-0.3,0-0.5-0.1-0.8-0.4L41.4-47
			c-1-1-1.9-1.8-2.9-2.2c-1-0.5-2-0.7-3.1-0.7c-1,0-2,0.2-3,0.7c-1,0.4-2,1.2-3,2.2L11.9-29.1L18.3-22.7z"/>
	</g>
	<g id="Medium-S" transform="matrix(1 0 0 1 1694.65 696)">
		<path d="M9.8-2.3c0,1.1,0.3,1.9,1,2.6c0.6,0.6,1.5,1,2.6,1h76.4c1.2,0,2.2-0.4,3-1.2c0.8-0.8,1.2-1.8,1.2-3c0-1.2-0.4-2.1-1.2-2.9
			s-1.8-1.2-3-1.2H19.3c-0.8,0-1.2-0.4-1.2-1.1v-59c0-1.1-0.4-2.1-1.2-3c-0.8-0.8-1.8-1.2-3-1.2s-2.2,0.4-3,1.2
			c-0.8,0.8-1.2,1.8-1.2,3V-2.3z M17.5-22.9L34-40c0.2-0.2,0.5-0.4,0.8-0.4s0.5,0.1,0.8,0.4l13.2,13.8c0.9,1,1.9,1.7,2.8,2.1
			c1,0.5,1.9,0.7,2.9,0.7c2,0,3.9-0.9,5.8-2.8l15.1-15.2l5.7,5.7c0.6,0.6,1.2,0.9,1.9,0.9c0.7,0,1.3-0.3,1.9-0.7
			c0.6-0.5,0.9-1.1,1.2-2l6-22.8c0.2-0.8,0.1-1.5-0.2-2.1c-0.3-0.6-0.8-1.1-1.5-1.4c-0.7-0.3-1.4-0.4-2.1-0.1l-22.7,6
			c-0.8,0.3-1.5,0.7-2,1.2c-0.5,0.5-0.7,1.2-0.7,1.8c0,0.7,0.3,1.3,0.9,1.9l5.7,5.7L55.2-32.8c-0.2,0.2-0.5,0.4-0.8,0.4
			c-0.3,0-0.5-0.1-0.8-0.4L40.5-46.7c-0.9-1-1.9-1.7-2.8-2.1c-1-0.5-1.9-0.7-2.9-0.7c-1,0-2,0.2-2.9,0.7c-0.9,0.4-1.9,1.2-2.9,2.2
			L11.5-28.9L17.5-22.9z"/>
	</g>
	<g id="Regular-S" transform="matrix(1 0 0 1 1398.77 696)">
		<path d="M9.8-2.9c0,1,0.3,1.8,0.9,2.4c0.6,0.6,1.4,0.9,2.4,0.9h75.8c1,0,1.8-0.3,2.5-1c0.7-0.7,1-1.5,1-2.5c0-0.9-0.3-1.8-1-2.5
			c-0.7-0.7-1.5-1-2.5-1H18c-0.8,0-1.2-0.4-1.2-1.2v-59.1c0-0.9-0.3-1.8-1-2.5c-0.7-0.7-1.5-1-2.5-1c-1,0-1.8,0.3-2.5,1
			c-0.7,0.7-1,1.5-1,2.5V-2.9z M16.3-23.2l16.7-17.2c0.2-0.2,0.5-0.3,0.7-0.3c0.3,0,0.5,0.1,0.7,0.3l13.6,14.1
			c0.9,0.9,1.8,1.6,2.7,2c0.9,0.4,1.8,0.7,2.8,0.7c1.9,0,3.7-0.9,5.5-2.7l14.8-14.9l6,6c0.5,0.5,1.1,0.8,1.6,0.8
			c0.6,0,1.1-0.2,1.5-0.7c0.5-0.4,0.8-1,1-1.7l6-22.8c0.2-0.7,0.1-1.2-0.1-1.8c-0.3-0.5-0.7-0.9-1.2-1.2c-0.6-0.3-1.2-0.3-1.8-0.1
			l-22.7,6c-0.7,0.2-1.3,0.6-1.7,1c-0.4,0.5-0.7,1-0.7,1.5c0,0.6,0.3,1.1,0.8,1.6l6,6L54.3-32.2c-0.2,0.2-0.5,0.3-0.7,0.3
			c-0.3,0-0.5-0.1-0.7-0.3L39.3-46.3c-0.9-0.9-1.8-1.6-2.7-2c-0.9-0.4-1.8-0.7-2.8-0.7c-0.9,0-1.9,0.2-2.7,0.6
			c-0.9,0.4-1.8,1.1-2.7,2.1L11-28.6L16.3-23.2z"/>
	</g>
	<g id="Light-S" transform="matrix(1 0 0 1 1102.41 696)">
		<path d="M9.8-2.5c0,0.9,0.3,1.5,0.8,2c0.5,0.5,1.2,0.8,2,0.8H89c0.7,0,1.4-0.3,1.9-0.8c0.5-0.5,0.8-1.2,0.8-1.9
			c0-0.7-0.3-1.4-0.8-1.9c-0.5-0.5-1.2-0.8-1.9-0.8H16.2c-0.7,0-1-0.3-1-1v-61.6c0-0.7-0.3-1.4-0.8-1.9s-1.2-0.8-1.9-0.8
			c-0.8,0-1.4,0.3-1.9,0.8C10-69,9.8-68.4,9.8-67.7V-2.5z M14.7-23.3l16.4-16.6c0.4-0.4,0.9-0.7,1.3-0.7c0.4,0,0.9,0.2,1.3,0.7
			l14.5,14.7c0.8,0.8,1.6,1.4,2.4,1.8c0.8,0.4,1.7,0.6,2.5,0.6c1.7,0,3.3-0.8,4.9-2.4l16.2-16.3l6.6,6.6c0.4,0.4,0.8,0.6,1.3,0.6
			c0.4,0,0.9-0.2,1.2-0.5c0.4-0.3,0.6-0.8,0.7-1.3l5.4-22.2c0.1-0.5,0.1-1-0.1-1.4c-0.2-0.4-0.5-0.7-1-0.9C88-60.9,87.5-61,87-60.8
			l-22.1,5.3c-0.6,0.2-1,0.4-1.3,0.8C63.1-54.4,63-54,63-53.5c0,0.4,0.2,0.9,0.6,1.3l6.6,6.6l-15.8,16c-0.4,0.4-0.9,0.7-1.3,0.7
			c-0.4,0-0.9-0.2-1.3-0.7L37.3-44.4c-0.8-0.8-1.6-1.4-2.4-1.8c-0.8-0.4-1.7-0.6-2.5-0.6c-0.8,0-1.7,0.2-2.5,0.6
			c-0.8,0.4-1.6,1-2.5,1.8l-16.9,17L14.7-23.3z"/>
	</g>
	<g id="Thin-S" transform="matrix(1 0 0 1 806.174 696)">
		<path d="M9.8-2c0,0.7,0.2,1.2,0.6,1.6c0.4,0.4,0.9,0.6,1.6,0.6h77.2c0.4,0,0.8-0.1,1.2-0.4c0.3-0.3,0.5-0.7,0.5-1.2
			c0-0.5-0.2-0.9-0.5-1.2c-0.3-0.3-0.7-0.5-1.2-0.5H13.8c-0.5,0-0.7-0.2-0.7-0.7v-64.9c0-0.4-0.1-0.8-0.4-1.2
			c-0.3-0.3-0.7-0.5-1.2-0.5c-0.5,0-0.9,0.2-1.2,0.5c-0.3,0.3-0.5,0.7-0.5,1.2V-2z M12.5-23.4l16-15.8c0.7-0.7,1.4-1.1,2.1-1.1
			s1.3,0.4,2.1,1.1l15.6,15.4c0.7,0.7,1.4,1.2,2.1,1.5c0.7,0.3,1.4,0.5,2.1,0.5c1.5,0,2.9-0.7,4.2-2l18.1-18.3l7.5,7.5
			c0.3,0.3,0.5,0.4,0.8,0.4c0.3,0,0.5-0.1,0.8-0.3c0.2-0.2,0.4-0.5,0.4-0.8l4.5-21.5c0.1-0.4,0.1-0.7-0.1-1
			c-0.1-0.3-0.3-0.5-0.6-0.6c-0.3-0.1-0.6-0.1-0.9,0l-21.5,4.5c-0.4,0.1-0.6,0.2-0.8,0.5c-0.2,0.2-0.3,0.5-0.3,0.8
			c0,0.3,0.2,0.5,0.4,0.8l7.3,7.4L54.5-26.4c-0.7,0.7-1.4,1.1-2.1,1.1c-0.6,0-1.3-0.4-2.1-1.1L34.8-41.8c-0.7-0.7-1.4-1.2-2.1-1.6
			c-0.7-0.3-1.4-0.5-2.1-0.5s-1.4,0.2-2.1,0.5c-0.7,0.3-1.4,0.8-2.1,1.6l-16.2,16L12.5-23.4z"/>
	</g>
	<g id="Ultralight-S" transform="matrix(1 0 0 1 509.704 696)">
		<path d="M9.8-1.7c0,0.6,0.2,1,0.5,1.3C10.6-0.1,11,0,11.5,0h77.6c0.3,0,0.5-0.1,0.8-0.3c0.2-0.2,0.3-0.4,0.3-0.8
			c0-0.3-0.1-0.6-0.3-0.8c-0.2-0.2-0.5-0.3-0.8-0.3H12.6c-0.4,0-0.6-0.2-0.6-0.6v-66.6c0-0.3-0.1-0.5-0.3-0.8s-0.4-0.4-0.8-0.4
			c-0.4,0-0.7,0.1-0.9,0.4c-0.2,0.2-0.3,0.5-0.3,0.8V-1.7z M11.4-23.5l15.7-15.3c0.9-0.9,1.7-1.3,2.5-1.3c0.7,0,1.6,0.4,2.5,1.3
			L48.3-23c0.6,0.6,1.3,1.1,1.9,1.4c0.6,0.3,1.3,0.4,1.9,0.4c1.3,0,2.6-0.6,3.9-1.8l19-19.3l7.9,7.9c0.2,0.2,0.4,0.3,0.6,0.3
			c0.2,0,0.4,0,0.5-0.1c0.2-0.1,0.3-0.3,0.3-0.6l4.1-21.1c0.1-0.3,0.1-0.5,0-0.7c-0.1-0.2-0.2-0.3-0.4-0.4c-0.2-0.1-0.4-0.1-0.7,0
			L66.1-53c-0.3,0-0.5,0.1-0.6,0.3c-0.1,0.2-0.2,0.3-0.1,0.5c0,0.2,0.1,0.4,0.3,0.5l7.7,7.8L54.6-24.7c-0.9,0.9-1.7,1.3-2.5,1.3
			c-0.7,0-1.6-0.4-2.5-1.3L33.4-40.5c-0.6-0.7-1.3-1.1-1.9-1.4c-0.6-0.3-1.3-0.4-1.9-0.4s-1.3,0.1-1.9,0.4c-0.6,0.3-1.3,0.8-1.9,1.4
			L9.9-25L11.4-23.5z"/>
	</g>
</g>
</svg>
