<?xml version="1.0" encoding="utf-8"?>
<!-- Generator: Adobe Illustrator 25.0.0, SVG Export Plug-In . SVG Version: 6.00 Build 0)  -->
<svg version="1.1" id="Layer_1" xmlns="http://www.w3.org/2000/svg" xmlns:xlink="http://www.w3.org/1999/xlink" x="0px" y="0px"
	 viewBox="0 0 3300 2200" style="enable-background:new 0 0 3300 2200;" xml:space="preserve">
<style type="text/css">
	.st0{fill:#FFFFFF;}
	.st1{fill:none;stroke:#000000;stroke-width:0.5;}
	.st2{font-family:'Helvetica-Bold';}
	.st3{font-size:13px;}
	.st4{font-family:'Helvetica';}
	.st5{fill:none;stroke:#00AEEF;stroke-width:0.5;}
	.st6{fill:#27AAE1;}
	.st7{fill:none;stroke:#27AAE1;stroke-width:0.5;}
</style>
<g id="Notes">
	<rect id="artboard" y="0" class="st0" width="3300" height="2200"/>
	<line class="st1" x1="263" y1="292" x2="3036" y2="292"/>
	<text transform="matrix(1 0 0 1 263.0469 321.9788)" class="st2 st3">Weight/Scale Variations</text>
	<text transform="matrix(1 0 0 1 534.1101 321.9788)" class="st4 st3">Ultralight</text>
	<text transform="matrix(1 0 0 1 843.8243 321.9788)" class="st4 st3">Thin</text>
	<text transform="matrix(1 0 0 1 1139.0819 321.9788)" class="st4 st3">Light</text>
	<text transform="matrix(1 0 0 1 1427.124 321.9788)" class="st4 st3">Regular</text>
	<text transform="matrix(1 0 0 1 1723.4886 321.9788)" class="st4 st3">Medium</text>
	<text transform="matrix(1 0 0 1 2016.2186 321.9788)" class="st4 st3">Semibold</text>
	<text transform="matrix(1 0 0 1 2327.0171 321.9788)" class="st4 st3">Bold</text>
	<text transform="matrix(1 0 0 1 2618.3125 321.9788)" class="st4 st3">Heavy</text>
	<text transform="matrix(1 0 0 1 2917.5522 321.9788)" class="st4 st3">Black</text>
	<line class="st1" x1="263" y1="1903" x2="3036" y2="1903"/>
	<g transform="matrix(1 0 0 1 263 1933)">
		<path d="M9.3,0.8c1.1,0,2.1-0.2,3-0.6c1-0.4,1.8-1,2.5-1.7s1.3-1.6,1.7-2.5c0.4-1,0.6-2,0.6-3s-0.2-2.1-0.6-3
			c-0.4-1-1-1.8-1.7-2.5s-1.6-1.3-2.5-1.7s-2-0.6-3-0.6c-1.1,0-2.1,0.2-3,0.6s-1.8,1-2.5,1.7S2.5-10.9,2.1-10S1.5-8,1.5-7
			s0.2,2.1,0.6,3s1,1.8,1.7,2.5s1.6,1.3,2.5,1.7S8.2,0.8,9.3,0.8z M9.3-0.7c-0.9,0-1.7-0.2-2.5-0.5S5.4-2,4.8-2.6s-1-1.3-1.4-2
			C3.1-5.4,2.9-6.2,2.9-7.1s0.2-1.7,0.5-2.5s0.8-1.5,1.4-2s1.3-1,2-1.4s1.6-0.5,2.5-0.5s1.7,0.2,2.5,0.5s1.5,0.8,2,1.4s1,1.3,1.4,2
			c0.3,0.8,0.5,1.6,0.5,2.5s-0.2,1.7-0.5,2.5s-0.8,1.5-1.4,2c-0.6,0.6-1.3,1-2,1.4C11-0.8,10.2-0.7,9.3-0.7z M5.7-7.1
			c0,0.2,0.1,0.4,0.2,0.5s0.3,0.2,0.5,0.2h2.1v2.1c0,0.2,0.1,0.4,0.2,0.5S9-3.6,9.2-3.6s0.4-0.1,0.5-0.2s0.2-0.3,0.2-0.5v-2.1H12
			c0.2,0,0.4-0.1,0.5-0.2s0.2-0.3,0.2-0.5s-0.1-0.4-0.2-0.5c-0.1-0.1-0.3-0.2-0.5-0.2H9.9v-2.1c0-0.2-0.1-0.4-0.2-0.5
			s-0.3-0.2-0.5-0.2s-0.4,0.1-0.5,0.2s-0.2,0.3-0.2,0.5v2.1H6.4C6.2-7.8,6-7.7,5.9-7.6S5.7-7.3,5.7-7.1z"/>
	</g>
	<g transform="matrix(1 0 0 1 281.867 1933)">
		<path d="M11.8,2.9c1.4,0,2.6-0.3,3.8-0.8s2.3-1.2,3.2-2.2c0.9-0.9,1.6-2,2.2-3.2c0.5-1.2,0.8-2.5,0.8-3.8c0-1.4-0.3-2.6-0.8-3.8
			s-1.2-2.3-2.2-3.2c-0.9-0.9-2-1.6-3.2-2.2c-1.2-0.5-2.5-0.8-3.8-0.8S9.2-16.8,8-16.3c-1.2,0.5-2.3,1.2-3.2,2.2
			c-0.9,0.9-1.6,2-2.2,3.2C2.1-9.7,1.8-8.4,1.8-7.1c0,1.4,0.3,2.6,0.8,3.8S3.8-1,4.8-0.1s2,1.6,3.2,2.2S10.4,2.9,11.8,2.9z
			 M11.8,1.2c-1.2,0-2.2-0.2-3.2-0.6S6.7-0.4,6-1.2S4.6-2.8,4.2-3.8S3.6-5.9,3.6-7s0.2-2.2,0.6-3.2s1-1.9,1.8-2.6
			c0.8-0.8,1.6-1.4,2.6-1.8s2.1-0.6,3.2-0.6c1.2,0,2.2,0.2,3.2,0.6s1.9,1,2.6,1.8c0.8,0.8,1.4,1.6,1.8,2.6S20-8.1,20-7
			s-0.2,2.2-0.6,3.2s-1,1.9-1.8,2.6S16,0.2,15,0.6S12.9,1.2,11.8,1.2z M7.2-7.1c0,0.2,0.1,0.4,0.2,0.6C7.6-6.4,7.8-6.3,8-6.3h2.9
			v2.9c0,0.2,0.1,0.4,0.2,0.6c0.1,0.2,0.3,0.2,0.6,0.2c0.2,0,0.4-0.1,0.6-0.2c0.2-0.2,0.2-0.4,0.2-0.6v-2.9h2.9
			c0.2,0,0.4-0.1,0.6-0.2s0.2-0.3,0.2-0.6c0-0.2-0.1-0.4-0.2-0.6c-0.2-0.2-0.4-0.2-0.6-0.2h-2.8v-2.9c0-0.3-0.1-0.5-0.2-0.6
			c-0.2-0.2-0.4-0.2-0.6-0.2c-0.2,0-0.4,0.1-0.6,0.2C11.1-11.2,11-11,11-10.8v2.9H8.1c-0.3,0-0.5,0.1-0.6,0.2
			C7.3-7.5,7.2-7.3,7.2-7.1z"/>
	</g>
	<g transform="matrix(1 0 0 1 305.646 1933)">
		<path d="M15,5.6c1.4,0,2.7-0.2,4-0.6s2.4-1,3.5-1.8s2-1.7,2.8-2.8s1.4-2.2,1.8-3.5s0.6-2.6,0.6-4s-0.2-2.7-0.6-4s-1-2.4-1.8-3.5
			s-1.7-2-2.8-2.8s-2.2-1.4-3.5-1.8s-2.6-0.6-4-0.6s-2.7,0.2-4,0.6s-2.4,1-3.5,1.8s-2,1.7-2.8,2.8s-1.4,2.2-1.8,3.5s-0.6,2.6-0.6,4
			s0.2,2.7,0.6,4s1,2.4,1.8,3.5s1.7,2,2.8,2.8S9.7,4.6,11,5S13.6,5.6,15,5.6z M15,3.8c-1.2,0-2.4-0.2-3.4-0.6
			c-1.1-0.4-2.1-0.9-3-1.5S6.9,0.2,6.2-0.7S5-2.6,4.7-3.7C4.3-4.8,4.2-5.9,4.2-7.1s0.2-2.4,0.5-3.5c0.4-1.1,0.9-2.1,1.5-3
			s1.4-1.7,2.4-2.4s1.9-1.2,3-1.5c1.1-0.4,2.2-0.5,3.4-0.5s2.4,0.2,3.5,0.5c1.1,0.4,2.1,0.9,3,1.5c0.9,0.6,1.7,1.5,2.4,2.4
			s1.2,1.9,1.5,3C25.8-9.5,26-8.4,26-7.1c0,1.2-0.2,2.4-0.5,3.4c-0.4,1.1-0.9,2.1-1.5,3c-0.7,0.9-1.5,1.7-2.4,2.4s-1.9,1.2-3,1.5
			C17.4,3.6,16.2,3.8,15,3.8z M9.2-7.1c0,0.3,0.1,0.5,0.3,0.6s0.4,0.2,0.7,0.2h3.9v4c0,0.3,0.1,0.5,0.2,0.7c0.2,0.2,0.4,0.3,0.6,0.3
			c0.3,0,0.5-0.1,0.7-0.3s0.3-0.4,0.3-0.7v-4h4c0.3,0,0.5-0.1,0.7-0.2c0.2-0.2,0.3-0.4,0.3-0.6c0-0.3-0.1-0.5-0.3-0.7
			c-0.2-0.2-0.4-0.3-0.7-0.3h-4V-12c0-0.3-0.1-0.5-0.3-0.7S15.2-13,14.9-13s-0.5,0.1-0.6,0.3s-0.2,0.4-0.2,0.7v3.9h-3.9
			C9.9-8.1,9.7-8,9.5-7.8C9.3-7.6,9.2-7.3,9.2-7.1z"/>
	</g>
	<text transform="matrix(1 0 0 1 263.0469 1952.9788)" class="st2 st3">Design Variations</text>
	<text transform="matrix(1 0 0 1 263.0469 1970.9788)" class="st4 st3">Symbols are supported in up to nine weights and three scales.</text>
	<text transform="matrix(1 0 0 1 263.0469 1988.9788)" class="st4 st3">For optimal layout with text and other symbols, vertically align</text>
	<text transform="matrix(1 0 0 1 263.0469 2006.9788)" class="st4 st3">symbols with the adjacent text.</text>
	<line class="st5" x1="776" y1="1919" x2="776" y2="1933"/>
	<g transform="matrix(1 0 0 1 776 1933)">
		<path d="M3.4,0.1C3.7,0.1,3.9,0,4-0.1s0.3-0.3,0.4-0.6l1.3-3.4h5.8l1.3,3.4c0.1,0.3,0.2,0.5,0.4,0.6c0.1,0.1,0.3,0.2,0.6,0.2
			s0.5-0.1,0.6-0.2c0.2-0.1,0.2-0.3,0.2-0.6c0-0.1,0-0.3-0.1-0.5L9.9-13.4c-0.1-0.3-0.3-0.5-0.5-0.7c-0.2-0.1-0.5-0.2-0.8-0.2
			c-0.6,0-1,0.3-1.2,0.9L2.8-1.2C2.7-1,2.7-0.8,2.7-0.7c0,0.2,0.1,0.4,0.2,0.6C2.9,0.1,3.1,0.1,3.4,0.1z M6.1-5.5l2.4-6.6l0,0
			l2.4,6.6C10.9-5.5,6.1-5.5,6.1-5.5z"/>
	</g>
	<line class="st5" x1="793.2" y1="1919" x2="793.2" y2="1933"/>
	<text transform="matrix(1 0 0 1 776.0468 1952.9788)" class="st2 st3">Margins</text>
	<text transform="matrix(1 0 0 1 776.0468 1970.9788)" class="st4 st3">Leading and trailing margins on the left and right side of each symbol</text>
	<text transform="matrix(1 0 0 1 776.0468 1988.9788)" class="st4 st3">can be adjusted by modifying the x-location of the margin guidelines.</text>
	<text transform="matrix(1 0 0 1 776.0468 2006.9788)" class="st4 st3">Modifications are automatically applied proportionally to all</text>
	<text transform="matrix(1 0 0 1 776.0468 2024.9788)" class="st4 st3">scales and weights.</text>
	<g transform="matrix(1 0 0 1 1289 1933)">
		<path d="M2.9,1.8l1.7,1.7C5,3.9,5.5,4.1,6,4.1s0.9-0.3,1.4-0.8L18.1-8.5l-1-1L6.5,2.2C6.3,2.4,6.1,2.5,6,2.5
			c-0.2,0-0.4-0.1-0.6-0.3L4.2,1C4,0.8,3.9,0.6,3.9,0.4S4,0,4.2-0.1l11.5-10.8l-1-1L3.1-1C2.6-0.5,2.3-0.1,2.3,0.4
			C2.3,1,2.5,1.4,2.9,1.8z M9.3-16.3c-0.2,0.2-0.3,0.4-0.4,0.7c0,0.3,0,0.5,0.1,0.7s0.3,0.3,0.5,0.4s0.5,0.1,0.8,0
			c0.7-0.2,1.5-0.2,2.2-0.2s1.5,0.3,2.2,0.7l-0.6,1.5c-0.2,0.4-0.2,0.8-0.1,1.1c0.1,0.3,0.2,0.6,0.5,0.9l2.3,2.3
			C17-8,17.3-7.8,17.5-7.8s0.5,0,0.8,0L19.4-8l0.7,0.7v0.6c0,0.2,0,0.5,0.1,0.7s0.2,0.4,0.5,0.7l0.8,0.7c0.2,0.2,0.5,0.4,0.8,0.4
			s0.5-0.1,0.8-0.3L26-7.4c0.2-0.2,0.3-0.5,0.3-0.8c0-0.3-0.1-0.5-0.4-0.8l-0.8-0.8c-0.2-0.2-0.5-0.4-0.7-0.5s-0.4-0.1-0.7-0.1h-0.6
			L22.5-11l0.2-1.1c0.1-0.3,0.1-0.5,0-0.8s-0.3-0.5-0.6-0.8l-2.2-2.2c-0.8-0.8-1.7-1.4-2.7-1.9c-0.9-0.4-1.9-0.6-2.8-0.6
			c-1,0-1.9,0.2-2.8,0.5C10.8-17.6,10-17.1,9.3-16.3z M10.8-16c0.6-0.4,1.3-0.8,1.9-0.9c0.7-0.2,1.4-0.2,2.1-0.2
			c0.7,0.1,1.4,0.3,2.1,0.6c0.7,0.3,1.3,0.7,1.8,1.3l2.4,2.4c0.1,0.1,0.2,0.2,0.2,0.3s0,0.3,0,0.4L21-10.6l1.5,1.5l1-0.1
			c0.1,0,0.2,0,0.3,0S23.9-9.1,24-9l0.6,0.6L22.2-6l-0.6-0.6c-0.1-0.1-0.2-0.2-0.2-0.2c0-0.1,0-0.2,0-0.3l0.1-1L20-9.6l-1.5,0.3
			c-0.2,0-0.3,0-0.4,0s-0.2-0.1-0.3-0.2l-2-2c-0.1-0.1-0.2-0.2-0.2-0.3s0-0.3,0.1-0.4l0.9-2.1c-0.8-0.7-1.7-1.2-2.6-1.5
			c-1-0.3-2-0.3-3,0c-0.1,0-0.1,0-0.2,0C10.7-15.9,10.7-15.9,10.8-16z"/>
	</g>
	<text transform="matrix(1 0 0 1 1289.0468 1952.9788)" class="st2 st3">Exporting</text>
	<text transform="matrix(1 0 0 1 1289.0468 1970.9788)" class="st4 st3">Symbols should be outlined when exporting to ensure the</text>
	<text transform="matrix(1 0 0 1 1289.0468 1988.9788)" class="st4 st3">design is preserved when submitting to Xcode.</text>
	<text id="template-version" transform="matrix(1 0 0 1 2952.4609 1932.9788)" class="st4 st3">Template v.3.0</text>
	<text transform="matrix(1 0 0 1 2865.5044 1950.9788)" class="st4 st3">Requires Xcode 13 or greater</text>
	<text id="descriptive-name" transform="matrix(1 0 0 1 2877.0889 1968.9788)" class="st4 st3">Generated from sportscourt</text>
	<text transform="matrix(1 0 0 1 2912.458 1986.9788)" class="st4 st3">Typeset at 100 points</text>
	<text transform="matrix(1 0 0 1 263.0469 725.9788)" class="st4 st3">Small</text>
	<text transform="matrix(1 0 0 1 263.0469 1155.9788)" class="st4 st3">Medium</text>
	<text transform="matrix(1 0 0 1 263.0469 1585.9788)" class="st4 st3">Large</text>
</g>
<g id="Guides">
	<g id="H-reference" transform="matrix(1 0 0 1 339 696)">
		<path class="st6" d="M1,0h2.6l25.7-67.1H30v-3.3h-1.9L1,0z M11.7-24.5H47l-0.8-2.2H12.4L11.7-24.5z M55.1,0h2.6L30.6-70.5h-1.2
			v3.3L55.1,0z"/>
	</g>
	<line id="Baseline-S" class="st7" x1="263" y1="696" x2="3036" y2="696"/>
	<line id="Capline-S" class="st7" x1="263" y1="625.5" x2="3036" y2="625.5"/>
	<g id="H-reference_1_" transform="matrix(1 0 0 1 339 1126)">
		<path class="st6" d="M1,0h2.6l25.7-67.1H30v-3.3h-1.9L1,0z M11.7-24.5H47l-0.8-2.2H12.4L11.7-24.5z M55.1,0h2.6L30.6-70.5h-1.2
			v3.3L55.1,0z"/>
	</g>
	<line id="Baseline-M" class="st7" x1="263" y1="1126" x2="3036" y2="1126"/>
	<line id="Capline-M" class="st7" x1="263" y1="1055.5" x2="3036" y2="1055.5"/>
	<g id="H-reference_2_" transform="matrix(1 0 0 1 339 1556)">
		<path class="st6" d="M1,0h2.6l25.7-67.1H30v-3.3h-1.9L1,0z M11.7-24.5H47l-0.8-2.2H12.4L11.7-24.5z M55.1,0h2.6L30.6-70.5h-1.2
			v3.3L55.1,0z"/>
	</g>
	<line id="Baseline-L" class="st7" x1="263" y1="1556" x2="3036" y2="1556"/>
	<line id="Capline-L" class="st7" x1="263" y1="1485.5" x2="3036" y2="1485.5"/>
	<line id="left-margin-Regular-M" class="st5" x1="1371.4" y1="1030.8" x2="1371.4" y2="1150.1"/>
	<line id="right-margin-Regular-M" class="st5" x1="1528.3" y1="1030.8" x2="1528.3" y2="1150.1"/>
</g>
<g id="Symbols">
	<g id="Black-L" transform="matrix(1 0 0 1 2831.2 1556)">
		<path d="M40,26.5h124.4c7.6,0,13.5-2.1,17.7-6.2s6.2-10,6.2-17.6v-75.8c0-7.6-2.1-13.4-6.2-17.6c-4.2-4.1-10.1-6.2-17.7-6.2H40
			c-7.6,0-13.5,2.1-17.7,6.2s-6.2,10-6.2,17.6V2.7c0,7.6,2.1,13.5,6.2,17.6S32.4,26.5,40,26.5z M42.7,6.3c-2.1,0-3.7-0.5-4.7-1.5
			c-1.1-1-1.6-2.7-1.6-4.9v-70.1c0-2.3,0.5-3.9,1.6-4.9s2.7-1.5,4.7-1.5h119c2.1,0,3.7,0.5,4.8,1.5s1.6,2.7,1.6,4.9v70.1
			c0,2.3-0.5,3.9-1.6,4.9s-2.7,1.5-4.8,1.5C161.7,6.3,42.7,6.3,42.7,6.3z M16.1-8.5h31.5c4.3,0,7.7-1.2,10.2-3.7s3.7-5.9,3.7-10.2
			v-25.7c0-4.3-1.2-7.7-3.7-10.2S51.9-62,47.6-62H16.1v12.7H47c1.3,0,1.9,0.7,1.9,2v24.1c0,1.4-0.6,2.1-1.9,2.1H16.1V-8.5z
			 M95.8,10.1h12.7v-90.5H95.8V10.1z M102.1-6.3c4.4,0,8.4-0.7,11.9-2.1c3.6-1.4,6.6-3.3,9.2-5.9s4.5-5.6,5.9-9.1s2-7.5,2-11.8
			c-0.1-4.3-0.8-8.2-2.2-11.7c-1.4-3.5-3.4-6.6-6-9.1c-2.6-2.6-5.6-4.5-9.1-5.9s-7.4-2.1-11.7-2.1c-4.3-0.1-8.2,0.6-11.7,1.9
			c-3.5,1.4-6.6,3.3-9.1,5.9s-4.5,5.6-5.9,9.2c-1.4,3.6-2.1,7.5-2.1,11.9c0,4.3,0.7,8.3,2.1,11.8s3.3,6.6,5.9,9.1s5.6,4.5,9.1,5.9
			C93.9-7,97.8-6.3,102.1-6.3z M102.2-18.5c-3.4,0-6.3-0.7-8.8-2.1s-4.5-3.4-5.9-5.9s-2.1-5.5-2.1-8.8c0-3.4,0.7-6.3,2.1-8.8
			s3.4-4.4,5.9-5.8c2.5-1.4,5.4-2.1,8.8-2.1s6.3,0.7,8.9,2.1c2.5,1.4,4.5,3.3,5.9,5.8s2.1,5.4,2,8.8c0,3.4-0.7,6.3-2.1,8.8
			s-3.4,4.5-5.9,5.9S105.6-18.5,102.2-18.5z M188.3-8.5v-12.6h-30.9c-1.3,0-1.9-0.7-1.9-2.1v-24.1c0-1.3,0.6-2,1.9-2h30.9V-62h-31.5
			c-4.3,0-7.7,1.2-10.2,3.7s-3.7,5.9-3.7,10.2v25.7c0,4.3,1.2,7.7,3.7,10.2s5.9,3.7,10.2,3.7C156.8-8.5,188.3-8.5,188.3-8.5z"/>
	</g>
	<g id="Heavy-L" transform="matrix(1 0 0 1 2535.03 1556)">
		<path d="M38.8,25.5h125.7c7.3,0,13-2,16.9-5.9s5.9-9.5,5.9-16.8v-76.1c0-7.3-2-12.8-5.9-16.7s-9.6-5.9-16.9-5.9H38.8
			c-7.3,0-12.9,1.9-16.9,5.8C18-86.2,16-80.6,16-73.3V2.9c0,7.3,2,12.9,5.9,16.8C25.9,23.5,31.5,25.5,38.8,25.5z M40.9,8
			c-2.4,0-4.2-0.6-5.5-1.8c-1.2-1.2-1.9-3.1-1.9-5.6v-71.5c0-2.6,0.6-4.4,1.9-5.6c1.2-1.2,3.1-1.8,5.5-1.8h121.4
			c2.4,0,4.2,0.6,5.5,1.8c1.3,1.2,1.9,3.1,1.9,5.6V0.6c0,2.6-0.6,4.4-1.9,5.6c-1.3,1.2-3.1,1.8-5.5,1.8H40.9z M16.1-8.2h30
			c4.3,0,7.6-1.2,10-3.6s3.6-5.7,3.6-10v-26.9c0-4.2-1.2-7.6-3.6-10c-2.4-2.4-5.8-3.6-10-3.6h-30v11.5h29.5c1.8,0,2.7,0.9,2.7,2.8
			v25.6c0,1.9-0.9,2.8-2.7,2.8H16.1V-8.2z M95.8,11.3h11.5v-92.9H95.8V11.3z M101.5-6.2c4.4,0,8.3-0.7,11.9-2.1s6.6-3.4,9.2-5.9
			c2.6-2.6,4.6-5.6,5.9-9.2c1.4-3.6,2.1-7.5,2-11.8s-0.8-8.2-2.2-11.7c-1.4-3.5-3.4-6.6-6-9.1c-2.6-2.6-5.6-4.6-9.2-6
			c-3.5-1.4-7.4-2.1-11.7-2.2c-4.3-0.1-8.2,0.6-11.7,2s-6.6,3.3-9.1,5.9c-2.6,2.6-4.5,5.6-5.9,9.2c-1.4,3.6-2.1,7.5-2.1,11.9
			c0,4.3,0.7,8.3,2.1,11.8s3.4,6.6,5.9,9.2s5.6,4.6,9.1,5.9C93.3-6.9,97.2-6.2,101.5-6.2z M101.6-17.2c-3.6,0-6.7-0.8-9.4-2.3
			c-2.7-1.5-4.8-3.6-6.3-6.3s-2.3-5.9-2.3-9.4c0-3.6,0.8-6.7,2.3-9.4s3.6-4.8,6.3-6.3c2.7-1.5,5.8-2.3,9.4-2.3s6.7,0.8,9.5,2.3
			c2.7,1.5,4.8,3.6,6.3,6.3s2.2,5.8,2.2,9.4s-0.8,6.7-2.3,9.4s-3.6,4.8-6.3,6.3C108.3-18,105.1-17.2,101.6-17.2z M187.3-8.2v-11.5
			h-29.5c-1.8,0-2.7-0.9-2.7-2.8V-48c0-1.8,0.9-2.8,2.7-2.8h29.5v-11.5h-30c-4.3,0-7.6,1.2-10,3.6c-2.4,2.4-3.6,5.7-3.6,10v26.9
			c0,4.2,1.2,7.6,3.6,10c2.4,2.4,5.8,3.6,10,3.6C157.3-8.2,187.3-8.2,187.3-8.2z"/>
	</g>
	<g id="Bold-L" transform="matrix(1 0 0 1 2238.92 1556)">
		<path d="M37.5,24.4h127.1c7,0,12.3-1.8,16-5.5c3.7-3.6,5.5-8.9,5.5-15.8v-76.5c0-6.9-1.8-12.2-5.5-15.8c-3.7-3.6-9-5.5-16-5.5
			H37.5c-6.9,0-12.3,1.8-15.9,5.5c-3.7,3.6-5.5,8.9-5.5,15.8V3.1c0,6.9,1.8,12.2,5.5,15.9C25.3,22.5,30.6,24.4,37.5,24.4z M39,9.9
			c-2.8,0-4.8-0.7-6.3-2.1c-1.4-1.4-2.2-3.5-2.2-6.4v-73.2c0-2.9,0.7-5,2.2-6.4c1.4-1.4,3.5-2.1,6.3-2.1h124.2
			c2.7,0,4.8,0.7,6.3,2.1s2.2,3.5,2.2,6.4V1.4c0,2.9-0.7,5-2.2,6.4s-3.6,2.1-6.3,2.1H39z M16.1-7.8h28.3c4.2,0,7.5-1.2,9.8-3.5
			s3.5-5.6,3.5-9.8v-28.3c0-4.2-1.2-7.4-3.5-9.8c-2.3-2.3-5.6-3.5-9.8-3.5H16.1v10.2h28c2.4,0,3.6,1.2,3.6,3.6v27.2
			c0,2.4-1.2,3.7-3.6,3.7h-28C16.1-18,16.1-7.8,16.1-7.8z M95.8,12.6H106V-83H95.8V12.6z M100.8-6.1c4.3,0,8.3-0.7,11.9-2.1
			s6.7-3.4,9.3-6c2.6-2.6,4.6-5.7,6-9.2c1.4-3.6,2.1-7.5,2-11.8c0-4.3-0.8-8.2-2.2-11.7c-1.4-3.5-3.4-6.6-6-9.2
			c-2.6-2.6-5.7-4.6-9.2-6s-7.5-2.2-11.7-2.2c-4.3,0-8.2,0.6-11.7,2s-6.6,3.4-9.2,6s-4.6,5.7-6,9.3s-2.1,7.5-2.1,11.9
			c0,4.3,0.7,8.2,2.1,11.8s3.4,6.6,6,9.2s5.6,4.6,9.2,6C92.6-6.8,96.5-6.1,100.8-6.1z M100.9-15.8c-3.8,0-7.2-0.8-10.1-2.5
			c-2.9-1.7-5.2-3.9-6.8-6.9s-2.5-6.3-2.5-10.1s0.8-7.1,2.5-10s3.9-5.2,6.8-6.8s6.3-2.5,10.1-2.5c3.8,0,7.2,0.8,10.1,2.5
			c2.9,1.6,5.2,3.9,6.8,6.8c1.6,2.9,2.4,6.3,2.4,10c0,3.8-0.9,7.2-2.5,10.1c-1.7,2.9-3.9,5.2-6.8,6.9
			C108-16.6,104.7-15.8,100.9-15.8z M186.1-7.8V-18h-28c-2.4,0-3.6-1.2-3.6-3.7v-27.2c0-2.4,1.2-3.6,3.6-3.6h28v-10.2h-28.3
			c-4.2,0-7.5,1.2-9.9,3.5s-3.5,5.6-3.5,9.8v28.3c0,4.2,1.2,7.4,3.5,9.8c2.4,2.3,5.6,3.5,9.9,3.5C157.8-7.8,186.1-7.8,186.1-7.8z"/>
	</g>
	<g id="Semibold-L" transform="matrix(1 0 0 1 1942.62 1556)">
		<path d="M36.6,23.6h128c6.8,0,11.9-1.7,15.4-5.2s5.2-8.5,5.2-15.2v-76.7c0-6.7-1.7-11.7-5.2-15.2s-8.6-5.2-15.4-5.2h-128
			c-6.7,0-11.8,1.7-15.3,5.2S16-80.2,16-73.5V3.2c0,6.7,1.8,11.8,5.3,15.2S29.9,23.6,36.6,23.6z M37.6,11.3c-3,0-5.3-0.8-6.9-2.3
			s-2.4-3.9-2.4-7v-74.3c0-3.1,0.8-5.4,2.4-7c1.6-1.5,3.9-2.3,6.9-2.3h126.1c3,0,5.2,0.8,6.8,2.3s2.4,3.9,2.4,7V2
			c0,3.1-0.8,5.4-2.4,7c-1.6,1.5-3.9,2.3-6.8,2.3H37.6z M16.1-7.5h27.1c4.2,0,7.4-1.1,9.7-3.4s3.4-5.5,3.4-9.7v-29.2
			c0-4.1-1.1-7.4-3.4-9.7c-2.3-2.3-5.5-3.4-9.7-3.4H16.1v9.3H43c2.8,0,4.2,1.4,4.2,4.2V-21c0,2.8-1.4,4.2-4.2,4.2H16.1V-7.5z
			 M95.8,13.5h9.3v-97.4h-9.3V13.5z M100.4-6c4.3,0,8.3-0.7,11.9-2.1s6.7-3.4,9.3-6c2.6-2.6,4.6-5.7,6-9.2c1.4-3.6,2.1-7.5,2.1-11.8
			s-0.8-8.2-2.2-11.7c-1.4-3.5-3.5-6.6-6.1-9.2c-2.6-2.6-5.7-4.6-9.2-6s-7.5-2.2-11.7-2.2c-4.3,0-8.2,0.6-11.7,2
			c-3.6,1.4-6.6,3.4-9.2,6s-4.6,5.7-6,9.3s-2.1,7.5-2.1,11.9c0,4.3,0.7,8.2,2.1,11.8s3.4,6.6,6,9.2s5.7,4.6,9.2,6
			C92.2-6.7,96.1-6,100.4-6z M100.4-14.8c-4,0-7.5-0.9-10.5-2.6c-3.1-1.7-5.4-4.1-7.2-7.2c-1.7-3.1-2.6-6.6-2.6-10.6
			s0.9-7.5,2.6-10.5c1.7-3.1,4.1-5.4,7.2-7.2c3.1-1.7,6.6-2.6,10.5-2.6c4,0,7.5,0.9,10.6,2.6c3.1,1.7,5.5,4.1,7.2,7.2
			c1.7,3.1,2.6,6.6,2.6,10.5c0,4-0.9,7.5-2.6,10.6s-4.1,5.5-7.2,7.2S104.4-14.8,100.4-14.8z M185.2-7.5v-9.2h-26.9
			c-2.8,0-4.2-1.4-4.2-4.2v-28.4c0-2.8,1.4-4.2,4.2-4.2h26.9v-9.3h-27.1c-4.2,0-7.4,1.1-9.7,3.4c-2.3,2.3-3.5,5.5-3.5,9.7v29.2
			c0,4.1,1.2,7.4,3.5,9.7s5.5,3.4,9.7,3.4L185.2-7.5L185.2-7.5z"/>
	</g>
	<g id="Medium-L" transform="matrix(1 0 0 1 1646.22 1556)">
		<path d="M21.9-88.2c-3.4,3.3-5,8.2-5,14.7V3.4c0,6.5,1.7,11.4,5,14.7c3.4,3.3,8.3,5,14.8,5h128.7c6.6,0,11.5-1.7,14.9-5
			c3.3-3.3,5-8.2,5-14.7v-76.9c0-6.5-1.7-11.4-5-14.7s-8.3-5-14.9-5H36.7C30.2-93.2,25.2-91.5,21.9-88.2z M68.7,12.4v-43.2h27.9
			v43.2H68.7z M105.2,12.4v-43.2h28.5v43.2H105.2z M164.9-82.6c3.1,0,5.5,0.8,7.2,2.5c1.7,1.6,2.6,4.1,2.6,7.4V2.5
			c0,3.3-0.9,5.7-2.6,7.4c-1.7,1.6-4.1,2.5-7.2,2.5h-22.6v-95H164.9z M133.7-82.6v43.2h-28.5v-43.2H133.7z M96.6-82.6v43.2H68.7
			v-43.2H96.6z M60.1-82.6v95H37.4c-3.2,0-5.6-0.8-7.3-2.5c-1.7-1.6-2.5-4.1-2.5-7.4v-75.2c0-3.3,0.8-5.7,2.5-7.4
			c1.7-1.6,4.1-2.5,7.3-2.5H60.1z"/>
	</g>
	<g id="Regular-L" transform="matrix(1 0 0 1 1349.92 1556)">
		<path d="M21-87.9c-3.2,3.1-4.8,7.8-4.8,14.1v77c0,6.3,1.6,10.9,4.8,14.1c3.1,3.2,7.9,4.8,14.2,4.8h129.6c6.3,0,11.1-1.6,14.3-4.7
			c3.2-3.2,4.8-7.8,4.8-14.1v-77.1c0-6.2-1.6-10.9-4.8-14.1c-3.2-3.2-7.9-4.7-14.3-4.7H35.2C28.9-92.6,24.2-91,21-87.9z M133.4-84
			v44.8h-29.8V-84H133.4z M95.9-39.2H66.4V-84h29.5C95.9-84,95.9-39.2,95.9-39.2z M35.4,13.5c-3.4,0-6-0.9-7.8-2.7s-2.7-4.4-2.7-7.9
			v-76.3c0-3.5,0.9-6.1,2.7-7.9c1.8-1.8,4.4-2.7,7.8-2.7h23.3v97.5H35.4z M103.6,13.5v-45h29.8v45C133.4,13.5,103.6,13.5,103.6,13.5
			z M95.9,13.5H66.4v-45h29.5C95.9-31.5,95.9,13.5,95.9,13.5z M164.7-84c3.4,0,5.9,0.9,7.8,2.7c1.8,1.8,2.8,4.4,2.8,7.9V2.9
			c0,3.5-0.9,6.1-2.8,7.9c-1.8,1.8-4.4,2.7-7.8,2.7h-23.6V-84H164.7z"/>
	</g>
	<g id="Light-L" transform="matrix(1 0 0 1 1054.95 1556)">
		<path d="M34,21.4h128.3c6,0,10.5-1.5,13.5-4.5s4.5-7.5,4.5-13.3v-77.4c0-5.9-1.5-10.3-4.5-13.3s-7.5-4.5-13.5-4.5H34
			c-5.9,0-10.4,1.5-13.4,4.5s-4.5,7.4-4.5,13.4V3.6c0,5.9,1.5,10.3,4.5,13.3S28.1,21.4,34,21.4z M34.2,14.8c-3.8,0-6.6-1-8.6-2.9
			c-2-2-2.9-4.8-2.9-8.6v-76.7c0-3.8,1-6.7,2.9-8.6c2-2,4.8-2.9,8.6-2.9h128c3.7,0,6.5,1,8.5,2.9c2,2,3,4.8,3,8.6V3.2
			c0,3.8-1,6.7-3,8.6c-2,2-4.8,2.9-8.5,2.9L34.2,14.8L34.2,14.8z M16.1-6.8h24.2c4,0,7-1.1,9.1-3.2s3.2-5.1,3.2-9.1v-32.2
			c0-3.9-1.1-7-3.2-9.1c-2.1-2.1-5.1-3.2-9.1-3.2H16.1v6h24.1c4.3,0,6.4,2.1,6.4,6.4v31.8c0,4.3-2.1,6.4-6.4,6.4H16.1V-6.8z
			 M94.7,16.3h6V-86.6h-6V16.3z M97.7-6.3c4.1,0,7.9-0.7,11.5-2.2c3.5-1.4,6.6-3.5,9.2-6c2.6-2.6,4.6-5.6,6-9.1s2.1-7.3,2.1-11.5
			c0-4.1-0.7-7.9-2.2-11.4s-3.5-6.5-6.1-9.1s-5.6-4.6-9.1-6.1c-3.5-1.4-7.3-2.2-11.4-2.2s-7.9,0.7-11.4,2.1c-3.5,1.4-6.5,3.4-9.1,6
			s-4.6,5.7-6,9.2S69-39.2,69-35.1s0.7,8,2.2,11.5s3.5,6.6,6,9.1c2.6,2.6,5.6,4.6,9.1,6C89.8-7,93.6-6.3,97.7-6.3z M97.7-12.1
			c-4.4,0-8.3-1-11.7-3c-3.5-2-6.2-4.8-8.2-8.2c-2-3.5-3-7.4-3-11.8s1-8.3,3-11.7c2-3.5,4.8-6.2,8.2-8.2c3.5-2,7.4-3,11.7-3
			c4.4,0,8.3,1,11.7,3c3.5,2,6.2,4.8,8.2,8.2s3,7.4,3,11.7c0,4.4-1,8.3-3.1,11.8c-2,3.5-4.7,6.2-8.2,8.2
			C105.9-13.1,102-12.1,97.7-12.1z M180.3-6.8v-6h-24.1c-4.3,0-6.4-2.1-6.4-6.4V-51c0-4.3,2.1-6.4,6.4-6.4h24.1v-6h-24.2
			c-4,0-7,1.1-9.1,3.2c-2.1,2.1-3.2,5.1-3.2,9.1v32.2c0,3.9,1.1,7,3.2,9.1c2.1,2.1,5.2,3.2,9.1,3.2h24.2V-6.8z"/>
	</g>
	<g id="Thin-L" transform="matrix(1 0 0 1 760.538 1556)">
		<path d="M32.7,20.4h126.4c5.5,0,9.6-1.4,12.4-4.3c2.8-2.9,4.2-7,4.2-12.3V-74c0-5.4-1.4-9.5-4.2-12.3s-6.9-4.3-12.4-4.3H32.7
			c-5.4,0-9.6,1.4-12.4,4.2c-2.8,2.8-4.2,6.9-4.2,12.4V3.8c0,5.4,1.4,9.6,4.2,12.4C23.1,18.9,27.2,20.4,32.7,20.4z M32.8,16.4
			c-4.2,0-7.4-1.1-9.6-3.3C21.1,11,20,7.8,20,3.6v-77.4c0-4.2,1.1-7.4,3.3-9.6s5.4-3.2,9.6-3.2H159c4.1,0,7.2,1.1,9.5,3.2
			c2.2,2.2,3.4,5.4,3.4,9.6V3.6c0,4.2-1.1,7.4-3.4,9.6c-2.2,2.2-5.4,3.3-9.5,3.3H32.8V16.4z M16.1-6.5h23.1c3.8,0,6.7-1,8.6-3
			c2-2,3-4.9,3-8.7v-33.9c0-3.8-1-6.7-3-8.6c-2-2-4.8-3-8.6-3H16.1v3.8h23c5.3,0,7.9,2.6,7.9,7.9v33.6c0,5.3-2.6,8-7.9,8h-23
			C16.1-10.4,16.1-6.5,16.1-6.5z M93.3,17.8h3.8V-88.1h-3.8V17.8z M95.1-7c3.9,0,7.5-0.7,10.9-2.2c3.4-1.4,6.4-3.4,8.9-6
			c2.6-2.5,4.6-5.5,6-8.9s2.1-7.1,2.2-11c0-3.9-0.7-7.6-2.2-11c-1.4-3.4-3.4-6.4-6-8.9c-2.6-2.6-5.5-4.5-8.9-6s-7.1-2.2-11-2.2
			s-7.5,0.7-10.9,2.1c-3.4,1.4-6.4,3.4-8.9,6c-2.6,2.6-4.6,5.5-6,9c-1.4,3.4-2.2,7.1-2.2,11s0.7,7.6,2.2,11c1.4,3.4,3.4,6.4,6,8.9
			c2.6,2.6,5.5,4.5,8.9,6C87.6-7.7,91.2-7,95.1-7z M95.1-10.8c-4.5,0-8.6-1.1-12.2-3.3c-3.7-2.2-6.6-5.1-8.7-8.8
			C72-26.6,71-30.7,71-35.2s1.1-8.6,3.2-12.3c2.2-3.7,5.1-6.6,8.7-8.8c3.7-2.2,7.7-3.3,12.2-3.3s8.6,1.1,12.2,3.3
			c3.7,2.2,6.6,5.1,8.7,8.8c2.2,3.7,3.2,7.8,3.2,12.3s-1.1,8.6-3.3,12.3c-2.2,3.7-5.1,6.6-8.7,8.8C103.7-11.9,99.6-10.8,95.1-10.8z
			 M175.7-6.5v-3.8h-23c-5.3,0-8-2.7-8-8v-33.6c0-5.3,2.7-7.9,8-7.9h23v-3.8h-23.1c-3.8,0-6.7,1-8.7,3s-3,4.8-3,8.6v33.9
			c0,3.8,1,6.7,3,8.7s4.9,3,8.7,3h23.1V-6.5z"/>
	</g>
	<g id="Ultralight-L" transform="matrix(1 0 0 1 465.006 1556)">
		<path d="M32,19.8h125.5c5.2,0,9.1-1.4,11.9-4.1c2.7-2.8,4.1-6.7,4.1-11.8V-74c0-5.1-1.4-9.1-4.1-11.8c-2.7-2.7-6.7-4.1-11.9-4.1
			H32c-5.2,0-9.1,1.4-11.8,4.1s-4.1,6.7-4.1,11.9V3.9c0,5.2,1.4,9.1,4.1,11.9C22.8,18.5,26.8,19.8,32,19.8z M32.1,17.3
			c-4.4,0-7.8-1.1-10.1-3.4s-3.4-5.6-3.4-10.1v-77.7c0-4.5,1.1-7.8,3.4-10.1s5.6-3.4,10.1-3.4h125.2c4.3,0,7.6,1.1,10,3.4
			s3.5,5.6,3.5,10.1V3.8c0,4.4-1.2,7.8-3.5,10.1c-2.4,2.3-5.7,3.4-10,3.4C157.3,17.3,32.1,17.3,32.1,17.3z M16.1-6.4h22.6
			c3.7,0,6.5-1,8.4-2.9c1.9-1.9,2.8-4.7,2.8-8.4v-34.9c0-3.7-0.9-6.5-2.8-8.4c-1.9-1.9-4.7-2.8-8.4-2.8H16.1v2.7h22.4
			c5.8,0,8.7,2.9,8.7,8.7v34.6c0,5.8-2.9,8.8-8.7,8.8H16.1V-6.4z M92.5,18.6h2.7V-88.8h-2.7V18.6z M93.8-7.4c3.8,0,7.3-0.7,10.7-2.2
			c3.3-1.4,6.3-3.4,8.8-6c2.5-2.5,4.5-5.5,6-8.8c1.4-3.4,2.2-7,2.2-10.8s-0.7-7.4-2.2-10.8c-1.4-3.4-3.4-6.3-5.9-8.8
			s-5.5-4.5-8.8-5.9s-6.9-2.2-10.8-2.2c-3.8,0-7.3,0.7-10.7,2.1c-3.3,1.4-6.3,3.4-8.8,6c-2.5,2.5-4.5,5.5-6,8.8
			c-1.4,3.4-2.2,6.9-2.2,10.8c0,3.8,0.7,7.4,2.2,10.8c1.4,3.4,3.4,6.3,6,8.8c2.5,2.5,5.5,4.5,8.8,6C86.5-8.1,90.1-7.4,93.8-7.4z
			 M93.8-10.1c-4.6,0-8.7-1.1-12.5-3.4s-6.8-5.3-9-9.1s-3.4-8-3.4-12.6S70-44,72.3-47.8c2.2-3.8,5.2-6.8,9-9.1s7.9-3.4,12.5-3.4
			s8.7,1.1,12.5,3.4c3.8,2.3,6.8,5.3,9,9.1s3.4,8,3.4,12.6s-1.1,8.8-3.4,12.6s-5.2,6.8-9,9.1C102.6-11.2,98.4-10.1,93.8-10.1z
			 M173.3-6.4v-2.7H151c-5.8,0-8.8-2.9-8.8-8.8v-34.6c0-5.8,2.9-8.7,8.8-8.7h22.4v-2.7h-22.6c-3.7,0-6.5,0.9-8.4,2.8
			c-1.9,1.9-2.8,4.7-2.8,8.4v34.9c0,3.7,0.9,6.5,2.8,8.4c1.9,1.9,4.7,2.9,8.4,2.9h22.5L173.3-6.4L173.3-6.4z"/>
	</g>
	<g id="Black-M" transform="matrix(1 0 0 1 2854.32 1126)">
		<path d="M31.6,13.2h94.9c6.1,0,10.8-1.7,14.1-5.1C144,4.7,145.7,0,145.7-6v-58.5c0-6.1-1.7-10.8-5.1-14.1c-3.4-3.4-8.1-5-14.1-5
			H31.6c-6,0-10.7,1.7-14.1,5s-5.1,8.1-5.1,14.1V-6c0,6,1.7,10.7,5.1,14.1S25.6,13.2,31.6,13.2z M34.2-4.1c-1.5,0-2.6-0.3-3.3-1
			S29.8-7,29.8-8.6v-53.2c0-1.6,0.4-2.8,1.1-3.4c0.7-0.7,1.8-1,3.3-1h89.6c1.5,0,2.6,0.3,3.4,1c0.7,0.7,1.1,1.8,1.1,3.4v53.2
			c0,1.6-0.4,2.8-1.1,3.5s-1.9,1-3.4,1C123.8-4.1,34.2-4.1,34.2-4.1z M12.5-14.7H38c3.3,0,5.9-1,7.9-2.9c1.9-2,2.9-4.6,2.9-7.9
			v-19.4c0-3.3-1-6-2.9-7.9s-4.6-2.9-7.9-2.9H12.5v10.4h24.9c0.8,0,1.2,0.4,1.2,1.3v17.8c0,0.9-0.4,1.3-1.2,1.3H12.5V-14.7z
			 M73.9-0.8h10.3v-68.8H73.9V-0.8z M79-13.1c4.5,0,8.4-0.9,11.7-2.8c3.3-1.8,5.9-4.4,7.8-7.7s2.8-7.2,2.7-11.6
			c0-4.4-1-8.2-2.9-11.5s-4.5-5.9-7.8-7.8c-3.3-1.9-7.2-2.8-11.5-2.9c-4.4,0-8.2,0.9-11.5,2.7s-5.9,4.4-7.7,7.7
			c-1.9,3.3-2.8,7.2-2.8,11.7c0,4.4,0.9,8.3,2.8,11.6c1.9,3.3,4.4,5.9,7.7,7.8C70.8-14,74.6-13.1,79-13.1z M79.1-22.9
			c-2.4,0-4.6-0.5-6.4-1.5s-3.3-2.5-4.3-4.3c-1-1.8-1.5-4-1.5-6.5c0-2.4,0.5-4.6,1.5-6.4c1-1.8,2.4-3.3,4.3-4.2c1.8-1,4-1.5,6.4-1.5
			c2.5,0,4.6,0.5,6.5,1.5s3.3,2.4,4.3,4.2s1.5,4,1.5,6.4s-0.5,4.6-1.5,6.4c-1,1.9-2.4,3.3-4.3,4.3C83.7-23.5,81.5-22.9,79.1-22.9z
			 M145.7-14.7V-25h-24.9c-0.8,0-1.2-0.4-1.2-1.3v-17.8c0-0.8,0.4-1.3,1.2-1.3h24.9v-10.4h-25.5c-3.3,0-6,1-7.9,2.9
			c-2,2-2.9,4.6-2.9,7.9v19.4c0,3.3,1,6,2.9,7.9c2,2,4.6,2.9,7.9,2.9L145.7-14.7L145.7-14.7z"/>
	</g>
	<g id="Heavy-M" transform="matrix(1 0 0 1 2557.77 1126)">
		<path d="M30.7,12.4h96.4c5.8,0,10.3-1.6,13.5-4.8s4.8-7.7,4.8-13.4v-58.8c0-5.8-1.6-10.3-4.8-13.5s-7.7-4.7-13.5-4.7H30.7
			c-5.8,0-10.3,1.6-13.5,4.7s-4.8,7.6-4.8,13.5v58.8C12.5,0,14,4.5,17.2,7.7C20.4,10.8,24.9,12.4,30.7,12.4z M32.7-2.7
			c-1.7,0-3-0.4-3.9-1.2s-1.3-2.2-1.3-4v-54.5c0-1.8,0.4-3.2,1.3-4s2.2-1.2,3.9-1.2H125c1.7,0,3,0.4,3.9,1.2c0.9,0.8,1.3,2.1,1.3,4
			v54.5c0,1.8-0.4,3.2-1.3,4c-0.9,0.8-2.2,1.2-3.9,1.2C125-2.7,32.7-2.7,32.7-2.7z M12.5-14.4h24.2c3.3,0,5.9-1,7.8-2.9
			c1.9-1.9,2.9-4.5,2.9-7.8v-20.3c0-3.3-1-5.9-2.9-7.8c-1.9-1.9-4.5-2.9-7.8-2.9H12.5v9.5h23.7c1.1,0,1.7,0.6,1.7,1.8v19
			c0,1.2-0.6,1.8-1.7,1.8H12.5V-14.4z M74.1,0.2h9.5v-70.7h-9.5V0.2z M78.8-12.9c4.5,0,8.4-0.9,11.8-2.8s6-4.5,7.9-7.8
			c1.9-3.4,2.8-7.3,2.7-11.7c0-4.4-1-8.3-2.9-11.6c-1.9-3.3-4.5-6-7.9-7.8c-3.4-1.9-7.2-2.9-11.6-2.9s-8.3,0.9-11.6,2.7
			c-3.3,1.9-6,4.5-7.8,7.8c-1.9,3.4-2.8,7.3-2.8,11.8c0,4.4,0.9,8.3,2.8,11.7c1.9,3.4,4.5,6,7.8,7.8C70.5-13.8,74.4-12.9,78.8-12.9z
			 M78.9-21.9c-2.6,0-4.9-0.6-6.9-1.7s-3.5-2.7-4.6-4.7s-1.7-4.3-1.7-7c0-2.6,0.6-4.9,1.7-6.9s2.6-3.5,4.6-4.6s4.3-1.6,6.9-1.6
			c2.7,0,5,0.5,7,1.6s3.6,2.6,4.7,4.6s1.6,4.3,1.6,6.9c0,2.6-0.6,5-1.7,7s-2.7,3.6-4.6,4.7C83.8-22.5,81.5-21.9,78.9-21.9z
			 M145.4-14.4v-9.5h-23.7c-1.1,0-1.7-0.6-1.7-1.8v-19c0-1.2,0.6-1.8,1.7-1.8h23.7V-56h-24.2c-3.3,0-5.9,1-7.8,2.9s-2.9,4.5-2.9,7.8
			V-25c0,3.3,1,5.9,2.9,7.8s4.5,2.9,7.8,2.9L145.4-14.4L145.4-14.4z"/>
	</g>
	<g id="Bold-M" transform="matrix(1 0 0 1 2261.23 1126)">
		<path d="M29.7,11.5h98.1c5.6,0,9.9-1.5,12.8-4.4c3-2.9,4.4-7.2,4.4-12.7v-59.1c0-5.6-1.5-9.8-4.4-12.7c-3-2.9-7.2-4.4-12.8-4.4
			H29.7c-5.6,0-9.8,1.5-12.8,4.4s-4.4,7.2-4.4,12.7v59.1c0,5.5,1.5,9.8,4.4,12.7C19.9,10,24.1,11.5,29.7,11.5z M31.1-1.1
			c-2,0-3.5-0.5-4.5-1.5S25-5.1,25-7.2v-56c0-2.1,0.5-3.6,1.5-4.6s2.5-1.5,4.5-1.5h95.4c2,0,3.4,0.5,4.5,1.5c1,1,1.6,2.5,1.6,4.6v56
			c0,2.1-0.5,3.6-1.6,4.6s-2.5,1.5-4.5,1.5C126.4-1.1,31.1-1.1,31.1-1.1z M12.5-14.1h22.7c3.3,0,5.9-0.9,7.7-2.8
			c1.9-1.9,2.8-4.4,2.8-7.7v-21.3c0-3.3-0.9-5.8-2.8-7.7c-1.9-1.9-4.4-2.8-7.7-2.8H12.5v8.6h22.4c1.5,0,2.3,0.8,2.3,2.4v20.3
			c0,1.6-0.8,2.4-2.3,2.4H12.5V-14.1z M74.4,1.2H83v-72.8h-8.6V1.2z M78.6-12.6c4.5,0,8.5-0.9,11.9-2.8s6.1-4.5,8-7.9
			s2.8-7.3,2.8-11.8c0-4.4-1-8.3-2.9-11.7s-4.6-6-8-7.9s-7.3-2.9-11.7-2.9c-4.4,0-8.4,0.9-11.7,2.8c-3.4,1.9-6,4.5-7.9,7.9
			s-2.8,7.4-2.8,11.9s0.9,8.4,2.8,11.8c1.9,3.4,4.5,6,7.9,7.9C70.3-13.6,74.2-12.6,78.6-12.6z M78.7-20.8c-2.8,0-5.3-0.6-7.5-1.8
			c-2.2-1.2-3.8-2.9-5.1-5.1c-1.2-2.2-1.8-4.7-1.8-7.5s0.6-5.3,1.8-7.5c1.2-2.2,2.9-3.8,5.1-5s4.7-1.8,7.5-1.8
			c2.9,0,5.4,0.6,7.6,1.8s3.9,2.9,5.1,5c1.2,2.2,1.8,4.7,1.8,7.5s-0.6,5.4-1.8,7.5c-1.2,2.2-2.9,3.9-5.1,5.1
			C84-21.4,81.5-20.8,78.7-20.8z M145-14.1v-8.6h-22.4c-1.5,0-2.3-0.8-2.3-2.4v-20.3c0-1.6,0.8-2.4,2.3-2.4H145v-8.6h-22.7
			c-3.3,0-5.9,0.9-7.7,2.8c-1.9,1.9-2.8,4.4-2.8,7.7v21.3c0,3.3,0.9,5.8,2.8,7.7s4.4,2.8,7.7,2.8C122.3-14.1,145-14.1,145-14.1z"/>
	</g>
	<g id="Semibold-M" transform="matrix(1 0 0 1 1964.64 1126)">
		<path d="M29,10.9h99.3c5.4,0,9.5-1.4,12.3-4.2s4.2-6.9,4.2-12.2v-59.3c0-5.4-1.4-9.4-4.2-12.2c-2.8-2.8-6.9-4.2-12.3-4.2H29
			c-5.4,0-9.5,1.4-12.3,4.2c-2.8,2.8-4.2,6.9-4.2,12.2v59.3c0,5.4,1.4,9.4,4.2,12.2C19.5,9.5,23.6,10.9,29,10.9z M29.9,0
			c-2.1,0-3.8-0.5-4.9-1.6s-1.7-2.8-1.7-5v-57.1c0-2.2,0.6-3.9,1.7-5s2.8-1.6,4.9-1.6h97.4c2.1,0,3.7,0.5,4.9,1.6
			c1.1,1.1,1.7,2.8,1.7,5v57.1c0,2.2-0.6,3.9-1.7,5c-1.1,1.1-2.8,1.6-4.9,1.6C127.3,0,29.9,0,29.9,0z M12.5-13.9h21.7
			c3.3,0,5.8-0.9,7.7-2.8c1.8-1.8,2.8-4.4,2.8-7.6v-21.9c0-3.3-0.9-5.8-2.8-7.6c-1.8-1.8-4.4-2.7-7.7-2.7H12.5v8H34
			c1.8,0,2.7,0.9,2.7,2.8v21.2c0,1.9-0.9,2.8-2.7,2.8H12.5V-13.9z M74.6,1.9h8v-74.2h-8V1.9z M78.5-12.5c4.5,0,8.5-1,12-2.9
			c3.4-1.9,6.1-4.6,8-8s2.9-7.4,2.8-11.9c0-4.5-1-8.4-3-11.8c-1.9-3.4-4.6-6.1-8-8S82.9-58,78.5-58c-4.5-0.1-8.4,0.9-11.8,2.8
			c-3.4,1.9-6.1,4.6-8,8s-2.9,7.4-2.9,12c0,4.5,1,8.5,2.9,11.9s4.6,6.1,8,8S74-12.5,78.5-12.5z M78.5-20.1c-3,0-5.6-0.6-7.9-1.9
			s-4.1-3.1-5.3-5.3c-1.3-2.3-1.9-4.9-1.9-7.9s0.6-5.6,1.9-7.9c1.3-2.3,3.1-4,5.3-5.3c2.3-1.3,4.9-1.9,7.9-1.9s5.7,0.6,7.9,1.9
			c2.3,1.3,4.1,3,5.3,5.3c1.3,2.3,1.9,4.9,1.9,7.9s-0.7,5.6-2,7.9s-3.1,4.1-5.3,5.4C84.1-20.7,81.5-20.1,78.5-20.1z M144.8-13.9v-8
			h-21.5c-1.8,0-2.7-0.9-2.7-2.8v-21.2c0-1.8,0.9-2.8,2.7-2.8h21.5v-8h-21.7c-3.3,0-5.8,0.9-7.7,2.7c-1.8,1.8-2.7,4.4-2.7,7.6v21.9
			c0,3.2,0.9,5.8,2.7,7.6c1.8,1.8,4.4,2.8,7.7,2.8h21.7V-13.9z"/>
	</g>
	<g id="Medium-M">
		<path d="M1685.4,1061.8v64.3c0,7.4,6,13.3,13.3,13.3H1804c7.4,0,13.3-6,13.3-13.3v-64.3c0-7.3-6-13.3-13.4-13.3h-105.2
			C1691.3,1048.5,1685.4,1054.5,1685.4,1061.8z M1700.7,1130c-3.3-0.1-6-2.8-6-6.1V1064c0-3.3,2.7-6,6-6h18.1v72H1700.7z
			 M1747.3,1129.9h-21v-32.3h21V1129.9z M1754.9,1097.6h21.4v32.3h-21.4V1097.6z M1801.7,1057.9c3.3,0,6,2.7,6,6v60c0,3.3-2.7,6-6,6
			h-17.9v-72H1801.7z M1776.3,1057.9v32.2h-21.4v-32.2H1776.3z M1747.4,1057.9v32.2h-21v-32.2H1747.4z"/>
	</g>
	<g id="Regular-M">
		<path d="M1384,1058.8v64.1c0,7.1,5.8,12.9,12.9,12.9h106.2c7.2,0,12.9-5.8,12.9-12.9v-64.1c0-7.1-5.9-12.9-12.9-12.9h-106.2
			C1389.8,1045.9,1384,1051.8,1384,1058.8z M1424.4,1127.9v-34h22v34H1424.4z M1453.4,1127.9v-34h22.6v34H1453.4z M1501.3,1053.8
			c3.8,0,6.8,3.1,6.8,6.8v60.5c0.1,3.8-3,6.8-6.8,6.8h-18.4v-74.1L1501.3,1053.8L1501.3,1053.8z M1453.4,1053.8h22.6v33.2h-22.6
			V1053.8z M1446.4,1087h-22v-33.2h22V1087z M1417.6,1053.8v74.1h-18.9c-3.8,0.1-6.8-3-6.8-6.8v-60.5c0-3.8,3.1-6.8,6.8-6.8
			L1417.6,1053.8L1417.6,1053.8z"/>
	</g>
	<g id="Light-M" transform="matrix(1 0 0 1 1076.27 1126)">
		<path d="M26.8,9h100.1c4.8,0,8.4-1.2,10.8-3.6c2.4-2.4,3.6-6,3.6-10.7v-59.9c0-4.7-1.2-8.3-3.6-10.7c-2.4-2.4-6-3.6-10.8-3.6H26.8
			c-4.8,0-8.4,1.2-10.8,3.6s-3.6,6-3.6,10.7v59.9c0,4.7,1.2,8.3,3.6,10.7C18.5,7.8,22.1,9,26.8,9z M27,3c-2.8,0-4.9-0.7-6.3-2.1
			s-2.2-3.6-2.2-6.4v-59.3c0-2.8,0.7-4.9,2.2-6.4c1.4-1.4,3.5-2.1,6.3-2.1h99.8c2.7,0,4.8,0.7,6.2,2.1c1.5,1.4,2.2,3.6,2.2,6.4v59.3
			c0,2.8-0.7,4.9-2.2,6.4c-1.5,1.4-3.6,2.1-6.2,2.1C126.8,3,27,3,27,3z M12.5-13.3h19.2c3.1,0,5.5-0.8,7.2-2.5s2.5-4.1,2.5-7.2
			v-24.3c0-3.1-0.8-5.5-2.5-7.2S34.8-57,31.7-57H12.5v5.4h19.1c3,0,4.5,1.5,4.5,4.5v24c0,3-1.5,4.5-4.5,4.5H12.5V-13.3z M73.9,4.2
			h5.4v-78.7h-5.4V4.2z M76.5-12.6c4.4,0,8.3-1,11.7-2.9c3.4-1.9,6.1-4.6,8-8s2.9-7.3,2.9-11.7c0-4.3-1-8.2-3-11.6s-4.6-6.1-8-8
			s-7.3-2.9-11.6-3c-4.3,0-8.2,0.9-11.6,2.8c-3.4,1.9-6.1,4.6-8,8C55-43.5,54-39.6,54-35.2s1,8.2,2.9,11.7c1.9,3.4,4.6,6.1,8,8
			S72.2-12.6,76.5-12.6z M76.6-17.8c-3.3,0-6.3-0.8-8.9-2.3s-4.7-3.6-6.2-6.2s-2.3-5.6-2.3-9c0-3.3,0.8-6.3,2.3-8.9s3.6-4.7,6.2-6.2
			s5.6-2.2,8.9-2.2s6.3,0.7,8.9,2.2s4.7,3.5,6.2,6.2c1.5,2.6,2.3,5.6,2.3,8.9c0,3.3-0.8,6.3-2.3,9s-3.6,4.7-6.2,6.2
			C82.8-18.5,79.9-17.8,76.6-17.8z M141.3-13.3v-5.4h-19.1c-3,0-4.4-1.5-4.4-4.5v-24c0-3,1.5-4.5,4.4-4.5h19.1v-5.4h-19.2
			c-3.1,0-5.5,0.8-7.2,2.5s-2.5,4.1-2.5,7.2V-23c0,3.1,0.8,5.5,2.5,7.2s4.1,2.5,7.2,2.5H141.3z"/>
	</g>
	<g id="Thin-M" transform="matrix(1 0 0 1 781.608 1126)">
		<path d="M25.6,8.1H124c4.3,0,7.6-1.1,9.8-3.4c2.2-2.2,3.3-5.5,3.3-9.8v-60.2c0-4.3-1.1-7.5-3.3-9.8c-2.2-2.2-5.5-3.4-9.8-3.4H25.6
			c-4.3,0-7.6,1.1-9.8,3.3c-2.2,2.2-3.3,5.5-3.3,9.8v60.2c0,4.3,1.1,7.6,3.3,9.8C18,7,21.3,8.1,25.6,8.1z M25.7,4.4
			c-3.2,0-5.6-0.8-7.2-2.4s-2.4-4-2.4-7.2V-65c0-3.2,0.8-5.6,2.4-7.2s4-2.4,7.2-2.4h98.2c3.1,0,5.4,0.8,7.1,2.4
			c1.7,1.6,2.5,4,2.5,7.2v59.8c0,3.2-0.8,5.6-2.5,7.2s-4.1,2.4-7.1,2.4C123.9,4.4,25.7,4.4,25.7,4.4z M12.5-13.1h18.2
			c3,0,5.2-0.8,6.8-2.4s2.4-3.8,2.4-6.8v-25.9c0-3-0.8-5.2-2.4-6.8c-1.6-1.6-3.8-2.3-6.8-2.3H12.5v3.4h18c3.9,0,5.8,1.9,5.8,5.8
			v25.7c0,3.9-1.9,5.8-5.8,5.8h-18V-13.1z M72.6,5.6H76v-81.4h-3.4V5.6z M74.3-13.2c4.1,0,7.8-1,11.1-2.9c3.3-1.9,5.9-4.6,7.9-7.9
			c1.9-3.3,2.9-7,2.9-11.1s-1-7.8-2.9-11.1s-4.5-5.9-7.8-7.9c-3.3-1.9-7-2.9-11.1-2.9s-7.8,1-11.1,2.9c-3.3,1.9-5.9,4.5-7.9,7.9
			c-1.9,3.3-2.9,7-2.9,11.2c0,4.1,1,7.8,2.9,11.1S60-18,63.3-16C66.5-14.2,70.2-13.2,74.3-13.2z M74.3-16.6c-3.5,0-6.6-0.8-9.4-2.5
			c-2.8-1.7-5-3.9-6.7-6.7c-1.6-2.8-2.5-5.9-2.5-9.4s0.8-6.6,2.5-9.4c1.6-2.8,3.9-5,6.7-6.7c2.8-1.6,5.9-2.5,9.4-2.5
			c3.4,0,6.6,0.8,9.4,2.5c2.8,1.6,5,3.9,6.7,6.7c1.6,2.8,2.5,5.9,2.5,9.4s-0.8,6.6-2.5,9.4c-1.6,2.8-3.9,5-6.7,6.7
			C80.8-17.4,77.7-16.6,74.3-16.6z M137.2-13.1v-3.4h-18.1c-3.9,0-5.8-1.9-5.8-5.8V-48c0-3.9,1.9-5.8,5.8-5.8h18.1v-3.4H119
			c-3,0-5.2,0.8-6.8,2.3c-1.6,1.6-2.3,3.8-2.3,6.8v25.9c0,3,0.8,5.2,2.3,6.8c1.6,1.6,3.8,2.4,6.8,2.4L137.2-13.1L137.2-13.1z"/>
	</g>
	<g id="Ultralight-M" transform="matrix(1 0 0 1 485.948 1126)">
		<path d="M25,7.6h97.5c4.1,0,7.2-1.1,9.4-3.2c2.1-2.2,3.2-5.3,3.2-9.3v-60.3c0-4-1.1-7.1-3.2-9.3c-2.1-2.2-5.3-3.2-9.4-3.2H25
			c-4.1,0-7.2,1.1-9.3,3.2s-3.2,5.2-3.2,9.4V-5c0,4.1,1.1,7.2,3.2,9.4C17.8,6.5,20.9,7.6,25,7.6z M25.1,5.2c-3.4,0-5.9-0.9-7.7-2.6
			c-1.7-1.7-2.6-4.3-2.6-7.7v-60.1c0-3.4,0.9-5.9,2.6-7.7c1.7-1.7,4.3-2.6,7.7-2.6h97.3c3.3,0,5.8,0.9,7.6,2.6s2.7,4.3,2.7,7.7v60.1
			c0,3.4-0.9,5.9-2.7,7.7c-1.8,1.7-4.3,2.6-7.6,2.6C122.4,5.2,25.1,5.2,25.1,5.2z M12.5-12.9h17.7c2.9,0,5.1-0.8,6.6-2.3
			c1.5-1.5,2.3-3.7,2.3-6.6v-26.7c0-2.9-0.8-5.1-2.3-6.6s-3.7-2.3-6.6-2.3H12.5v2.4H30c4.4,0,6.6,2.2,6.6,6.5V-22
			c0,4.3-2.2,6.5-6.6,6.5H12.5V-12.9z M71.9,6.3h2.4v-82.8h-2.4V6.3z M73.1-13.5c4,0,7.6-1,10.8-2.9c3.3-1.9,5.9-4.5,7.8-7.8
			s2.9-6.9,2.9-10.9s-1-7.6-2.9-10.9c-1.9-3.3-4.5-5.9-7.8-7.8c-3.3-1.9-6.9-2.9-10.9-2.9s-7.6,1-10.8,2.9c-3.3,1.9-5.9,4.5-7.8,7.8
			c-1.9,3.3-2.9,6.9-2.9,10.9s1,7.6,2.9,10.9s4.5,5.9,7.8,7.8C65.5-14.5,69.2-13.5,73.1-13.5z M73.1-15.9c-3.5,0-6.7-0.9-9.6-2.6
			s-5.2-4-6.9-6.9S54-31.5,54-35c0-3.6,0.9-6.8,2.6-9.7c1.7-2.9,4-5.2,6.9-6.9s6.1-2.6,9.6-2.6s6.7,0.9,9.6,2.6
			c2.9,1.7,5.2,4,6.9,6.9c1.7,2.9,2.6,6.1,2.6,9.7c0,3.5-0.9,6.7-2.6,9.6s-4,5.2-6.9,6.9C79.8-16.8,76.6-15.9,73.1-15.9z
			 M135.1-12.9v-2.4h-17.6c-4.4,0-6.5-2.2-6.5-6.5v-26.5c0-4.3,2.2-6.5,6.5-6.5h17.6v-2.4h-17.7c-2.9,0-5.1,0.8-6.6,2.3
			s-2.2,3.7-2.2,6.6v26.7c0,2.9,0.7,5.1,2.2,6.6s3.7,2.3,6.6,2.3h17.7V-12.9z"/>
	</g>
	<g id="Black-S" transform="matrix(1 0 0 1 2871.49 696)">
		<path d="M25,2.9h73.8c4.8,0,8.5-1.3,11.2-4s4-6.4,4-11.2v-45.8c0-4.8-1.3-8.5-4-11.2s-6.4-4-11.2-4H25c-4.8,0-8.5,1.3-11.2,4
			s-4,6.4-4,11.2v45.8c0,4.8,1.3,8.5,4,11.2C16.5,1.6,20.2,2.9,25,2.9z M27.2-11.2c-1.1,0-1.9-0.3-2.5-0.8s-0.8-1.4-0.8-2.6v-41.3
			c0-1.2,0.3-2.1,0.8-2.6c0.6-0.5,1.4-0.7,2.5-0.7h69.3c1.1,0,2,0.2,2.5,0.7s0.8,1.4,0.8,2.6v41.3c0,1.2-0.3,2.1-0.8,2.6
			s-1.4,0.8-2.5,0.8C96.5-11.2,27.2-11.2,27.2-11.2z M9.8-19.2h20.3c2.6,0,4.7-0.8,6.2-2.3s2.3-3.6,2.3-6.2v-15
			c0-2.6-0.8-4.7-2.3-6.2s-3.6-2.3-6.2-2.3H9.8v8.3h19.8c0.6,0,0.8,0.3,0.8,0.9v13.7c0,0.6-0.3,0.9-0.8,0.9H9.8V-19.2z M57.8-8.4H66
			V-62h-8.2V-8.4z M61.9-18c3.5,0,6.5-0.7,9.1-2.2c2.6-1.4,4.6-3.5,6.1-6.1c1.4-2.6,2.1-5.6,2.1-9s-0.8-6.4-2.2-9
			c-1.5-2.6-3.5-4.6-6.1-6s-5.6-2.2-9-2.2s-6.4,0.7-9,2.1c-2.6,1.4-4.6,3.4-6,6s-2.2,5.6-2.2,9.1c0,3.4,0.7,6.4,2.2,9
			c1.4,2.6,3.5,4.6,6,6.1C55.5-18.7,58.4-18,61.9-18z M61.9-25.9c-1.9,0-3.5-0.4-4.9-1.2c-1.4-0.8-2.5-1.9-3.3-3.3s-1.2-3-1.2-4.9
			c0-1.9,0.4-3.5,1.2-4.9s1.9-2.5,3.3-3.2c1.4-0.8,3-1.1,4.9-1.1s3.5,0.4,4.9,1.1c1.4,0.8,2.5,1.8,3.3,3.2s1.2,3,1.1,4.9
			c0,1.9-0.4,3.5-1.2,4.9c-0.8,1.4-1.9,2.5-3.2,3.3C65.4-26.3,63.8-25.9,61.9-25.9z M114.1-19.2v-8.2H94.3c-0.6,0-0.8-0.3-0.8-0.9
			V-42c0-0.6,0.3-0.9,0.8-0.9h19.8v-8.3H93.8c-2.6,0-4.7,0.8-6.2,2.3s-2.3,3.6-2.3,6.2v15c0,2.6,0.8,4.7,2.3,6.2s3.6,2.3,6.2,2.3
			H114.1z"/>
	</g>
	<g id="Heavy-S" transform="matrix(1 0 0 1 2574.71 696)">
		<path d="M24.3,2.3h75.3c4.6,0,8.2-1.3,10.8-3.8c2.5-2.5,3.8-6.1,3.8-10.7v-46c0-4.6-1.3-8.2-3.8-10.7s-6.1-3.8-10.8-3.8H24.3
			c-4.6,0-8.2,1.3-10.8,3.8c-2.5,2.5-3.8,6.1-3.8,10.7v46C9.8-7.6,11-4,13.6-1.5C16.1,1.1,19.7,2.3,24.3,2.3z M26.1-10.2
			c-1.3,0-2.2-0.3-2.9-0.9c-0.6-0.6-1-1.6-1-2.9v-42.4c0-1.4,0.3-2.4,1-3c0.6-0.6,1.6-0.9,2.9-0.9h71.8c1.3,0,2.2,0.3,2.9,0.9
			c0.6,0.6,1,1.6,1,3V-14c0,1.4-0.3,2.3-1,2.9c-0.6,0.6-1.6,0.9-2.9,0.9C97.9-10.2,26.1-10.2,26.1-10.2z M9.8-19h19.3
			c2.6,0,4.7-0.8,6.2-2.3s2.3-3.6,2.3-6.2V-43c0-2.6-0.8-4.6-2.3-6.2c-1.5-1.5-3.6-2.3-6.2-2.3H9.8v7.7h18.9c0.8,0,1.1,0.4,1.1,1.2
			V-28c0,0.8-0.4,1.2-1.1,1.2H9.8V-19z M58.1-7.8h7.7v-54.8h-7.7C58.1-62.6,58.1-7.8,58.1-7.8z M61.9-17.7c3.5,0,6.6-0.7,9.3-2.2
			c2.6-1.5,4.7-3.5,6.1-6.1c1.5-2.6,2.2-5.7,2.1-9.1c0-3.5-0.8-6.5-2.3-9.1c-1.5-2.6-3.5-4.6-6.1-6.1s-5.6-2.2-9.1-2.3
			c-3.5,0-6.5,0.7-9.1,2.1c-2.6,1.5-4.6,3.5-6.1,6.1s-2.2,5.7-2.2,9.2s0.7,6.5,2.2,9.1s3.5,4.7,6.1,6.1
			C55.4-18.4,58.5-17.7,61.9-17.7z M62-25.1c-2,0-3.8-0.4-5.3-1.3c-1.5-0.8-2.7-2-3.5-3.5s-1.3-3.3-1.3-5.3s0.4-3.8,1.3-5.3
			c0.8-1.5,2-2.7,3.5-3.5s3.3-1.2,5.3-1.2s3.8,0.4,5.3,1.2s2.7,2,3.5,3.5s1.3,3.3,1.2,5.3c0,2-0.4,3.8-1.3,5.3
			c-0.8,1.5-2,2.7-3.5,3.6C65.8-25.6,64-25.1,62-25.1z M114.2-19v-7.7H95.3c-0.8,0-1.2-0.4-1.2-1.2v-14.6c0-0.8,0.4-1.2,1.2-1.2
			h18.9v-7.7H94.9c-2.6,0-4.7,0.8-6.2,2.3s-2.3,3.6-2.3,6.2v15.6c0,2.6,0.8,4.7,2.3,6.2s3.6,2.3,6.2,2.3h19.3V-19z"/>
	</g>
	<g id="Bold-S" transform="matrix(1 0 0 1 2277.92 696)">
		<path d="M23.6,1.7h76.9c4.5,0,7.9-1.2,10.3-3.6s3.6-5.8,3.6-10.2v-46.2c0-4.4-1.2-7.8-3.6-10.2s-5.8-3.6-10.3-3.6H23.6
			c-4.5,0-7.9,1.2-10.3,3.6s-3.6,5.8-3.6,10.2v46.2c0,4.4,1.2,7.8,3.6,10.2S19.1,1.7,23.6,1.7z M24.8-9c-1.4,0-2.5-0.4-3.3-1.1
			c-0.8-0.7-1.1-1.8-1.1-3.4V-57c0-1.5,0.4-2.7,1.1-3.4c0.8-0.7,1.9-1.1,3.3-1.1h74.6c1.4,0,2.5,0.4,3.3,1.1
			c0.7,0.7,1.1,1.8,1.1,3.4v43.6c0,1.5-0.4,2.7-1.1,3.4s-1.8,1.1-3.3,1.1L24.8-9L24.8-9z M9.8-18.8H28c2.6,0,4.6-0.7,6.1-2.2
			s2.2-3.5,2.2-6.1v-16.3c0-2.6-0.7-4.6-2.2-6.1s-3.5-2.2-6.1-2.2H9.8v7.2h17.9c1,0,1.5,0.5,1.5,1.5v15.5c0,1-0.5,1.6-1.5,1.6H9.8
			V-18.8z M58.5-7.1h7.2v-56.3h-7.2C58.5-63.4,58.5-7.1,58.5-7.1z M62-17.4c3.6,0,6.7-0.7,9.4-2.2c2.7-1.5,4.8-3.6,6.2-6.2
			c1.5-2.7,2.2-5.8,2.2-9.3s-0.8-6.6-2.3-9.3s-3.6-4.7-6.2-6.2c-2.7-1.5-5.7-2.3-9.3-2.3c-3.5,0-6.6,0.7-9.3,2.1
			c-2.7,1.5-4.7,3.5-6.2,6.2s-2.2,5.8-2.2,9.4c0,3.5,0.7,6.6,2.2,9.3s3.6,4.7,6.2,6.2S58.5-17.4,62-17.4z M62.1-24.3
			c-2.2,0-4.1-0.5-5.7-1.4c-1.6-0.9-2.9-2.2-3.8-3.8c-0.9-1.6-1.4-3.6-1.4-5.7c0-2.2,0.5-4.1,1.4-5.7c0.9-1.6,2.2-2.9,3.8-3.8
			c1.6-0.9,3.6-1.4,5.7-1.4c2.2,0,4.1,0.5,5.7,1.4s2.9,2.2,3.8,3.8s1.4,3.5,1.3,5.7c0,2.2-0.5,4.1-1.4,5.7s-2.2,2.9-3.8,3.8
			C66.1-24.8,64.2-24.3,62.1-24.3z M114.4-18.8V-26H96.5c-1,0-1.5-0.5-1.5-1.6V-43c0-1,0.5-1.5,1.5-1.5h17.8v-7.2H96.2
			c-2.6,0-4.7,0.7-6.1,2.2c-1.5,1.5-2.2,3.5-2.2,6.1v16.3c0,2.6,0.7,4.6,2.2,6.1s3.5,2.2,6.1,2.2C96.2-18.8,114.4-18.8,114.4-18.8z"
			/>
	</g>
	<g id="Semibold-S" transform="matrix(1 0 0 1 1981.15 696)">
		<path d="M23.1,1.2h78c4.4,0,7.7-1.1,9.9-3.4c2.3-2.3,3.4-5.5,3.4-9.9v-46.3c0-4.3-1.1-7.6-3.4-9.9c-2.3-2.3-5.6-3.4-9.9-3.4h-78
			c-4.3,0-7.6,1.1-9.9,3.4s-3.4,5.5-3.4,9.9V-12c0,4.3,1.1,7.6,3.4,9.9C15.5,0.1,18.8,1.2,23.1,1.2z M23.9-8.1
			c-1.6,0-2.7-0.4-3.6-1.2c-0.8-0.8-1.2-2-1.2-3.7v-44.4c0-1.6,0.4-2.9,1.2-3.7c0.8-0.8,2-1.2,3.6-1.2h76.5c1.6,0,2.8,0.4,3.6,1.2
			c0.8,0.8,1.2,2,1.2,3.7V-13c0,1.6-0.4,2.9-1.2,3.7c-0.8,0.8-2,1.2-3.6,1.2H23.9z M9.8-18.6h17.4c2.6,0,4.6-0.7,6.1-2.2
			c1.5-1.5,2.2-3.5,2.2-6.1v-16.7c0-2.6-0.7-4.6-2.2-6.1s-3.5-2.2-6.1-2.2H9.8v6.8H27c1.2,0,1.7,0.6,1.7,1.8v16.1
			c0,1.2-0.6,1.8-1.7,1.8H9.8V-18.6z M58.7-6.5h6.8v-57.3h-6.8V-6.5z M62.1-17.2c3.6,0,6.8-0.8,9.5-2.3s4.8-3.6,6.3-6.3
			s2.2-5.8,2.2-9.4s-0.8-6.7-2.3-9.4s-3.6-4.8-6.3-6.3c-2.7-1.5-5.8-2.3-9.4-2.3c-3.6-0.1-6.7,0.7-9.4,2.1c-2.7,1.5-4.8,3.6-6.3,6.3
			s-2.3,5.9-2.3,9.5s0.8,6.7,2.3,9.4s3.6,4.8,6.3,6.3C55.4-18,58.5-17.2,62.1-17.2z M62.1-23.7c-2.3,0-4.3-0.5-6-1.5s-3.1-2.3-4-4
			c-1-1.7-1.4-3.7-1.4-6s0.5-4.3,1.4-6c1-1.7,2.3-3.1,4-4c1.7-1,3.7-1.4,6-1.4c2.3,0,4.3,0.5,6,1.4c1.7,1,3.1,2.3,4.1,4
			s1.4,3.7,1.4,6s-0.5,4.3-1.5,6s-2.3,3.1-4,4C66.4-24.2,64.4-23.7,62.1-23.7z M114.5-18.6v-6.8H97.3c-1.2,0-1.8-0.6-1.8-1.8v-16.1
			c0-1.2,0.6-1.8,1.8-1.8h17.1v-6.8H97.1c-2.6,0-4.6,0.7-6.1,2.2s-2.2,3.5-2.2,6.1v16.7c0,2.6,0.7,4.6,2.2,6.1s3.5,2.2,6.1,2.2
			H114.5z"/>
	</g>
	<g id="Medium-S" transform="matrix(1 0 0 1 1684.4 696)">
		<path d="M22.7,0.8h78.9c4.3,0,7.5-1.1,9.7-3.2c2.2-2.2,3.3-5.4,3.3-9.6v-46.4c0-4.2-1.1-7.4-3.3-9.6c-2.2-2.2-5.4-3.2-9.7-3.2
			H22.7c-4.3,0-7.5,1.1-9.7,3.2c-2.2,2.2-3.3,5.4-3.3,9.6V-12c0,4.2,1.1,7.4,3.3,9.6S18.5,0.8,22.7,0.8z M23.2-7.5
			c-1.6,0-2.9-0.4-3.8-1.3s-1.3-2.1-1.3-3.9v-45.1c0-1.7,0.4-3,1.3-3.9s2.2-1.3,3.8-1.3h77.9c1.6,0,2.9,0.4,3.8,1.3
			c0.9,0.9,1.3,2.2,1.3,3.9v45.1c0,1.7-0.4,3-1.3,3.9s-2.1,1.3-3.8,1.3C101.1-7.5,23.2-7.5,23.2-7.5z M9.8-18.4h16.8
			c2.6,0,4.6-0.7,6.1-2.2c1.5-1.5,2.2-3.5,2.2-6.1v-17.1c0-2.6-0.7-4.6-2.2-6S29.2-52,26.6-52H9.8v6.5h16.7c1.3,0,1.9,0.7,1.9,2
			v16.6c0,1.3-0.6,2-1.9,2H9.8V-18.4z M58.9-6.2h6.5v-58.1h-6.5V-6.2z M62.1-17.1c3.6,0,6.8-0.8,9.6-2.3c2.7-1.5,4.9-3.6,6.4-6.4
			s2.2-5.9,2.2-9.5S79.5-42,78-44.7s-3.6-4.8-6.4-6.3c-2.7-1.5-5.8-2.3-9.4-2.3c-3.6-0.1-6.8,0.7-9.5,2.2s-4.8,3.6-6.3,6.3
			s-2.3,5.9-2.3,9.6c0,3.6,0.8,6.8,2.3,9.5s3.6,4.8,6.3,6.4C55.3-17.8,58.5-17.1,62.1-17.1z M62.2-23.3c-2.4,0-4.5-0.5-6.3-1.5
			s-3.2-2.4-4.2-4.2c-1-1.8-1.5-3.9-1.5-6.3c0-2.4,0.5-4.4,1.5-6.2s2.4-3.2,4.2-4.2s3.9-1.5,6.3-1.5s4.5,0.5,6.3,1.5
			s3.2,2.4,4.2,4.2s1.5,3.9,1.5,6.2c0,2.4-0.5,4.5-1.5,6.3s-2.4,3.2-4.2,4.2C66.6-23.8,64.5-23.3,62.2-23.3z M114.5-18.4V-25H97.9
			c-1.3,0-2-0.7-2-2v-16.6c0-1.3,0.7-2,2-2h16.6V-52H97.8c-2.6,0-4.6,0.7-6.1,2.2c-1.5,1.4-2.2,3.5-2.2,6v17.1
			c0,2.6,0.7,4.6,2.2,6.1s3.5,2.2,6.1,2.2C97.8-18.4,114.5-18.4,114.5-18.4z"/>
	</g>
	<g id="Regular-S" transform="matrix(1 0 0 1 1387.64 696)">
		<path d="M22.2,0.4h80c4.2,0,7.3-1,9.4-3.1s3.1-5.1,3.1-9.2v-46.6c0-4.1-1-7.2-3.1-9.2c-2.1-2.1-5.2-3.1-9.4-3.1h-80
			c-4.1,0-7.2,1-9.3,3.1s-3.1,5.1-3.1,9.2v46.6c0,4.1,1,7.2,3.1,9.2C15-0.6,18.1,0.4,22.2,0.4z M22.3-6.7c-1.8,0-3.1-0.5-4.1-1.4
			s-1.4-2.3-1.4-4.2v-45.9c0-1.8,0.5-3.2,1.4-4.2c1-0.9,2.3-1.4,4.1-1.4h79.8c1.8,0,3.1,0.5,4.1,1.4s1.4,2.3,1.4,4.2v45.9
			c0,1.9-0.5,3.2-1.4,4.2c-1,0.9-2.3,1.4-4.1,1.4C102.1-6.7,22.3-6.7,22.3-6.7z M9.8-18.3h16c2.6,0,4.6-0.7,6-2.2
			c1.4-1.4,2.2-3.5,2.2-6V-44c0-2.6-0.7-4.6-2.2-6c-1.4-1.4-3.5-2.1-6-2.1h-16v6.1h16c1.4,0,2.1,0.7,2.1,2.2v17.2
			c0,1.5-0.7,2.2-2.1,2.2h-16C9.8-24.4,9.8-18.3,9.8-18.3z M59.1-5.7h6.1v-59.1h-6.1V-5.7z M62.2-16.9c3.7,0,6.9-0.8,9.7-2.3
			s4.9-3.7,6.4-6.4c1.5-2.8,2.3-5.9,2.2-9.6c0-3.6-0.8-6.8-2.4-9.5c-1.5-2.7-3.7-4.9-6.4-6.4c-2.7-1.5-5.9-2.3-9.5-2.3
			c-3.6-0.1-6.8,0.7-9.6,2.2c-2.7,1.5-4.9,3.6-6.4,6.4c-1.5,2.8-2.3,6-2.3,9.7c0,3.6,0.8,6.8,2.3,9.6s3.7,4.9,6.4,6.4
			C55.3-17.7,58.5-16.9,62.2-16.9z M62.2-22.7c-2.5,0-4.7-0.5-6.6-1.6c-1.9-1.1-3.4-2.5-4.4-4.4s-1.6-4.1-1.6-6.6s0.5-4.6,1.6-6.5
			c1-1.9,2.5-3.3,4.4-4.4c1.9-1,4.1-1.6,6.6-1.6c2.5,0,4.7,0.5,6.5,1.6c1.9,1,3.4,2.5,4.4,4.4c1.1,1.9,1.6,4,1.5,6.5
			c0,2.5-0.5,4.7-1.6,6.6s-2.5,3.3-4.4,4.4S64.7-22.7,62.2-22.7z M114.6-18.3v-6.2H98.7c-1.5,0-2.2-0.7-2.2-2.2v-17.2
			c0-1.5,0.7-2.2,2.2-2.2h15.9v-6.1h-16c-2.6,0-4.6,0.7-6.1,2.1c-1.4,1.4-2.2,3.4-2.2,6v17.5c0,2.6,0.7,4.6,2.2,6
			c1.4,1.4,3.5,2.2,6.1,2.2h16V-18.3z"/>
	</g>
	<g id="Light-S" transform="matrix(1 0 0 1 1092.3 696)">
		<path d="M21.4-0.3h78.9c3.9,0,6.8-1,8.7-2.9c1.9-1.9,2.9-4.8,2.9-8.6v-46.8c0-3.8-1-6.7-2.9-8.6s-4.8-2.9-8.7-2.9H21.4
			c-3.9,0-6.8,1-8.7,2.9c-2,1.9-2.9,4.8-2.9,8.6v46.8c0,3.8,1,6.7,2.9,8.6C14.6-1.2,17.5-0.3,21.4-0.3z M21.5-5.7
			c-2,0-3.6-0.5-4.7-1.6s-1.6-2.6-1.6-4.8v-46.3c0-2.1,0.5-3.7,1.6-4.7c1.1-1.1,2.6-1.6,4.7-1.6h78.7c2,0,3.6,0.5,4.7,1.6
			s1.6,2.6,1.6,4.7v46.3c0,2.1-0.5,3.7-1.6,4.8s-2.6,1.6-4.7,1.6C100.2-5.7,21.5-5.7,21.5-5.7z M9.8-18.1h15.3c2.5,0,4.4-0.7,5.8-2
			c1.4-1.4,2-3.3,2-5.8v-18.6c0-2.5-0.7-4.4-2-5.7c-1.4-1.4-3.3-2-5.8-2H9.8v4.8H25c2,0,3.1,1,3.1,3.1V-26c0,2.1-1,3.1-3.1,3.1H9.8
			V-18.1z M58.3-4.8h4.8v-60.9h-4.8V-4.8z M60.6-17.3c3.5,0,6.6-0.8,9.3-2.3c2.7-1.5,4.8-3.6,6.3-6.3s2.3-5.8,2.2-9.3
			c0-3.5-0.8-6.5-2.3-9.2s-3.6-4.8-6.3-6.3c-2.7-1.5-5.7-2.3-9.2-2.3c-3.5,0-6.6,0.7-9.2,2.2c-2.7,1.5-4.8,3.6-6.3,6.3
			s-2.3,5.8-2.3,9.3s0.8,6.6,2.3,9.3s3.6,4.8,6.3,6.3C54.1-18.1,57.2-17.3,60.6-17.3z M60.7-21.9c-2.6,0-4.9-0.6-6.9-1.7
			s-3.6-2.7-4.7-4.7c-1.1-2-1.7-4.3-1.7-6.9c0-2.6,0.6-4.8,1.7-6.8c1.1-2,2.7-3.6,4.7-4.7c2-1.1,4.3-1.7,6.9-1.7
			c2.6,0,4.8,0.6,6.8,1.7c2,1.1,3.6,2.7,4.7,4.7s1.7,4.3,1.7,6.8c0,2.6-0.6,4.9-1.7,6.9s-2.7,3.6-4.7,4.7
			C65.5-22.5,63.2-21.9,60.7-21.9z M111.9-18.1v-4.8H96.7c-2.1,0-3.1-1-3.1-3.1v-18.3c0-2.1,1-3.1,3.1-3.1h15.2v-4.8H96.6
			c-2.5,0-4.4,0.7-5.8,2c-1.4,1.4-2,3.3-2,5.7v18.6c0,2.5,0.7,4.4,2,5.8c1.4,1.4,3.3,2,5.8,2C96.6-18.1,111.9-18.1,111.9-18.1z"/>
	</g>
	<g id="Thin-S" transform="matrix(1 0 0 1 797.414 696)">
		<path d="M20.3-1.1h77.4c3.5,0,6.1-0.9,7.9-2.7s2.7-4.4,2.7-7.8v-47.1c0-3.4-0.9-6-2.7-7.8c-1.8-1.8-4.4-2.7-7.9-2.7H20.3
			c-3.5,0-6.1,0.9-7.9,2.7c-1.8,1.8-2.7,4.4-2.7,7.9v47.1c0,3.5,0.9,6.1,2.7,7.9C14.2-2,16.8-1.1,20.3-1.1z M20.4-4.4
			c-2.4,0-4.2-0.6-5.5-1.8C13.7-7.4,13-9.3,13-11.7v-46.7c0-2.4,0.6-4.3,1.9-5.5c1.2-1.2,3.1-1.9,5.5-1.9h77.2
			c2.3,0,4.2,0.6,5.4,1.9c1.3,1.2,1.9,3.1,1.9,5.5v46.7c0,2.4-0.6,4.3-1.9,5.5s-3.1,1.8-5.4,1.8C97.6-4.4,20.4-4.4,20.4-4.4z
			 M9.8-17.9h14.4c2.4,0,4.2-0.6,5.4-1.9c1.2-1.2,1.9-3,1.9-5.4v-20c0-2.3-0.6-4.1-1.9-5.4c-1.2-1.2-3-1.9-5.4-1.9H9.8v3h14.3
			c2.9,0,4.3,1.4,4.3,4.3v19.8c0,2.9-1.4,4.3-4.3,4.3H9.8V-17.9z M57.1-3.6h3v-63.2h-3V-3.6z M58.6-17.9c3.3,0,6.2-0.8,8.8-2.3
			c2.6-1.5,4.7-3.6,6.2-6.2s2.3-5.6,2.3-8.8c0-3.3-0.8-6.2-2.3-8.8s-3.6-4.7-6.2-6.2s-5.5-2.3-8.8-2.3c-3.2,0-6.2,0.7-8.8,2.2
			s-4.7,3.6-6.2,6.2c-1.5,2.6-2.3,5.6-2.3,8.8c0,3.3,0.8,6.2,2.3,8.8s3.6,4.7,6.2,6.2C52.5-18.6,55.4-17.9,58.6-17.9z M58.7-20.8
			c-2.7,0-5.1-0.6-7.3-1.9s-3.9-3-5.1-5.2c-1.3-2.2-1.9-4.6-1.9-7.3s0.6-5.1,1.9-7.3c1.3-2.2,3-3.9,5.1-5.1s4.6-1.9,7.3-1.9
			s5.1,0.6,7.2,1.9c2.2,1.3,3.9,3,5.1,5.1c1.3,2.2,1.9,4.6,1.9,7.3s-0.6,5.1-1.9,7.3s-3,3.9-5.1,5.2C63.8-21.5,61.3-20.8,58.7-20.8z
			 M108.2-17.9V-21H93.9c-2.9,0-4.3-1.4-4.3-4.3v-19.8c0-2.9,1.4-4.3,4.3-4.3h14.3v-3H93.8c-2.4,0-4.2,0.6-5.4,1.9
			c-1.2,1.2-1.9,3-1.9,5.4v20c0,2.3,0.6,4.1,1.9,5.4c1.2,1.2,3,1.9,5.4,1.9h14.4C108.2-17.8,108.2-17.9,108.2-17.9z"/>
	</g>
	<g id="Ultralight-S" transform="matrix(1 0 0 1 501.636 696)">
		<path d="M19.8-1.6h76.6c3.3,0,5.8-0.9,7.5-2.6s2.5-4.2,2.5-7.4v-47.2c0-3.2-0.8-5.7-2.5-7.4c-1.7-1.7-4.2-2.6-7.5-2.6H19.8
			c-3.3,0-5.8,0.8-7.5,2.5s-2.5,4.2-2.5,7.5v47.2c0,3.3,0.8,5.8,2.5,7.5C14-2.4,16.5-1.6,19.8-1.6z M19.9-3.8c-2.6,0-4.6-0.7-5.9-2
			s-2-3.3-2-5.9v-47c0-2.6,0.7-4.6,2-5.9c1.3-1.3,3.3-2,5.9-2h76.4c2.5,0,4.5,0.7,5.8,2c1.4,1.3,2.1,3.3,2.1,5.9v47
			c0,2.6-0.7,4.6-2.1,5.9s-3.3,2-5.8,2C96.3-3.8,19.9-3.8,19.9-3.8z M9.8-17.8h14c2.3,0,4-0.6,5.2-1.8c1.2-1.2,1.8-2.9,1.8-5.2
			v-20.8c0-2.3-0.6-4-1.8-5.2c-1.2-1.2-2.9-1.8-5.2-1.8h-14v2.2h13.9c3.3,0,4.9,1.6,4.9,4.9v20.6c0,3.3-1.6,4.9-4.9,4.9H9.8V-17.8z
			 M56.5-2.9h2.2v-64.4h-2.2V-2.9z M57.6-18.2c3.1,0,6-0.8,8.6-2.3s4.6-3.6,6.1-6.1s2.3-5.4,2.3-8.6s-0.8-6-2.3-8.6
			c-1.5-2.6-3.5-4.6-6.1-6.1s-5.4-2.3-8.6-2.3c-3.1,0-6,0.8-8.5,2.3c-2.6,1.5-4.6,3.6-6.1,6.1c-1.5,2.6-2.3,5.4-2.3,8.6
			c0,3.2,0.8,6,2.3,8.6s3.6,4.6,6.1,6.1C51.6-18.9,54.5-18.2,57.6-18.2z M57.6-20.3c-2.7,0-5.2-0.7-7.5-2c-2.2-1.3-4-3.1-5.3-5.4
			s-2-4.7-2-7.5c0-2.7,0.7-5.2,2-7.5s3.1-4,5.3-5.4c2.2-1.3,4.7-2,7.5-2c2.7,0,5.2,0.7,7.4,2c2.2,1.3,4,3.1,5.3,5.4
			c1.3,2.3,2,4.7,2,7.5c0,2.7-0.7,5.2-2,7.5s-3.1,4-5.3,5.4C62.9-21,60.4-20.3,57.6-20.3z M106.4-17.8V-20H92.5
			c-3.3,0-4.9-1.6-4.9-4.9v-20.6c0-3.3,1.6-4.9,4.9-4.9h13.9v-2.2h-14c-2.3,0-4,0.6-5.2,1.8s-1.8,2.9-1.8,5.2v20.8
			c0,2.3,0.6,4,1.8,5.2c1.2,1.2,2.9,1.8,5.2,1.8C92.4-17.8,106.4-17.8,106.4-17.8z"/>
	</g>
</g>
</svg>
