<?xml version="1.0" encoding="utf-8"?>
<!-- Generator: Adobe Illustrator 25.0.0, SVG Export Plug-In . SVG Version: 6.00 Build 0)  -->
<svg version="1.1" id="Layer_1" xmlns="http://www.w3.org/2000/svg" xmlns:xlink="http://www.w3.org/1999/xlink" x="0px" y="0px"
	 viewBox="0 0 3300 2200" style="enable-background:new 0 0 3300 2200;" xml:space="preserve">
<style type="text/css">
	.st0{fill:none;stroke:#000000;stroke-width:0.5;}
	.st1{font-family:'Helvetica-Bold';}
	.st2{font-size:13px;}
	.st3{font-family:'Helvetica';}
	.st4{fill:none;stroke:#00AEEF;stroke-width:0.5;}
	.st5{fill:#27AAE1;}
	.st6{fill:none;stroke:#27AAE1;stroke-width:0.5;}
</style>
<g id="Notes">
	<line class="st0" x1="263" y1="292" x2="3036" y2="292"/>
	<text transform="matrix(1 0 0 1 263 322)" class="st1 st2">Weight/Scale Variations</text>
	<text transform="matrix(1 0 0 1 534.0633 322)" class="st3 st2">Ultralight</text>
	<text transform="matrix(1 0 0 1 843.7775 322)" class="st3 st2">Thin</text>
	<text transform="matrix(1 0 0 1 1139.035 322)" class="st3 st2">Light</text>
	<text transform="matrix(1 0 0 1 1427.0773 322)" class="st3 st2">Regular</text>
	<text transform="matrix(1 0 0 1 1723.4419 322)" class="st3 st2">Medium</text>
	<text transform="matrix(1 0 0 1 2016.1719 322)" class="st3 st2">Semibold</text>
	<text transform="matrix(1 0 0 1 2326.9705 322)" class="st3 st2">Bold</text>
	<text transform="matrix(1 0 0 1 2618.2659 322)" class="st3 st2">Heavy</text>
	<text transform="matrix(1 0 0 1 2917.5054 322)" class="st3 st2">Black</text>
	<line class="st0" x1="263" y1="1903" x2="3036" y2="1903"/>
	<g transform="matrix(1 0 0 1 263 1933)">
		<path d="M9.2,0.8c1.1,0,2.1-0.2,3-0.6c1-0.4,1.8-1,2.5-1.7S16-3.1,16.4-4C16.8-5,17-6,17-7s-0.2-2.1-0.6-3c-0.4-1-1-1.8-1.7-2.5
			s-1.6-1.3-2.5-1.7c-1-0.4-2-0.6-3-0.6c-1.1,0-2.1,0.2-3,0.6s-1.8,1-2.5,1.7C3-11.9,2.4-11,2-10.1c-0.4,1-0.6,2-0.6,3S1.6-5,2-4
			s1,1.8,1.7,2.5s1.6,1.3,2.5,1.7C7.2,0.6,8.2,0.8,9.2,0.8z M9.2-0.7c-0.9,0-1.7-0.2-2.5-0.5C6-1.5,5.3-1.9,4.7-2.5s-1-1.3-1.4-2
			C3-5.3,2.9-6.2,2.9-7.1s0.2-1.7,0.5-2.5s0.8-1.5,1.4-2c0.6-0.6,1.3-1,2-1.4c0.8-0.3,1.6-0.5,2.5-0.5s1.7,0.2,2.5,0.5
			s1.5,0.8,2,1.4c0.6,0.6,1,1.3,1.4,2c0.3,0.8,0.5,1.6,0.5,2.5s-0.2,1.7-0.5,2.5s-0.8,1.5-1.4,2c-0.6,0.6-1.3,1-2,1.4
			C11-0.8,10.1-0.7,9.2-0.7z M5.7-7.1c0,0.2,0.1,0.4,0.2,0.5C6-6.4,6.2-6.3,6.4-6.3h2.1v2.1c0,0.2,0.1,0.4,0.2,0.5
			C8.8-3.5,9-3.5,9.2-3.5s0.4-0.1,0.5-0.2C9.9-3.8,10-4,10-4.2v-2.1h2.1c0.2,0,0.4-0.1,0.5-0.2s0.2-0.3,0.2-0.5s-0.1-0.4-0.2-0.5
			c-0.1-0.1-0.3-0.2-0.5-0.2H10v-2.1c0-0.2-0.1-0.4-0.2-0.5c-0.1-0.1-0.3-0.2-0.5-0.2s-0.4,0.1-0.5,0.2C8.7-10.2,8.6-10,8.6-9.8v2.1
			H6.4C6.2-7.8,6-7.7,5.9-7.6C5.7-7.5,5.7-7.3,5.7-7.1z"/>
	</g>
	<g transform="matrix(1 0 0 1 281.867 1933)">
		<path d="M11.7,2.9c1.4,0,2.6-0.3,3.8-0.8s2.3-1.2,3.2-2.2c0.9-0.9,1.6-2,2.2-3.2c0.5-1.2,0.8-2.5,0.8-3.8c0-1.4-0.3-2.6-0.8-3.8
			s-1.2-2.3-2.2-3.2c-0.9-0.9-2-1.6-3.2-2.2c-1.2-0.5-2.5-0.8-3.8-0.8s-2.6,0.3-3.8,0.8c-1.2,0.5-2.3,1.2-3.2,2.2
			c-0.9,0.9-1.6,2-2.2,3.2C2-9.7,1.7-8.4,1.7-7.1c0,1.4,0.3,2.6,0.8,3.8S3.8-0.9,4.7,0s2,1.6,3.2,2.2S10.3,2.9,11.7,2.9z M11.7,1.2
			c-1.2,0-2.2-0.2-3.2-0.6s-1.9-1-2.6-1.8C5.1-1.9,4.5-2.8,4.1-3.8S3.4-5.9,3.4-7.1S3.6-9.3,4-10.3s1-1.9,1.8-2.6
			c0.8-0.8,1.6-1.4,2.6-1.8c1-0.4,2.1-0.6,3.2-0.6s2.2,0.2,3.2,0.6c1,0.4,1.9,1,2.6,1.8c0.8,0.8,1.4,1.6,1.8,2.6s0.6,2.1,0.6,3.2
			c0,1.2-0.2,2.2-0.6,3.2s-1,1.9-1.8,2.6c-0.8,0.8-1.6,1.4-2.6,1.8S12.9,1.2,11.7,1.2z M7.2-7.1c0,0.2,0.1,0.4,0.2,0.6
			C7.6-6.3,7.8-6.3,8-6.3h2.9v2.9c0,0.2,0.1,0.4,0.2,0.6c0.1,0.2,0.3,0.2,0.6,0.2c0.2,0,0.4-0.1,0.6-0.2c0.2-0.2,0.2-0.4,0.2-0.6
			v-2.9h2.9c0.2,0,0.4-0.1,0.6-0.2s0.2-0.3,0.2-0.6c0-0.2-0.1-0.4-0.2-0.6c-0.2-0.2-0.4-0.2-0.6-0.2h-2.9v-2.9
			c0-0.3-0.1-0.5-0.2-0.6s-0.4-0.2-0.6-0.2c-0.2,0-0.4,0.1-0.6,0.2c-0.1,0.2-0.2,0.4-0.2,0.6v2.9H8c-0.3,0-0.5,0.1-0.6,0.2
			C7.3-7.5,7.2-7.3,7.2-7.1z"/>
	</g>
	<g transform="matrix(1 0 0 1 305.646 1933)">
		<path d="M15,5.7c1.4,0,2.7-0.2,4-0.6s2.4-1,3.5-1.8s2-1.7,2.8-2.8C26-0.6,26.6-1.8,27-3.1s0.6-2.6,0.6-4s-0.2-2.7-0.6-4
			s-1-2.4-1.8-3.5s-1.7-2-2.8-2.8c-1.1-0.8-2.2-1.4-3.5-1.8s-2.6-0.6-4-0.6s-2.7,0.2-4,0.6s-2.4,1-3.5,1.8s-2,1.7-2.8,2.8
			s-1.4,2.2-1.8,3.5s-0.6,2.6-0.6,4s0.2,2.7,0.6,4s1,2.4,1.8,3.5s1.7,2,2.8,2.8C8.6,4,9.7,4.6,11,5C12.2,5.4,13.6,5.7,15,5.7z
			 M15,3.8c-1.2,0-2.4-0.2-3.4-0.6c-1.1-0.4-2.1-0.9-3-1.5c-1-0.6-1.8-1.4-2.4-2.3C5.5-1.5,5-2.5,4.6-3.6C4.3-4.7,4.1-5.8,4.1-7.1
			c0-1.2,0.2-2.4,0.5-3.5c0.4-1.1,0.9-2.1,1.5-3c0.7-0.9,1.4-1.7,2.4-2.4s1.9-1.2,3-1.5c1.1-0.4,2.2-0.5,3.4-0.5s2.4,0.2,3.5,0.5
			c1.1,0.4,2.1,0.9,3,1.5c0.9,0.7,1.7,1.5,2.4,2.4c0.7,0.9,1.2,1.9,1.5,3c0.4,1.1,0.6,2.2,0.6,3.5c0,1.2-0.2,2.4-0.5,3.4
			c-0.4,1.1-0.9,2.1-1.5,3c-0.7,0.9-1.5,1.7-2.4,2.4s-1.9,1.2-3,1.5C17.3,3.7,16.2,3.8,15,3.8z M9.2-7.1c0,0.3,0.1,0.5,0.3,0.6
			c0.2,0.2,0.4,0.2,0.7,0.2h3.9v4c0,0.3,0.1,0.5,0.2,0.7c0.2,0.2,0.4,0.3,0.6,0.3c0.3,0,0.5-0.1,0.7-0.3s0.3-0.4,0.3-0.7v-4h4
			c0.3,0,0.5-0.1,0.7-0.2c0.2-0.2,0.3-0.4,0.3-0.6c0-0.3-0.1-0.5-0.3-0.7C20.3-7.9,20.1-8,19.8-8h-4v-3.9c0-0.3-0.1-0.5-0.3-0.7
			s-0.4-0.3-0.7-0.3s-0.5,0.1-0.6,0.3C14-12.4,14-12.2,14-11.9V-8h-3.9C9.8-8,9.6-7.9,9.5-7.7C9.3-7.5,9.2-7.3,9.2-7.1z"/>
	</g>
	<text transform="matrix(1 0 0 1 263 1953)" class="st1 st2">Design Variations</text>
	<text transform="matrix(1 0 0 1 263 1971)" class="st3 st2">Symbols are supported in up to nine weights and three scales.</text>
	<text transform="matrix(1 0 0 1 263 1989)" class="st3 st2">For optimal layout with text and other symbols, vertically align</text>
	<text transform="matrix(1 0 0 1 263 2007)" class="st3 st2">symbols with the adjacent text.</text>
	<line class="st4" x1="776" y1="1919" x2="776" y2="1933"/>
	<g transform="matrix(1 0 0 1 776 1933)">
		<path d="M3.3,0.2c0.3,0,0.5-0.1,0.6-0.2C4-0.1,4.2-0.3,4.3-0.6L5.5-4h5.8l1.3,3.4C12.7-0.3,12.8-0.1,13,0c0.1,0.1,0.3,0.2,0.6,0.2
			s0.5-0.1,0.6-0.2c0.2-0.1,0.2-0.3,0.2-0.6c0-0.1,0-0.3-0.1-0.5L9.7-13.4c-0.1-0.3-0.3-0.5-0.5-0.7c-0.2-0.1-0.5-0.2-0.8-0.2
			c-0.6,0-1,0.3-1.2,0.9L2.6-1.2C2.5-1,2.5-0.8,2.5-0.6S2.6-0.2,2.7,0S3.1,0.2,3.3,0.2z M6-5.5l2.4-6.6l0,0l2.4,6.6
			C10.8-5.5,6-5.5,6-5.5z"/>
	</g>
	<line class="st4" x1="793.2" y1="1919" x2="793.2" y2="1933"/>
	<text transform="matrix(1 0 0 1 776 1953)" class="st1 st2">Margins</text>
	<text transform="matrix(1 0 0 1 776 1971)" class="st3 st2">Leading and trailing margins on the left and right side of each symbol</text>
	<text transform="matrix(1 0 0 1 776 1989)" class="st3 st2">can be adjusted by modifying the x-location of the margin guidelines.</text>
	<text transform="matrix(1 0 0 1 776 2007)" class="st3 st2">Modifications are automatically applied proportionally to all</text>
	<text transform="matrix(1 0 0 1 776 2025)" class="st3 st2">scales and weights.</text>
	<g transform="matrix(1 0 0 1 1289 1933)">
		<path d="M2.8,1.9l1.7,1.7C5,4,5.4,4.2,5.9,4.2s0.9-0.3,1.4-0.8L18-8.4l-1-1L6.4,2.3C6.2,2.5,6.1,2.6,5.9,2.6S5.5,2.5,5.3,2.3
			L4.1,1.1C3.9,0.9,3.8,0.7,3.8,0.5S3.9,0.1,4.1,0l11.5-10.8l-1-1L3-0.9C2.6-0.4,2.3,0,2.3,0.5C2.2,1,2.4,1.4,2.8,1.9z M9.3-16.3
			c-0.2,0.2-0.3,0.4-0.4,0.7c0,0.3,0,0.5,0.1,0.7s0.3,0.3,0.5,0.4c0.2,0.1,0.5,0.1,0.8,0c0.7-0.2,1.5-0.2,2.2-0.2s1.5,0.3,2.2,0.7
			l-0.6,1.5c-0.2,0.4-0.2,0.8-0.1,1.1c0.1,0.3,0.2,0.6,0.5,0.9l2.3,2.3C17-8,17.3-7.8,17.5-7.8s0.5,0,0.8,0L19.4-8l0.7,0.7v0.6
			c0,0.2,0,0.5,0.1,0.7s0.2,0.4,0.5,0.7l0.8,0.7c0.2,0.2,0.5,0.4,0.8,0.4s0.5-0.1,0.8-0.3L26-7.4c0.2-0.2,0.3-0.5,0.3-0.8
			c0-0.3-0.1-0.5-0.4-0.8L25-9.9c-0.2-0.2-0.5-0.4-0.7-0.5s-0.4-0.1-0.7-0.1H23l-0.6-0.6l0.2-1.1c0.1-0.3,0.1-0.5,0-0.8
			s-0.3-0.5-0.6-0.8L19.9-16c-0.8-0.8-1.7-1.4-2.7-1.9c-0.9-0.4-1.9-0.6-2.8-0.6c-1,0-1.9,0.2-2.8,0.5C10.8-17.6,10-17.1,9.3-16.3z
			 M10.8-16c0.6-0.4,1.3-0.8,1.9-0.9c0.7-0.2,1.4-0.2,2.1-0.2c0.7,0.1,1.4,0.3,2.1,0.6c0.7,0.3,1.3,0.7,1.8,1.3l2.4,2.4
			c0.1,0.1,0.2,0.2,0.2,0.3s0,0.3,0,0.4L21-10.5L22.5-9l1-0.1c0.1,0,0.2,0,0.3,0c0.1,0,0.1,0.1,0.2,0.2l0.6,0.6l-2.4,2.4l-0.6-0.6
			c-0.1-0.1-0.2-0.2-0.2-0.2c0-0.1,0-0.2,0-0.3l0.1-1L20-9.5l-1.5,0.3c-0.2,0-0.3,0-0.4,0s-0.2-0.1-0.3-0.2l-2-2
			c-0.1-0.1-0.2-0.2-0.2-0.3s0-0.3,0.1-0.4l0.9-2.1c-0.8-0.7-1.7-1.2-2.6-1.5c-1-0.3-2-0.3-3,0c-0.1,0-0.1,0-0.2,0
			C10.7-15.9,10.7-15.9,10.8-16z"/>
	</g>
	<text transform="matrix(1 0 0 1 1289 1953)" class="st1 st2">Exporting</text>
	<text transform="matrix(1 0 0 1 1289 1971)" class="st3 st2">Symbols should be outlined when exporting to ensure the</text>
	<text transform="matrix(1 0 0 1 1289 1989)" class="st3 st2">design is preserved when submitting to Xcode.</text>
	<text id="template-version" transform="matrix(1 0 0 1 2952.4141 1933)" class="st3 st2">Template v.3.0</text>
	<text transform="matrix(1 0 0 1 2865.4575 1951)" class="st3 st2">Requires Xcode 13 or greater</text>
	<text id="descriptive-name" transform="matrix(1 0 0 1 2890.7529 1969)" class="st3 st2">Generated from person.2</text>
	<text transform="matrix(1 0 0 1 2912.4111 1987)" class="st3 st2">Typeset at 100 points</text>
	<text transform="matrix(1 0 0 1 263 726)" class="st3 st2">Small</text>
	<text transform="matrix(1 0 0 1 263 1156)" class="st3 st2">Medium</text>
	<text transform="matrix(1 0 0 1 263 1586)" class="st3 st2">Large</text>
</g>
<g id="Guides">
	<g id="H-reference" transform="matrix(1 0 0 1 339 696)">
		<path class="st5" d="M1,0h2.6l25.7-67.1H30v-3.3h-1.9L1,0z M11.7-24.5H47l-0.8-2.2H12.4L11.7-24.5z M55.1,0h2.6L30.6-70.5h-1.2
			v3.3L55.1,0z"/>
	</g>
	<line id="Baseline-S" class="st6" x1="263" y1="696" x2="3036" y2="696"/>
	<line id="Capline-S" class="st6" x1="263" y1="625.5" x2="3036" y2="625.5"/>
	<g id="H-reference_1_" transform="matrix(1 0 0 1 339 1126)">
		<path class="st5" d="M1,0h2.6l25.7-67.1H30v-3.3h-1.9L1,0z M11.7-24.5H47l-0.8-2.2H12.4L11.7-24.5z M55.1,0h2.6L30.6-70.5h-1.2
			v3.3L55.1,0z"/>
	</g>
	<line id="Baseline-M" class="st6" x1="263" y1="1126" x2="3036" y2="1126"/>
	<line id="Capline-M" class="st6" x1="263" y1="1055.5" x2="3036" y2="1055.5"/>
	<g id="H-reference_2_" transform="matrix(1 0 0 1 339 1556)">
		<path class="st5" d="M1,0h2.6l25.7-67.1H30v-3.3h-1.9L1,0z M11.7-24.5H47l-0.8-2.2H12.4L11.7-24.5z M55.1,0h2.6L30.6-70.5h-1.2
			v3.3L55.1,0z"/>
	</g>
	<line id="Baseline-L" class="st6" x1="263" y1="1556" x2="3036" y2="1556"/>
	<line id="Capline-L" class="st6" x1="263" y1="1485.5" x2="3036" y2="1485.5"/>
	<line id="left-margin-Regular-M" class="st4" x1="1369.4" y1="1030.8" x2="1369.4" y2="1150.1"/>
	<line id="right-margin-Regular-M" class="st4" x1="1530.3" y1="1030.8" x2="1530.3" y2="1150.1"/>
</g>
<g id="Symbols">
	<g id="Black-L" transform="matrix(1 0 0 1 2826.98 1556)">
		<path d="M102,26.5h76.2c12.4,0,18.6-4.5,18.6-13.5c0-3.9-0.9-7.9-2.8-11.7c-1.8-3.9-4.4-7.6-7.8-11c-3.4-3.5-7.4-6.5-12.1-9.2
			s-9.9-4.7-15.6-6.3s-11.9-2.3-18.4-2.3s-12.6,0.8-18.4,2.3s-11,3.6-15.6,6.3c-4.7,2.7-8.7,5.7-12.1,9.2s-6,7.1-7.8,11
			S83.5,9.1,83.5,13C83.3,22,89.6,26.5,102,26.5z M102.8,10.5c-0.4,0-0.7-0.1-0.8-0.3c-0.1-0.2-0.2-0.4-0.2-0.7c0-1.4,0.5-3,1.6-4.8
			s2.7-3.7,4.8-5.6c2.1-1.9,4.8-3.6,7.9-5.2s6.7-2.9,10.6-3.9c4-1,8.4-1.5,13.2-1.5s9.2,0.5,13.2,1.5s7.6,2.3,10.6,3.9
			c3.1,1.6,5.7,3.4,7.8,5.2c2.1,1.9,3.8,3.7,4.9,5.6s1.7,3.4,1.7,4.8c0,0.3-0.1,0.5-0.2,0.7c-0.1,0.2-0.4,0.3-0.8,0.3H102.8z
			 M140-33.1c4,0,7.8-0.8,11.3-2.4c3.5-1.6,6.5-3.8,9.2-6.7c2.6-2.8,4.7-6.2,6.2-9.9c1.5-3.8,2.2-7.8,2.2-12.1
			c0-4.2-0.7-8.1-2.2-11.8s-3.6-6.9-6.2-9.7c-2.7-2.8-5.7-5-9.2-6.6s-7.2-2.4-11.2-2.4s-7.7,0.8-11.2,2.4s-6.6,3.8-9.2,6.6
			c-2.7,2.8-4.7,6.1-6.2,9.8c-1.5,3.7-2.3,7.6-2.2,11.8c0,4.3,0.7,8.4,2.2,12.1c1.5,3.8,3.6,7.1,6.2,9.9c2.6,2.8,5.7,5.1,9.2,6.7
			C132.3-33.9,136-33.1,140-33.1z M140-49c-2.3,0-4.4-0.7-6.3-2c-1.9-1.3-3.5-3.1-4.6-5.4c-1.2-2.3-1.7-4.9-1.7-7.8
			c0-2.7,0.5-5.2,1.7-7.4c1.2-2.2,2.8-4,4.7-5.3s4-2,6.3-2s4.4,0.7,6.3,2c1.9,1.3,3.5,3.1,4.6,5.3c1.2,2.2,1.8,4.7,1.8,7.4
			c0,2.9-0.6,5.5-1.7,7.8c-1.2,2.3-2.7,4.1-4.6,5.4C144.5-49.7,142.4-49,140-49z M32.3,26.6h46.8c-1.6-1-3-2.4-4-4.2
			c-1.1-1.8-1.8-3.7-2.3-5.7s-0.6-4-0.3-5.8h-38c-0.4,0-0.6-0.1-0.7-0.3c-0.1-0.2-0.2-0.4-0.2-0.6c0-2.6,0.8-5.2,2.5-7.8
			c1.6-2.6,3.9-4.9,6.8-7c2.9-2.1,6.3-3.8,10.2-5c3.9-1.3,8.1-1.9,12.6-1.9c1.4,0,2.9,0.1,4.7,0.3s3.5,0.5,5.2,0.9s3.1,0.8,4.2,1.1
			c1.2-2.4,2.8-4.7,4.7-6.7c1.9-2,4.2-3.8,7-5.5c-2.5-1.2-5.2-2.2-8.2-3.1s-6-1.6-9.1-2c-3-0.5-5.9-0.7-8.5-0.7
			c-6.8,0-13.2,1.1-19.2,3.2s-11.3,5-15.8,8.7C26.1-11.8,22.6-7.6,20-2.8S16.1,7,16.1,12.3c0,4.6,1.3,8.1,4,10.6
			S26.8,26.6,32.3,26.6z M65.6-32c4.7,0,9-1.2,12.8-3.7s6.9-5.8,9.2-9.9c2.3-4.2,3.4-8.8,3.4-13.8c0-3.7-0.7-7.1-2-10.4
			c-1.3-3.3-3.1-6.1-5.5-8.6s-5-4.4-8.1-5.8s-6.3-2.1-9.8-2.1s-6.8,0.7-9.8,2.1c-3.1,1.4-5.8,3.4-8.1,5.9c-2.3,2.5-4.2,5.4-5.5,8.6
			c-1.3,3.3-2,6.7-1.9,10.4c0,5.1,1.1,9.7,3.4,13.8c2.3,4.2,5.3,7.4,9.2,9.9C56.7-33.3,60.9-32,65.6-32z M65.6-47.7
			c-1.8,0-3.4-0.5-4.8-1.6c-1.5-1-2.6-2.4-3.5-4.2s-1.3-3.8-1.3-6c0-2.1,0.4-4,1.3-5.7c0.9-1.7,2.1-3.1,3.6-4.1s3.1-1.5,4.8-1.5
			c1.7,0,3.3,0.5,4.8,1.5s2.7,2.4,3.6,4.1c0.9,1.7,1.3,3.6,1.3,5.7c0,2.2-0.4,4.3-1.3,6c-0.9,1.8-2.1,3.2-3.5,4.2
			C69-48.2,67.4-47.7,65.6-47.7z"/>
	</g>
	<g id="Heavy-L" transform="matrix(1 0 0 1 2530.99 1556)">
		<path d="M100.5,25.8h77.2c11.7,0,17.6-4.2,17.6-12.6c0-3.8-0.9-7.6-2.7-11.4s-4.3-7.5-7.6-10.9c-3.3-3.5-7.3-6.5-11.9-9.2
			c-4.6-2.7-9.8-4.8-15.5-6.4s-11.9-2.4-18.5-2.4s-12.7,0.8-18.4,2.4c-5.7,1.6-10.9,3.7-15.5,6.4s-8.6,5.8-11.9,9.2
			C89.9-5.6,87.4-2,85.6,1.8s-2.7,7.6-2.7,11.4C82.9,21.6,88.8,25.8,100.5,25.8z M100.6,11.7c-0.6,0-1-0.1-1.2-0.3s-0.3-0.6-0.3-1
			c0-1.6,0.6-3.4,1.7-5.5c1.1-2,2.8-4.1,5-6.2s5-4,8.2-5.8c3.3-1.8,7-3.2,11.2-4.3c4.2-1.1,8.8-1.6,13.9-1.6s9.7,0.5,13.9,1.6
			s7.9,2.5,11.2,4.3c3.2,1.8,6,3.7,8.2,5.8s3.9,4.2,5.1,6.2c1.2,2,1.7,3.9,1.7,5.5c0,0.4-0.1,0.8-0.3,1s-0.6,0.3-1.2,0.3H100.6z
			 M139.1-33.4c4,0,7.7-0.8,11.1-2.4c3.4-1.6,6.4-3.8,9-6.6s4.6-6.1,6.1-9.8s2.2-7.7,2.2-12c0-4.1-0.7-8-2.2-11.7
			c-1.5-3.6-3.5-6.8-6.1-9.6c-2.6-2.7-5.6-4.9-9.1-6.5c-3.4-1.6-7.1-2.3-11-2.3s-7.6,0.8-11,2.4c-3.4,1.6-6.4,3.7-9,6.5
			s-4.7,6-6.1,9.6c-1.5,3.6-2.2,7.5-2.2,11.7c0,4.3,0.7,8.2,2.2,11.9s3.5,7,6.1,9.8s5.6,5,9,6.6C131.5-34.2,135.2-33.4,139.1-33.4z
			 M139.1-47.5c-2.5,0-4.8-0.7-7-2.2c-2.1-1.4-3.8-3.4-5.1-5.9c-1.3-2.5-1.9-5.3-1.9-8.5c0-3,0.6-5.7,1.9-8.1c1.3-2.4,3-4.3,5.1-5.8
			c2.1-1.4,4.4-2.2,6.9-2.2s4.9,0.7,7,2.1s3.8,3.3,5.1,5.7c1.3,2.4,1.9,5.1,1.9,8.1c0,3.1-0.6,6-1.9,8.5c-1.3,2.5-3,4.5-5.1,6
			C144-48.2,141.7-47.5,139.1-47.5z M31.3,25.9h47.8c-1.5-0.9-2.7-2.1-3.6-3.6c-1-1.6-1.7-3.2-2.1-5s-0.6-3.5-0.4-5.2H32.7
			c-0.5,0-0.8-0.1-1-0.4c-0.2-0.2-0.3-0.6-0.3-0.9c0-3,0.9-5.9,2.6-8.8c1.7-2.9,4.2-5.4,7.3-7.7s6.7-4.1,10.8-5.5s8.5-2,13.1-2
			c1.7,0,3.6,0.1,5.6,0.4c2,0.3,3.9,0.7,5.8,1.2s3.5,1.1,4.9,1.7c1.2-2.1,2.6-4,4.3-5.8c1.7-1.8,3.7-3.4,6.1-4.8
			c-2.5-1.3-5.3-2.5-8.4-3.5c-3-1-6.1-1.7-9.3-2.2c-3.1-0.5-6.1-0.8-9-0.8C58.3-27.1,52-26,46-23.9c-5.9,2.2-11.1,5.1-15.6,8.8
			s-8,7.9-10.5,12.7s-3.8,9.8-3.8,15c0,4.3,1.3,7.6,3.8,9.9C22.4,24.7,26.2,25.9,31.3,25.9z M65.1-32.4c4.6,0,8.8-1.2,12.5-3.6
			c3.8-2.4,6.8-5.7,9-9.8s3.3-8.6,3.3-13.6c0-3.6-0.6-7-1.9-10.2s-3.1-6-5.4-8.4s-4.9-4.3-7.9-5.7c-3-1.4-6.2-2.1-9.6-2.1
			s-6.6,0.7-9.6,2.1s-5.7,3.3-7.9,5.8c-2.3,2.4-4.1,5.3-5.4,8.5c-1.3,3.2-1.9,6.6-1.9,10.2c0,5,1.1,9.5,3.4,13.6s5.2,7.3,9,9.7
			C56.4-33.6,60.5-32.4,65.1-32.4z M65.1-46.2c-2,0-3.8-0.6-5.5-1.7c-1.7-1.2-3-2.7-4-4.7s-1.5-4.2-1.5-6.7c0-2.3,0.5-4.5,1.5-6.4
			s2.3-3.4,4-4.6s3.5-1.7,5.5-1.7s3.8,0.6,5.5,1.7s3,2.6,4,4.6c1,1.9,1.5,4,1.5,6.4c0,2.5-0.5,4.7-1.5,6.7s-2.3,3.6-4,4.7
			C69-46.8,67.1-46.2,65.1-46.2z"/>
	</g>
	<g id="Bold-L" transform="matrix(1 0 0 1 2235.08 1556)">
		<path d="M98.9,25.1h78.4c11,0,16.5-3.8,16.5-11.5c0-3.6-0.9-7.3-2.6-11.1s-4.2-7.4-7.4-10.9s-7.1-6.6-11.7-9.3s-9.7-4.9-15.4-6.5
			s-11.9-2.4-18.5-2.4s-12.8,0.8-18.5,2.4s-10.8,3.8-15.4,6.5s-8.5,5.9-11.7,9.3C89.2-4.9,86.7-1.3,85,2.5s-2.6,7.5-2.6,11.1
			C82.4,21.2,87.9,25.1,98.9,25.1z M98.1,13c-0.8,0-1.4-0.1-1.7-0.4c-0.3-0.3-0.5-0.7-0.5-1.3c0-1.8,0.6-3.9,1.8-6.2
			c1.2-2.3,3-4.6,5.3-6.9s5.2-4.5,8.6-6.4s7.3-3.5,11.7-4.7c4.4-1.2,9.3-1.8,14.6-1.8s10.2,0.6,14.6,1.8c4.4,1.2,8.3,2.8,11.7,4.7
			s6.3,4.1,8.6,6.4s4.1,4.6,5.3,6.9s1.8,4.3,1.8,6.2c0,0.6-0.2,1-0.5,1.3s-0.9,0.4-1.6,0.4H98.1z M138.1-33.7
			c3.9,0,7.5-0.8,10.9-2.3c3.4-1.6,6.3-3.7,8.8-6.5s4.5-6,6-9.6c1.4-3.6,2.2-7.6,2.2-11.8c0-4.1-0.7-7.9-2.2-11.5
			c-1.4-3.6-3.4-6.7-6-9.4c-2.6-2.7-5.5-4.8-8.9-6.3s-7-2.3-10.8-2.3s-7.4,0.8-10.8,2.3c-3.4,1.5-6.3,3.7-8.9,6.4
			c-2.6,2.7-4.6,5.9-6,9.4c-1.4,3.6-2.2,7.4-2.1,11.5c0,4.2,0.7,8.1,2.2,11.7c1.4,3.6,3.4,6.8,6,9.6c2.5,2.8,5.5,4.9,8.9,6.5
			C130.6-34.5,134.2-33.7,138.1-33.7z M138.1-45.7c-2.8,0-5.3-0.8-7.7-2.4c-2.3-1.6-4.2-3.8-5.6-6.5s-2.1-5.8-2.1-9.2
			c0-3.3,0.7-6.2,2.1-8.9s3.3-4.7,5.6-6.3c2.3-1.6,4.9-2.3,7.7-2.3s5.4,0.8,7.7,2.3s4.2,3.6,5.6,6.3c1.4,2.6,2.1,5.6,2.1,8.9
			c0,3.4-0.7,6.5-2.1,9.2c-1.4,2.7-3.3,4.9-5.6,6.5S140.9-45.7,138.1-45.7z M30.2,25.1h48.9c-1.3-0.7-2.3-1.7-3.2-3.1
			c-0.9-1.3-1.5-2.7-2-4.3c-0.4-1.5-0.6-3-0.4-4.5H30.6c-0.7,0-1.1-0.1-1.4-0.4c-0.3-0.3-0.4-0.7-0.4-1.3c0-3.4,0.9-6.6,2.8-9.8
			s4.4-6,7.7-8.5s7.1-4.5,11.4-6S59.6-15,64.5-15c2.1,0,4.3,0.2,6.6,0.5c2.2,0.4,4.4,0.9,6.5,1.5c2.1,0.7,3.9,1.5,5.6,2.4
			c1.1-1.7,2.3-3.4,3.8-4.8c1.5-1.5,3.2-2.8,5.1-4.1c-2.6-1.5-5.5-2.9-8.5-4c-3.1-1.1-6.2-1.9-9.4-2.5c-3.2-0.6-6.4-0.9-9.5-0.9
			c-6.8,0-13.1,1.1-18.9,3.3c-5.9,2.2-11,5.1-15.4,8.9C26-11,22.5-6.7,20-2c-2.5,4.8-3.7,9.7-3.7,14.9c0,4,1.2,7,3.5,9.1
			S25.4,25.1,30.2,25.1z M64.6-32.8c4.5,0,8.6-1.2,12.3-3.6c3.7-2.4,6.6-5.6,8.8-9.6c2.2-4,3.3-8.5,3.3-13.4c0-3.6-0.6-6.9-1.9-10
			s-3-5.9-5.2-8.3C79.5-80,77-81.9,74-83.3c-2.9-1.4-6.1-2-9.4-2c-3.3,0-6.5,0.7-9.4,2c-2.9,1.4-5.5,3.2-7.8,5.6s-4,5.2-5.2,8.3
			s-1.9,6.5-1.9,10c0,4.9,1.1,9.4,3.3,13.4s5.1,7.2,8.8,9.6C56-34,60.1-32.8,64.6-32.8z M64.6-44.7c-2.3,0-4.3-0.6-6.2-1.9
			c-1.9-1.3-3.4-3-4.5-5.2s-1.7-4.7-1.7-7.4c0-2.6,0.6-5,1.7-7.1c1.1-2.1,2.6-3.8,4.5-5.1c1.9-1.3,4-1.9,6.2-1.9
			c2.3,0,4.3,0.6,6.2,1.9s3.4,3,4.5,5.1s1.7,4.5,1.7,7.1c0,2.8-0.6,5.3-1.7,7.5s-2.6,4-4.5,5.3C68.9-45.3,66.9-44.7,64.6-44.7z"/>
	</g>
	<g id="Semibold-L" transform="matrix(1 0 0 1 1938.93 1556)">
		<path d="M97.8,24.5H177c10.4,0,15.7-3.6,15.7-10.8c0-3.5-0.8-7.1-2.5-10.8s-4.1-7.3-7.3-10.8s-7-6.6-11.6-9.4
			c-4.5-2.8-9.6-5-15.3-6.6s-11.9-2.5-18.6-2.5c-6.7,0-12.9,0.8-18.6,2.5c-5.7,1.6-10.8,3.9-15.3,6.6C99-14.5,95.1-11.4,92-7.9
			s-5.6,7.1-7.3,10.8c-1.7,3.7-2.5,7.3-2.5,10.8C82.1,20.9,87.3,24.5,97.8,24.5z M96.4,13.9c-0.9,0-1.6-0.1-2-0.4
			c-0.4-0.3-0.6-0.8-0.6-1.5c0-2,0.6-4.2,1.9-6.7c1.2-2.5,3.1-4.9,5.5-7.4s5.4-4.7,8.9-6.8s7.6-3.7,12.1-5c4.6-1.3,9.6-1.9,15.1-1.9
			s10.6,0.6,15.1,1.9c4.6,1.3,8.6,2.9,12.1,5s6.5,4.3,8.9,6.8s4.2,4.9,5.5,7.4c1.2,2.5,1.9,4.7,1.9,6.7c0,0.7-0.2,1.2-0.6,1.5
			c-0.4,0.3-1,0.4-2,0.4H96.4z M137.4-33.9c3.8,0,7.4-0.8,10.7-2.3s6.2-3.7,8.7-6.4s4.5-5.9,5.9-9.5s2.1-7.5,2.1-11.6
			c0-4-0.7-7.8-2.1-11.3c-1.4-3.5-3.4-6.6-5.9-9.3c-2.5-2.7-5.4-4.7-8.7-6.2s-6.9-2.3-10.7-2.3s-7.3,0.8-10.6,2.3
			c-3.3,1.5-6.2,3.6-8.8,6.3c-2.5,2.7-4.5,5.8-5.9,9.3s-2.1,7.3-2.1,11.4s0.7,8,2.1,11.6s3.4,6.8,5.9,9.5s5.4,4.9,8.7,6.4
			C130-34.7,133.6-33.9,137.4-33.9z M137.4-44.5c-3,0-5.7-0.8-8.2-2.5s-4.5-4-6-6.9S121-60,121-63.6c0-3.5,0.7-6.6,2.2-9.4
			c1.5-2.8,3.5-5,6-6.7s5.2-2.5,8.2-2.5s5.7,0.8,8.2,2.5c2.5,1.6,4.5,3.8,6,6.6c1.5,2.8,2.2,5.9,2.2,9.4c0,3.6-0.7,6.9-2.2,9.8
			c-1.5,2.9-3.5,5.2-5.9,6.9C143.1-45.4,140.4-44.5,137.4-44.5z M29.4,24.6h49.7C78,24,77,23.1,76.2,22s-1.4-2.4-1.9-3.7
			c-0.4-1.4-0.6-2.7-0.5-4H29.2c-0.8,0-1.3-0.2-1.6-0.5c-0.3-0.3-0.5-0.8-0.5-1.5c0-3.6,1-7.1,2.9-10.5s4.6-6.4,8.1-9.1
			c3.4-2.7,7.4-4.8,11.8-6.3c4.5-1.6,9.2-2.3,14.2-2.3c2.4,0,4.9,0.2,7.3,0.6c2.4,0.4,4.7,1,6.9,1.8c2.2,0.8,4.2,1.7,6.1,2.8
			c1-1.5,2.1-2.9,3.4-4.2s2.8-2.5,4.5-3.6c-2.7-1.7-5.6-3.1-8.6-4.3c-3.1-1.2-6.3-2.1-9.6-2.7c-3.3-0.6-6.6-0.9-9.9-0.9
			c-6.7,0-13,1.1-18.8,3.3s-10.9,5.2-15.3,8.9s-7.8,8-10.3,12.7s-3.7,9.7-3.7,14.8c0,3.8,1.1,6.6,3.3,8.5
			C21.6,23.6,24.9,24.6,29.4,24.6z M64.2-33.1c4.4,0,8.4-1.2,12.1-3.5s6.5-5.5,8.6-9.5s3.2-8.4,3.2-13.2c0-3.5-0.6-6.8-1.9-9.9
			c-1.2-3.1-3-5.8-5.2-8.2c-2.2-2.4-4.7-4.2-7.6-5.5s-6-2-9.3-2c-3.3,0-6.4,0.7-9.3,2c-2.9,1.3-5.4,3.2-7.6,5.6
			c-2.2,2.4-3.9,5.1-5.2,8.2c-1.2,3.1-1.9,6.4-1.8,9.9c0,4.8,1.1,9.2,3.3,13.2c2.1,4,5,7.1,8.6,9.4S59.8-33.1,64.2-33.1z M64.2-43.6
			c-2.4,0-4.7-0.7-6.7-2.1c-2-1.4-3.7-3.3-4.9-5.6c-1.2-2.4-1.8-5-1.8-7.9c0-2.8,0.6-5.3,1.8-7.6c1.2-2.3,2.8-4.1,4.9-5.5
			c2-1.4,4.3-2.1,6.7-2.1c2.5,0,4.7,0.7,6.8,2s3.7,3.2,4.9,5.5s1.8,4.8,1.8,7.6c0,3-0.6,5.6-1.8,8C74.6-48.9,73-47,71-45.6
			C68.9-44.3,66.7-43.6,64.2-43.6z"/>
	</g>
	<g id="Medium-L" transform="matrix(1 0 0 1 1642.64 1556)">
		<path d="M96.9,24.2h79.8c10.1,0,15.1-3.4,15.1-10.3c0-3.4-0.8-7-2.5-10.7s-4-7.3-7.2-10.8c-3.1-3.5-7-6.6-11.4-9.5
			c-4.5-2.8-9.6-5.1-15.2-6.7c-5.7-1.7-11.9-2.5-18.6-2.5c-6.7,0-12.9,0.8-18.6,2.5s-10.8,3.9-15.2,6.7c-4.5,2.8-8.3,6-11.4,9.5
			C88.4-4.1,86-0.5,84.3,3.2c-1.6,3.7-2.5,7.3-2.5,10.7C81.9,20.7,86.9,24.2,96.9,24.2z M95.1,14.6c-1.1,0-1.8-0.2-2.2-0.5
			c-0.4-0.3-0.6-0.9-0.6-1.6c0-2.1,0.6-4.5,1.9-7.1s3.1-5.2,5.6-7.8s5.5-5,9.1-7.1c3.6-2.2,7.7-3.9,12.4-5.2c4.7-1.3,9.9-2,15.5-2
			c5.7,0,10.8,0.7,15.5,2s8.8,3.1,12.4,5.2c3.6,2.2,6.6,4.5,9.1,7.1s4.3,5.2,5.6,7.8s1.9,4.9,1.9,7.1c0,0.8-0.2,1.3-0.6,1.6
			c-0.4,0.3-1.2,0.5-2.2,0.5C178.5,14.6,95.1,14.6,95.1,14.6z M136.8-34.1c3.8,0,7.3-0.8,10.6-2.3s6.2-3.7,8.6-6.4
			c2.5-2.7,4.4-5.9,5.8-9.4c1.4-3.6,2.1-7.4,2.1-11.5c0-4-0.7-7.7-2.1-11.2c-1.4-3.5-3.4-6.6-5.8-9.2c-2.5-2.6-5.4-4.7-8.6-6.2
			c-3.3-1.5-6.8-2.2-10.5-2.2s-7.2,0.8-10.5,2.3s-6.2,3.6-8.7,6.2s-4.4,5.7-5.8,9.2s-2.1,7.2-2.1,11.3s0.7,7.9,2.1,11.4
			c1.4,3.6,3.3,6.7,5.8,9.4s5.4,4.8,8.6,6.3C129.6-34.8,133.1-34.1,136.8-34.1z M136.8-43.6c-3.1,0-6-0.9-8.5-2.7
			c-2.6-1.8-4.7-4.2-6.2-7.2c-1.6-3-2.3-6.4-2.3-10.1c0-3.6,0.7-6.9,2.3-9.8c1.6-2.9,3.6-5.2,6.2-7c2.6-1.7,5.5-2.6,8.6-2.6
			s6,0.9,8.6,2.6s4.7,4,6.2,6.9c1.6,2.9,2.3,6.2,2.3,9.8c0,3.8-0.8,7.1-2.3,10.2c-1.6,3-3.6,5.4-6.2,7.2
			C142.8-44.5,140-43.6,136.8-43.6z M28.8,24.2h50.3c-1-0.6-1.9-1.3-2.7-2.3c-0.8-1-1.4-2.1-1.8-3.3c-0.4-1.2-0.6-2.4-0.5-3.7h-46
			c-0.8,0-1.4-0.2-1.8-0.5s-0.6-0.9-0.6-1.7c0-3.8,1-7.5,3-11.1c2-3.5,4.8-6.7,8.3-9.5s7.6-5,12.2-6.6S58.7-17,63.9-17
			c2.6,0,5.2,0.2,7.8,0.7c2.5,0.4,5,1.1,7.3,1.9c2.3,0.9,4.5,1.9,6.4,3.1c0.9-1.3,2-2.5,3.2-3.6s2.5-2.2,4-3.2
			c-2.7-1.8-5.6-3.3-8.7-4.5s-6.3-2.2-9.7-2.8c-3.4-0.6-6.7-0.9-10.2-0.9c-6.7,0-13,1.1-18.8,3.3S34.3-17.8,30-14.1
			s-7.7,8-10.2,12.7c-2.4,4.7-3.7,9.7-3.7,14.8c0,3.6,1.1,6.3,3.2,8.1C21.3,23.3,24.5,24.2,28.8,24.2z M63.9-33.3
			c4.4,0,8.3-1.2,11.9-3.5s6.4-5.5,8.5-9.4s3.2-8.3,3.2-13.1c0-3.5-0.6-6.8-1.8-9.8c-1.2-3.1-2.9-5.7-5.1-8.1
			c-2.2-2.3-4.7-4.1-7.5-5.5c-2.8-1.3-5.9-2-9.2-2c-3.2,0-6.3,0.7-9.2,2s-5.4,3.2-7.5,5.5c-2.2,2.3-3.9,5-5.1,8.1
			c-1.2,3.1-1.8,6.3-1.8,9.8c0,4.8,1.1,9.1,3.2,13c2.1,3.9,5,7,8.5,9.3C55.6-34.4,59.6-33.3,63.9-33.3z M63.9-42.7
			c-2.6,0-5-0.7-7.1-2.2c-2.2-1.5-3.9-3.4-5.2-5.9s-1.9-5.3-1.9-8.3c0-2.9,0.6-5.6,1.9-8c1.3-2.4,3-4.3,5.2-5.8
			c2.2-1.4,4.5-2.2,7.1-2.2s5,0.7,7.2,2.1s3.9,3.3,5.2,5.7c1.3,2.4,1.9,5.1,1.9,8c0,3.1-0.6,5.9-1.9,8.4s-3,4.5-5.2,5.9
			C68.9-43.5,66.5-42.7,63.9-42.7z M235.1-93.2c-5.7-5.5-12.8-8.8-20.1-8.9h-0.1h-0.1c-7.2,0.1-14.3,3.2-20.1,8.9
			c-7.7,7.6-12.2,18.9-12.2,31c0,11.1,3.6,21.6,10.2,29.1c0.9,1.2,1.8,2.3,2.7,3.6c5.7,7.3,12.5,9.4,13.1,18.6c0.1,1,0.1,8,0.1,8.6
			l-0.6,18.7c0,3.7,3.1,6.7,6.8,6.8l0,0c3.7,0,6.8-3.1,6.8-6.8L221-2.3c0-0.5,0-7.5,0.1-8.6c0.8-9.3,7.6-11.4,13.1-18.6
			c1-1.3,1.9-2.4,2.7-3.6c6.6-7.5,10.2-17.9,10.2-29.1C247.4-74.3,242.9-85.6,235.1-93.2z M214.9-30.7c-11.9,0-21.5-13.5-21.5-30.1
			S203-91,214.9-91s21.5,13.5,21.5,30.1S226.8-30.7,214.9-30.7z"/>
	</g>
	<g id="Regular-L" transform="matrix(1 0 0 1 1346.48 1556)">
		<path d="M95.8,23.6h80.6c9.5,0,14.3-3.2,14.3-9.6c0-3.3-0.8-6.8-2.4-10.4c-1.6-3.7-4-7.2-7.1-10.7s-6.9-6.7-11.3-9.5
			c-4.4-2.8-9.5-5.1-15.2-6.8c-5.7-1.7-11.9-2.5-18.7-2.5s-13,0.8-18.7,2.5s-10.7,4-15.2,6.8c-4.4,2.8-8.2,6-11.3,9.5
			C87.9-3.6,85.6,0,84,3.6c-1.6,3.7-2.4,7.1-2.4,10.4C81.5,20.4,86.3,23.6,95.8,23.6z M93.5,15.5c-1.2,0-2.1-0.2-2.5-0.5
			c-0.5-0.3-0.7-1-0.7-1.8c0-2.3,0.7-4.8,2-7.5c1.3-2.8,3.2-5.5,5.7-8.3s5.6-5.3,9.4-7.5c3.7-2.3,8-4.1,12.8-5.5s10.2-2.1,16-2.1
			c5.9,0,11.2,0.7,16,2.1s9.1,3.2,12.8,5.5s6.8,4.8,9.4,7.5c2.5,2.8,4.4,5.5,5.7,8.3s2,5.3,2,7.5c0,0.9-0.2,1.5-0.7,1.8
			s-1.3,0.5-2.5,0.5H93.5z M136.1-34.3c3.7,0,7.2-0.8,10.4-2.3s6.1-3.6,8.5-6.3s4.4-5.8,5.7-9.3c1.4-3.5,2.1-7.3,2.1-11.4
			c0-3.9-0.7-7.6-2.1-11.1c-1.4-3.5-3.3-6.5-5.8-9.1s-5.3-4.6-8.5-6.1s-6.7-2.2-10.4-2.2s-7.1,0.7-10.4,2.2
			c-3.2,1.5-6.1,3.5-8.5,6.1c-2.5,2.6-4.4,5.6-5.8,9.1s-2.1,7.2-2,11.1c0,4,0.7,7.8,2.1,11.3s3.3,6.6,5.7,9.3
			c2.4,2.7,5.3,4.8,8.5,6.3C129-35,132.5-34.3,136.1-34.3z M136.1-42.4c-3.3,0-6.3-0.9-9-2.8c-2.7-1.9-4.9-4.4-6.6-7.5
			c-1.6-3.2-2.5-6.7-2.5-10.6c0-3.8,0.8-7.3,2.4-10.4s3.8-5.5,6.6-7.3s5.8-2.7,9.1-2.7s6.3,0.9,9.1,2.7c2.7,1.8,4.9,4.2,6.6,7.3
			c1.6,3.1,2.5,6.5,2.5,10.3c0,3.9-0.8,7.5-2.5,10.7c-1.6,3.2-3.8,5.7-6.6,7.6C142.5-43.4,139.5-42.4,136.1-42.4z M28,23.6h51
			c-0.9-0.5-1.7-1.1-2.4-1.9s-1.3-1.8-1.7-2.8c-0.4-1-0.6-2.1-0.5-3.2H26.8c-0.9,0-1.6-0.2-2.1-0.6c-0.4-0.4-0.6-1-0.6-1.9
			c0-4.1,1-8,3.1-11.8c2.1-3.7,5-7.1,8.6-10c3.7-2.9,7.9-5.3,12.6-7c4.7-1.7,9.7-2.5,15-2.5c2.9,0,5.7,0.2,8.4,0.7
			c2.7,0.5,5.3,1.2,7.7,2.2c2.5,1,4.8,2.2,6.9,3.6c0.9-1,1.8-2,2.8-3c1-0.9,2.1-1.9,3.3-2.7c-2.8-1.9-5.7-3.5-8.8-4.8
			c-3.1-1.3-6.4-2.3-9.8-3s-6.9-1-10.5-1c-6.7,0-12.9,1.1-18.7,3.3s-10.8,5.2-15.1,9S22-5.8,19.5-1.1c-2.4,4.7-3.6,9.6-3.6,14.7
			c0,3.4,1,5.9,3,7.5C21,22.8,24,23.6,28,23.6z M63.6-33.5c4.3,0,8.2-1.1,11.7-3.4c3.5-2.3,6.3-5.4,8.4-9.3s3.1-8.2,3.1-12.9
			c0-3.5-0.6-6.7-1.8-9.7c-1.2-3-2.9-5.7-5-8s-4.6-4.1-7.4-5.4s-5.8-1.9-9-1.9c-3.2,0-6.2,0.7-9,2s-5.3,3.1-7.4,5.4
			c-2.1,2.3-3.8,5-5,8s-1.8,6.2-1.8,9.7c0,4.7,1.1,9,3.2,12.9c2.1,3.9,4.9,6.9,8.4,9.2C55.4-34.7,59.3-33.5,63.6-33.5z M63.6-41.7
			c-2.8,0-5.3-0.8-7.6-2.3s-4.2-3.6-5.5-6.3c-1.4-2.6-2.1-5.6-2.1-8.8c0-3.1,0.7-6,2.1-8.5c1.4-2.6,3.2-4.6,5.5-6.2
			c2.3-1.5,4.9-2.3,7.6-2.3c2.8,0,5.4,0.8,7.7,2.3c2.3,1.5,4.2,3.5,5.5,6.1c1.4,2.6,2.1,5.4,2.1,8.5c0,3.3-0.7,6.3-2.1,8.9
			c-1.4,2.7-3.2,4.8-5.5,6.3C68.9-42.4,66.3-41.7,63.6-41.7z M236.4-93.2c-5.7-5.6-12.8-8.8-20.2-8.9h-0.1H216
			c-7.2,0.1-14.3,3.2-20.2,8.9c-7.8,7.6-12.3,19-12.3,31.1c0,11.1,3.6,21.7,10.2,29.2c0.9,1.2,1.8,2.3,2.7,3.6
			c5.7,7.4,12.5,9.4,13.2,18.7c0.1,1,0.1,8.1,0.1,8.6l-0.6,18.7c0,3.7,3.1,6.7,6.8,6.8l0,0c3.7,0,6.8-3.1,6.8-6.8L222.2-2
			c0-0.5,0-7.5,0.1-8.6c0.8-9.3,7.6-11.4,13.2-18.7c1-1.3,1.9-2.5,2.7-3.6c6.6-7.5,10.2-18,10.2-29.2
			C248.7-74.2,244.1-85.6,236.4-93.2z M216.1-28.6c-13,0-23.6-14.8-23.6-33.1s10.6-33.1,23.6-33.1s23.6,14.8,23.6,33.1
			S229.2-28.6,216.1-28.6z"/>
	</g>
	<g id="Light-L" transform="matrix(1 0 0 1 1050.37 1556)">
		<path d="M94.3,23h82.4c8.5,0,12.7-3,12.7-8.9c0-3.3-0.8-6.7-2.4-10.3c-1.6-3.6-3.9-7.2-7-10.6c-3.1-3.5-6.8-6.6-11.2-9.4
			c-4.4-2.8-9.4-5-15-6.7s-11.7-2.5-18.4-2.5s-12.8,0.8-18.4,2.5s-10.6,3.9-15,6.7c-4.2,2.7-8,5.8-11,9.3c-3.1,3.5-5.4,7-7,10.6
			s-2.4,7.1-2.4,10.3C81.6,20,85.9,23,94.3,23z M92.9,16.6c-1.7,0-2.9-0.2-3.6-0.7c-0.7-0.5-1-1.3-1-2.5c0-2.6,0.7-5.3,2-8.2
			c1.4-2.9,3.3-5.9,6-8.7c2.6-2.9,5.8-5.5,9.7-7.9c3.8-2.4,8.2-4.3,13.2-5.7s10.4-2.1,16.4-2.1s11.5,0.7,16.4,2.1
			c5,1.4,9.4,3.3,13.2,5.7s7.1,5,9.7,7.9c2.6,2.9,4.6,5.8,6,8.7s2,5.7,2,8.2c0,1.2-0.3,2-1,2.5c-0.7,0.5-1.9,0.7-3.6,0.7
			C178.3,16.6,92.9,16.6,92.9,16.6z M135.6-34.5c3.7,0,7.1-0.7,10.2-2.2c3.2-1.5,5.9-3.5,8.3-6.1c2.4-2.6,4.2-5.7,5.6-9.1
			c1.3-3.5,2-7.2,2-11.2c0-3.9-0.7-7.5-2-10.9c-1.4-3.4-3.2-6.4-5.6-8.9c-2.4-2.6-5.2-4.6-8.3-6s-6.5-2.2-10.1-2.2s-7,0.7-10.1,2.2
			c-3.2,1.5-5.9,3.5-8.3,6c-2.4,2.6-4.3,5.5-5.6,8.9c-1.3,3.4-2,7-2,10.9c0,4,0.7,7.7,2,11.2s3.2,6.5,5.6,9.1
			c2.4,2.6,5.1,4.7,8.3,6.1C128.6-35.2,132-34.5,135.6-34.5z M135.6-40.8c-3.6,0-6.9-1-9.8-3c-2.9-2-5.3-4.7-7-8
			c-1.8-3.4-2.6-7.1-2.6-11.3c0-4,0.8-7.7,2.6-11c1.8-3.3,4.1-5.9,7.1-7.9c3-1.9,6.2-2.9,9.8-2.9c3.6,0,6.8,1,9.8,2.9
			c2.9,1.9,5.3,4.5,7.1,7.8s2.6,6.9,2.6,10.9c0,4.2-0.9,8-2.6,11.4s-4.1,6.1-7,8.1C142.5-41.8,139.2-40.8,135.6-40.8z M26.9,23H80
			c-0.7-0.4-1.3-0.8-1.9-1.5c-0.6-0.6-1.1-1.4-1.5-2.2c-0.4-0.8-0.6-1.6-0.6-2.5H26.1c-1.4,0-2.3-0.3-2.9-0.8s-0.9-1.4-0.9-2.7
			c0-4.4,1.1-8.5,3.2-12.5s5.1-7.4,8.9-10.5s8.1-5.5,13-7.2c4.9-1.8,10.1-2.6,15.6-2.6c3.3,0,6.5,0.3,9.5,0.9s5.9,1.5,8.6,2.7
			s5.2,2.6,7.6,4.4c0.7-0.8,1.4-1.5,2.2-2.3c0.8-0.7,1.6-1.4,2.5-2.1c-2.8-2.1-5.8-3.9-9.1-5.4c-3.2-1.4-6.7-2.5-10.2-3.3
			s-7.3-1.1-11.1-1.1c-6.8,0-13.1,1.1-18.8,3.4c-5.7,2.2-10.7,5.2-14.9,9s-7.4,8-9.7,12.6s-3.5,9.4-3.5,14.3c0,3.2,0.9,5.5,2.7,7.1
			C20.5,22.2,23.2,23,26.9,23z M63.1-33.5c4.2,0,8.1-1.1,11.5-3.3s6.2-5.2,8.2-9.1c2-3.8,3-8.1,3-12.7c0-3.4-0.6-6.5-1.8-9.5
			c-1.2-3-2.8-5.6-4.9-7.8c-2.1-2.3-4.5-4-7.2-5.3s-5.7-1.9-8.8-1.9c-3.1,0-6.1,0.6-8.8,1.9c-2.8,1.3-5.2,3.1-7.3,5.3
			c-2.1,2.3-3.7,4.9-4.9,7.9s-1.8,6.1-1.7,9.5c0,4.7,1.1,8.9,3.1,12.7s4.7,6.8,8.1,9C55-34.6,58.8-33.5,63.1-33.5z M63.1-39.8
			c-3,0-5.8-0.8-8.3-2.5s-4.5-3.9-5.9-6.7c-1.5-2.8-2.2-6-2.2-9.6c0-3.3,0.7-6.4,2.2-9.2c1.5-2.8,3.5-5,6-6.7s5.3-2.5,8.3-2.5
			s5.8,0.8,8.3,2.5c2.5,1.6,4.5,3.9,6,6.6c1.5,2.8,2.2,5.8,2.2,9.2c0,3.6-0.7,6.8-2.2,9.6c-1.5,2.8-3.5,5.1-6,6.8
			C68.9-40.6,66.1-39.8,63.1-39.8z"/>
	</g>
	<g id="Thin-L" transform="matrix(1 0 0 1 754.459 1556)">
		<path d="M92.4,22.1h84.9c7.1,0,10.6-2.7,10.6-8c0-3.2-0.8-6.7-2.4-10.2c-1.6-3.6-3.9-7.1-6.9-10.5s-6.7-6.5-11-9.2
			s-9.2-4.9-14.7-6.5s-11.5-2.4-18.1-2.4c-6.5,0-12.5,0.8-18,2.4s-10.4,3.8-14.7,6.5c-4.3,2.7-8,5.8-11,9.2s-5.3,6.9-6.9,10.5
			s-2.4,7-2.4,10.2C81.8,19.4,85.3,22.1,92.4,22.1z M92.1,18.2c-2.4,0-4.1-0.3-5-1c-0.9-0.6-1.3-1.7-1.3-3.3c0-2.9,0.7-6,2.1-9.2
			s3.5-6.3,6.3-9.4s6.1-5.8,10.1-8.3s8.5-4.4,13.7-5.9c5.1-1.5,10.8-2.2,16.9-2.2c6.2,0,11.8,0.7,16.9,2.2c5.1,1.5,9.7,3.4,13.7,5.9
			s7.4,5.2,10.1,8.3c2.7,3.1,4.8,6.2,6.3,9.4c1.4,3.2,2.1,6.3,2.1,9.2c0,1.6-0.5,2.7-1.4,3.3c-0.9,0.6-2.6,1-5,1
			C177.6,18.2,92.1,18.2,92.1,18.2z M134.9-34.7c3.6,0,6.9-0.7,10-2.1c3.1-1.4,5.7-3.4,8-5.9s4.1-5.5,5.4-8.9s1.9-7.1,1.9-11
			c0-3.8-0.7-7.3-2-10.6c-1.3-3.3-3.1-6.2-5.4-8.7c-2.3-2.5-5-4.5-8-5.9s-6.3-2.1-9.8-2.1s-6.8,0.7-9.8,2.2
			c-3.1,1.4-5.8,3.4-8.1,5.9c-2.3,2.5-4.1,5.4-5.4,8.7c-1.3,3.3-1.9,6.8-1.9,10.6c0,4,0.7,7.6,2,11s3.1,6.4,5.3,8.9
			c2.3,2.5,4.9,4.5,8,5.9C128.1-35.4,131.4-34.7,134.9-34.7z M134.9-38.6c-4,0-7.6-1.1-10.8-3.2c-3.2-2.1-5.8-5-7.7-8.7
			c-1.9-3.6-2.8-7.7-2.8-12.3c-0.1-4.3,0.9-8.2,2.8-11.8s4.5-6.4,7.8-8.6c3.2-2.1,6.8-3.2,10.7-3.2s7.5,1.1,10.7,3.2s5.8,5,7.7,8.5
			c1.9,3.6,2.9,7.5,2.9,11.8c0,4.6-0.9,8.7-2.8,12.3c-1.9,3.6-4.4,6.5-7.7,8.7C142.5-39.6,138.9-38.6,134.9-38.6z M25.3,22.1h55.9
			c-0.4-0.2-0.9-0.5-1.3-0.9s-0.8-0.8-1.2-1.3c-0.4-0.5-0.6-1-0.8-1.6H25.2c-1.9,0-3.3-0.4-4.1-1.1s-1.2-2-1.2-3.7
			c0-4.7,1.1-9.2,3.3-13.4s5.3-7.9,9.2-11.1s8.4-5.8,13.5-7.6s10.5-2.7,16.3-2.8c3.8,0,7.4,0.4,10.9,1.1s6.8,1.8,9.8,3.3
			c3.1,1.5,5.9,3.3,8.4,5.5c0.5-0.5,0.9-0.9,1.4-1.3c0.5-0.4,1-0.8,1.5-1.3c-2.9-2.4-6-4.4-9.4-6.1c-3.4-1.6-7-2.9-10.8-3.7
			c-3.8-0.8-7.7-1.3-11.8-1.3c-7,0-13.4,1.1-19.1,3.4s-10.5,5.3-14.6,9c-4,3.8-7.1,7.9-9.3,12.5S16.1,9,16.1,13.6
			c0,2.9,0.8,5,2.3,6.4S22.2,22.1,25.3,22.1z M62.4-33.4c4.2,0,7.9-1.1,11.2-3.2s6-5.1,7.9-8.8s2.9-7.9,2.9-12.5
			c0-3.3-0.6-6.3-1.7-9.2c-1.2-2.9-2.7-5.4-4.8-7.6c-2-2.2-4.4-3.9-7-5.2c-2.7-1.3-5.5-1.9-8.5-1.9s-5.9,0.6-8.6,1.9
			c-2.7,1.3-5,3-7,5.2s-3.6,4.8-4.7,7.7c-1.1,2.9-1.7,6-1.7,9.2c0.1,4.6,1,8.8,3,12.5s4.5,6.6,7.8,8.8
			C54.5-34.5,58.3-33.4,62.4-33.4z M62.4-37.3c-3.4,0-6.5-0.9-9.3-2.7c-2.7-1.8-4.9-4.3-6.5-7.4c-1.6-3.1-2.4-6.6-2.4-10.5
			c0-3.6,0.8-7,2.4-10c1.6-3.1,3.8-5.5,6.6-7.3C55.9-77,59-78,62.3-78s6.4,0.9,9.1,2.7c2.8,1.8,5,4.3,6.6,7.3s2.5,6.4,2.5,10.1
			c0,3.9-0.8,7.5-2.4,10.6s-3.8,5.5-6.5,7.4C68.9-38.2,65.8-37.3,62.4-37.3z"/>
	</g>
	<g id="Ultralight-L" transform="matrix(1 0 0 1 458.158 1556)">
		<path d="M91.4,21.6h86.2c6.4,0,9.5-2.5,9.5-7.6c0-3.2-0.8-6.6-2.3-10.2c-1.6-3.6-3.8-7-6.9-10.4c-3-3.4-6.6-6.4-10.9-9.1
			c-4.3-2.7-9.2-4.9-14.6-6.5c-5.5-1.6-11.4-2.4-17.9-2.4s-12.4,0.8-17.9,2.4c-5.4,1.6-10.3,3.8-14.6,6.5c-4.3,2.7-8,5.8-11,9.1
			c-3,3.4-5.3,6.8-6.8,10.4c-1.6,3.6-2.3,6.9-2.3,10.2C81.8,19.1,85,21.6,91.4,21.6z M91.6,19c-2.8,0-4.7-0.4-5.7-1.1
			s-1.5-2-1.5-3.8c0-3.1,0.7-6.3,2.2-9.7s3.6-6.6,6.4-9.7s6.3-6,10.3-8.5c4.1-2.5,8.7-4.5,13.9-6c5.2-1.5,11-2.2,17.2-2.2
			c6.3,0,12,0.7,17.2,2.2s9.9,3.5,13.9,6c4.1,2.5,7.5,5.4,10.3,8.5s4.9,6.4,6.4,9.7s2.2,6.6,2.2,9.7c0,1.8-0.5,3-1.6,3.8
			c-1,0.7-2.9,1.1-5.7,1.1H91.6z M134.6-34.9c3.5,0,6.8-0.7,9.8-2.1c3-1.4,5.6-3.3,7.9-5.8c2.2-2.5,4-5.4,5.2-8.8
			c1.2-3.3,1.9-7,1.9-10.9c0-3.7-0.6-7.2-1.9-10.4s-3.1-6.2-5.4-8.6c-2.3-2.5-4.9-4.5-7.9-5.9s-6.2-2.1-9.6-2.1
			c-3.4,0-6.7,0.7-9.7,2.1s-5.7,3.4-7.9,5.9c-2.3,2.5-4.1,5.4-5.3,8.7c-1.3,3.3-1.9,6.8-1.9,10.5c0.1,3.9,0.7,7.6,2,10.9
			c1.2,3.3,3,6.3,5.2,8.8s4.8,4.5,7.8,5.8C127.8-35.6,131.1-34.9,134.6-34.9z M134.6-37.4c-4.2,0-8-1.1-11.3-3.3c-3.4-2.2-6-5.2-8-9
			s-2.9-8-2.9-12.8c-0.1-4.4,0.9-8.5,2.9-12.2s4.7-6.7,8.1-8.9c3.4-2.2,7.1-3.3,11.2-3.3s7.8,1.1,11.2,3.3c3.4,2.2,6.1,5.2,8.1,8.9
			c2,3.7,3,7.8,3,12.2c0,4.8-1,9-2.9,12.8c-2,3.8-4.6,6.8-8,9C142.6-38.5,138.8-37.4,134.6-37.4z M24.5,21.6h57.4
			c-0.3-0.2-0.6-0.3-1-0.6s-0.7-0.5-1-0.9c-0.3-0.3-0.7-0.7-0.9-1.1H24.8c-2.2,0-3.8-0.4-4.7-1.3c-0.9-0.8-1.4-2.3-1.4-4.2
			c0-4.9,1.1-9.5,3.4-13.8s5.4-8.2,9.4-11.5s8.6-5.9,13.8-7.8s10.8-2.8,16.6-2.8c4,0,7.9,0.4,11.6,1.2c3.7,0.8,7.2,2,10.4,3.6
			c3.3,1.6,6.2,3.6,8.9,6c0.3-0.3,0.7-0.6,1-0.8s0.6-0.5,0.9-0.8c-2.9-2.6-6.1-4.7-9.6-6.4c-3.5-1.7-7.2-3.1-11.1-4s-8-1.3-12.2-1.3
			c-7.1,0-13.5,1.1-19.2,3.4s-10.5,5.3-14.4,9.1c-4,3.8-7,7.9-9.1,12.4S16,9,16,13.5c0,2.7,0.7,4.8,2.1,6.1
			C19.6,20.9,21.7,21.6,24.5,21.6z M62.1-33.4c4.1,0,7.8-1,11.1-3.1s5.9-5,7.8-8.6s2.9-7.8,2.9-12.4c0-3.2-0.6-6.2-1.7-9.1
			c-1.1-2.9-2.7-5.4-4.7-7.6s-4.3-3.9-6.9-5.1s-5.4-1.9-8.4-1.9s-5.8,0.6-8.5,1.9c-2.6,1.2-4.9,2.9-6.9,5.1s-3.5,4.7-4.6,7.6
			s-1.7,5.9-1.6,9.1c0.1,4.6,1,8.7,2.9,12.4c1.9,3.6,4.5,6.5,7.7,8.6S58-33.4,62.1-33.4z M62.1-36c-3.6,0-6.9-0.9-9.7-2.8
			c-2.9-1.9-5.1-4.4-6.8-7.7c-1.7-3.2-2.5-6.9-2.5-11c0-3.8,0.9-7.3,2.6-10.5c1.7-3.2,4-5.8,6.9-7.7c2.9-1.9,6.1-2.9,9.6-2.9
			s6.6,1,9.5,2.9s5.2,4.5,6.9,7.6c1.7,3.2,2.6,6.7,2.6,10.5c0,4.1-0.8,7.8-2.5,11s-3.9,5.8-6.8,7.7C68.9-37,65.7-36,62.1-36z"/>
	</g>
	<g id="Black-M" transform="matrix(1 0 0 1 2850.51 1126)">
		<path d="M79.7,12.9h58.8c9.8,0,14.7-3.6,14.7-10.9c0-4-1.1-7.9-3.4-11.6c-2.2-3.7-5.4-7.1-9.4-10.1s-8.7-5.3-14-7.1
			c-5.4-1.7-11.2-2.6-17.4-2.6c-6.2,0-12,0.9-17.4,2.6s-10,4.1-14,7.1s-7.1,6.3-9.4,10.1C66.1-5.9,65-2,65,2
			C65,9.3,69.9,12.9,79.7,12.9z M81.4-0.3c-0.3,0-0.5-0.1-0.6-0.2c-0.1-0.2-0.1-0.3-0.1-0.5c0-1.3,0.7-2.8,2-4.4
			c1.3-1.7,3.2-3.3,5.6-4.9c2.5-1.6,5.5-2.9,9-4s7.5-1.6,11.9-1.6c4.5,0,8.5,0.5,12,1.6s6.5,2.4,9,4c2.5,1.6,4.3,3.2,5.6,4.9
			s2,3.2,2,4.4c0,0.2,0,0.4-0.1,0.5c-0.1,0.2-0.3,0.2-0.6,0.2H81.4z M109.1-33.4c4.2,0,8.1-1.1,11.5-3.3s6.1-5.1,8.1-8.8
			s3-7.8,3-12.3c0-4.4-1-8.4-3.1-12c-2-3.6-4.8-6.5-8.2-8.7c-3.4-2.2-7.2-3.3-11.4-3.3c-4.1,0-7.9,1.1-11.3,3.3
			c-3.4,2.2-6.2,5.1-8.2,8.7c-2.1,3.6-3.1,7.6-3,12c0,4.5,1,8.6,3,12.3s4.7,6.6,8.1,8.8C101.1-34.5,104.9-33.4,109.1-33.4z
			 M109.1-46.7c-1.7,0-3.2-0.5-4.6-1.4c-1.4-1-2.5-2.3-3.4-4c-0.8-1.7-1.3-3.6-1.3-5.7c0-2,0.4-3.7,1.2-5.3c0.9-1.6,2-2.9,3.4-3.9
			s2.9-1.4,4.6-1.4s3.2,0.5,4.6,1.4s2.5,2.3,3.4,3.9c0.8,1.6,1.3,3.4,1.3,5.4c0,2.1-0.4,4-1.2,5.7c-0.8,1.7-1.9,3-3.3,4
			C112.4-47.2,110.9-46.7,109.1-46.7z M25.4,13h36.2c-2-1.3-3.5-3.2-4.4-5.8s-1.3-5-1-7.3H28c-0.3,0-0.5-0.1-0.6-0.2
			c-0.1-0.2-0.1-0.3-0.1-0.5c0-1.9,0.6-3.7,1.8-5.5c1.2-1.8,2.9-3.5,5-5c2.2-1.5,4.7-2.7,7.6-3.6s6-1.4,9.4-1.4
			c0.8,0,1.9,0.1,3.2,0.2c1.3,0.2,2.6,0.4,3.8,0.6s2.2,0.5,3,0.7c1-2.1,2.3-3.9,3.8-5.6c1.6-1.7,3.5-3.2,5.9-4.6
			c-1.9-0.8-4-1.5-6.3-2.2c-2.3-0.7-4.7-1.2-7-1.5c-2.3-0.4-4.5-0.5-6.3-0.5c-5.4,0-10.4,0.8-15.1,2.5c-4.7,1.6-8.8,3.9-12.3,6.8
			s-6.3,6.1-8.3,9.8s-3,7.5-3,11.6c0,3.7,1.1,6.6,3.2,8.6C17.9,12,21.1,13,25.4,13z M51.1-32.4c3.7,0,7-1,10-2.9s5.4-4.5,7.2-7.7
			c1.8-3.2,2.7-6.9,2.7-10.9c0-3.8-0.9-7.4-2.7-10.6c-1.8-3.2-4.2-5.8-7.2-7.7c-3-1.9-6.3-2.9-9.9-2.9s-7,1-10,2.9s-5.4,4.5-7.2,7.7
			c-1.8,3.2-2.7,6.7-2.7,10.6c0,4,0.9,7.6,2.7,10.9c1.8,3.2,4.2,5.8,7.2,7.7C44.1-33.4,47.4-32.4,51.1-32.4z M51.1-45.5
			c-1.2,0-2.4-0.4-3.4-1.1c-1-0.7-1.9-1.7-2.5-3s-0.9-2.7-0.9-4.3c0-1.5,0.3-2.9,0.9-4.1c0.6-1.2,1.5-2.2,2.5-2.9
			c1.1-0.7,2.2-1.1,3.4-1.1s2.3,0.4,3.3,1.1c1,0.7,1.9,1.7,2.5,2.9c0.7,1.2,1,2.6,1,4c0,1.6-0.3,3.1-0.9,4.3c-0.6,1.3-1.4,2.3-2.5,3
			S52.4-45.5,51.1-45.5z"/>
	</g>
	<g id="Heavy-M" transform="matrix(1 0 0 1 2554.38 1126)">
		<path d="M78.6,12.4H138c9.4,0,14.1-3.4,14.1-10.2c0-3.8-1.1-7.6-3.3-11.3s-5.2-7.1-9.2-10.1c-3.9-3-8.6-5.5-13.9-7.3
			c-5.3-1.8-11.2-2.7-17.5-2.7s-12.1,0.9-17.5,2.7c-5.3,1.8-10,4.2-13.9,7.3c-3.9,3-7,6.4-9.2,10.1s-3.3,7.5-3.3,11.3
			C64.6,9,69.2,12.4,78.6,12.4z M79.4,0.5c-0.4,0-0.7-0.1-0.8-0.3c-0.1-0.2-0.2-0.4-0.2-0.7c0-1.4,0.7-3.1,2-5s3.3-3.8,5.9-5.6
			s5.7-3.3,9.4-4.5c3.7-1.2,7.9-1.8,12.6-1.8s9,0.6,12.7,1.8s6.9,2.7,9.4,4.5c2.6,1.8,4.5,3.6,5.9,5.6c1.4,1.9,2,3.6,2,5
			c0,0.3-0.1,0.5-0.2,0.7c-0.1,0.2-0.4,0.3-0.8,0.3C137.3,0.5,79.4,0.5,79.4,0.5z M108.3-33.6c4.1,0,7.9-1.1,11.3-3.2
			c3.4-2.2,6-5.1,8-8.7c2-3.6,3-7.7,3-12.1c0-4.3-1-8.3-3-11.8c-2-3.6-4.7-6.4-8-8.6c-3.4-2.1-7.1-3.2-11.2-3.2s-7.8,1.1-11.2,3.2
			c-3.4,2.1-6.1,5-8.1,8.6s-3,7.5-3,11.9s1,8.5,3,12.1s4.7,6.5,8,8.7C100.5-34.7,104.2-33.6,108.3-33.6z M108.3-45.5
			c-1.8,0-3.5-0.5-5.1-1.6c-1.5-1.1-2.8-2.5-3.7-4.3c-0.9-1.8-1.4-3.9-1.4-6.2c0-2.2,0.4-4.1,1.4-5.9c0.9-1.8,2.2-3.2,3.7-4.2
			c1.6-1,3.2-1.6,5.1-1.6c1.8,0,3.5,0.5,5.1,1.6c1.6,1,2.8,2.5,3.7,4.2c0.9,1.8,1.4,3.7,1.4,5.9c0,2.3-0.5,4.4-1.4,6.2
			s-2.1,3.3-3.7,4.4C111.9-46,110.2-45.5,108.3-45.5z M24.7,12.5h36.7c-1.8-1.1-3.2-2.8-4-5.1c-0.9-2.3-1.2-4.5-1-6.6h-30
			c-0.4,0-0.6-0.1-0.7-0.3s-0.2-0.4-0.2-0.6c0-2.1,0.6-4.2,1.9-6.3s3.1-3.9,5.4-5.6s5-3,8-4c3.1-1,6.4-1.5,9.9-1.5
			c1.1,0,2.4,0.1,3.9,0.3c1.4,0.2,2.9,0.5,4.2,0.8c1.4,0.3,2.5,0.7,3.4,1.1c0.9-1.8,2.1-3.5,3.5-5c1.4-1.5,3.2-2.9,5.2-4.1
			c-1.9-1-4.1-1.8-6.4-2.5c-2.3-0.7-4.7-1.3-7.1-1.7c-2.4-0.4-4.6-0.6-6.7-0.6c-5.3,0-10.3,0.8-14.9,2.5s-8.7,3.9-12.2,6.8
			s-6.2,6.2-8.2,9.8c-2,3.7-3,7.6-3,11.6c0,3.5,1,6.2,3.1,8C17.6,11.5,20.6,12.5,24.7,12.5z M50.8-32.8c3.6,0,6.9-0.9,9.8-2.8
			c3-1.9,5.3-4.4,7.1-7.6c1.7-3.2,2.6-6.8,2.6-10.7c0-3.8-0.9-7.3-2.7-10.4c-1.8-3.1-4.1-5.7-7.1-7.5c-3-1.9-6.2-2.8-9.8-2.8
			s-6.8,0.9-9.8,2.8s-5.3,4.4-7.1,7.6c-1.8,3.2-2.6,6.6-2.6,10.4c0,3.9,0.9,7.5,2.7,10.7c1.7,3.2,4.1,5.7,7,7.6
			C43.8-33.7,47.1-32.8,50.8-32.8z M50.8-44.5c-1.4,0-2.7-0.4-3.9-1.2s-2.1-2-2.9-3.4s-1.1-3-1.1-4.8c0-1.7,0.3-3.2,1-4.6
			c0.7-1.4,1.7-2.5,2.9-3.3s2.5-1.2,3.9-1.2s2.7,0.4,3.9,1.2s2.2,1.9,2.9,3.3c0.7,1.4,1.1,2.9,1.1,4.6c0,1.8-0.4,3.4-1.1,4.9
			c-0.7,1.4-1.7,2.6-2.9,3.4C53.5-44.9,52.2-44.5,50.8-44.5z"/>
	</g>
	<g id="Bold-M" transform="matrix(1 0 0 1 2258.31 1126)">
		<path d="M77.4,11.9h60.1c8.9,0,13.4-3.1,13.4-9.4c0-3.6-1.1-7.2-3.1-10.9c-2.1-3.7-5.1-7.1-8.9-10.1s-8.4-5.6-13.7-7.5
			s-11.2-2.8-17.6-2.8S95.3-27.9,90-26c-5.3,1.9-9.9,4.4-13.7,7.5c-3.8,3.1-6.8,6.5-8.9,10.1c-2.1,3.7-3.1,7.3-3.1,10.9
			C64.1,8.7,68.5,11.9,77.4,11.9z M77.1,1.5c-0.5,0-0.8-0.1-1-0.3s-0.3-0.4-0.3-0.8c0-1.6,0.7-3.5,2.1-5.7s3.5-4.2,6.2-6.3
			c2.7-2,6-3.7,9.9-5c3.9-1.3,8.4-2,13.4-2s9.5,0.7,13.4,2c3.9,1.3,7.3,3,10,5s4.8,4.1,6.2,6.3s2.1,4,2.1,5.7c0,0.4-0.1,0.6-0.3,0.8
			s-0.5,0.3-1,0.3C137.8,1.5,77.1,1.5,77.1,1.5z M107.5-33.9c4.1,0,7.7-1.1,11-3.2c3.3-2.1,5.9-5,7.9-8.6c2-3.6,2.9-7.5,2.9-11.9
			c0-4.3-1-8.1-2.9-11.6c-2-3.5-4.6-6.3-7.9-8.4s-7-3.1-11-3.1s-7.7,1-11,3.1s-5.9,4.9-7.9,8.4s-3,7.4-2.9,11.7
			c0,4.3,1,8.3,2.9,11.9c2,3.6,4.6,6.4,7.9,8.5C99.8-34.9,103.4-33.9,107.5-33.9z M107.5-44.2c-2,0-3.9-0.6-5.6-1.8
			s-3.1-2.8-4.1-4.8s-1.6-4.3-1.6-6.8c0-2.4,0.5-4.6,1.5-6.5s2.4-3.5,4.1-4.6s3.6-1.7,5.6-1.7c2.1,0,3.9,0.6,5.6,1.7
			s3.1,2.7,4.1,4.6s1.5,4.1,1.5,6.5c0,2.5-0.5,4.7-1.5,6.8c-1,2-2.4,3.6-4.1,4.8C111.4-44.8,109.5-44.2,107.5-44.2z M23.9,11.9h37.3
			c-1.6-1-2.8-2.4-3.6-4.4s-1.1-3.9-1-5.8h-32c-0.4,0-0.7-0.1-0.9-0.3c-0.2-0.2-0.2-0.4-0.2-0.7c0-2.4,0.7-4.8,2.1-7.1
			s3.3-4.4,5.8-6.3s5.3-3.3,8.6-4.4c3.2-1.1,6.7-1.6,10.4-1.6c1.4,0,3,0.1,4.6,0.4c1.6,0.2,3.2,0.6,4.7,1s2.8,0.9,4,1.5
			c0.9-1.5,1.9-2.9,3.2-4.2c1.2-1.3,2.7-2.5,4.5-3.5c-2-1.1-4.2-2.1-6.5-2.8s-4.7-1.4-7.2-1.8c-2.4-0.4-4.8-0.6-7.1-0.6
			c-5.2,0-10.1,0.8-14.7,2.5s-8.6,4-12.1,6.8s-6.2,6.2-8.1,9.9c-2,3.7-2.9,7.6-2.9,11.6c0,3.2,1,5.7,2.9,7.4
			C17.2,11,20.1,11.9,23.9,11.9z M50.3-33.2c3.5,0,6.7-0.9,9.6-2.8c2.9-1.9,5.2-4.4,6.9-7.5c1.7-3.1,2.6-6.6,2.6-10.5
			c0-3.7-0.9-7.1-2.6-10.2s-4-5.5-6.9-7.4c-2.9-1.8-6.1-2.8-9.6-2.8s-6.7,0.9-9.6,2.8c-2.9,1.9-5.2,4.3-6.9,7.4s-2.6,6.5-2.6,10.2
			c0,3.8,0.9,7.3,2.6,10.5c1.7,3.1,4,5.6,6.9,7.5C43.6-34.1,46.8-33.2,50.3-33.2z M50.3-43.4c-1.6,0-3.1-0.5-4.5-1.4
			s-2.4-2.2-3.3-3.8c-0.8-1.6-1.2-3.4-1.2-5.4c0-1.9,0.4-3.6,1.2-5.2c0.8-1.6,1.9-2.8,3.3-3.7c1.4-0.9,2.9-1.4,4.5-1.4
			s3.1,0.5,4.5,1.4s2.4,2.1,3.3,3.7c0.8,1.5,1.2,3.3,1.2,5.1c0,2-0.4,3.8-1.2,5.4s-1.9,2.9-3.3,3.8S52-43.4,50.3-43.4z"/>
	</g>
	<g id="Semibold-M" transform="matrix(1 0 0 1 1962.05 1126)">
		<path d="M76.6,11.5h60.5c8.6,0,12.9-2.9,12.9-8.8c0-3.4-1-7-3.1-10.6c-2-3.6-5-7-8.8-10.2c-3.8-3.1-8.3-5.7-13.6-7.6
			c-5.3-1.9-11.2-2.9-17.7-2.9c-6.5,0-12.4,1-17.7,2.9c-5.3,1.9-9.8,4.5-13.6,7.6C71.8-15,68.8-11.6,66.8-8s-3.1,7.2-3.1,10.6
			C63.7,8.5,68,11.5,76.6,11.5z M75.5,2.2c-0.5,0-0.9-0.1-1.1-0.3S74.1,1.4,74.1,1c0-1.8,0.7-3.8,2.2-6.1c1.4-2.3,3.6-4.6,6.4-6.7
			c2.8-2.2,6.2-4,10.3-5.4c4.1-1.4,8.7-2.2,13.9-2.2c5.2,0,9.9,0.7,14,2.2s7.5,3.2,10.3,5.4s4.9,4.4,6.4,6.7
			c1.4,2.3,2.2,4.4,2.2,6.1c0,0.4-0.1,0.7-0.3,0.9s-0.6,0.3-1.2,0.3C138.3,2.2,75.5,2.2,75.5,2.2z M106.9-34.1c4,0,7.6-1.1,10.9-3.2
			c3.3-2.1,5.9-4.9,7.8-8.5c1.9-3.5,2.9-7.5,2.9-11.8c0-4.2-1-8.1-2.9-11.5c-1.9-3.5-4.5-6.2-7.8-8.2s-6.9-3.1-10.9-3.1
			s-7.6,1-10.8,3.1c-3.3,2.1-5.9,4.8-7.8,8.3c-2,3.5-2.9,7.3-2.9,11.5c0,4.3,1,8.2,2.9,11.7s4.5,6.3,7.8,8.4
			C99.3-35.1,102.9-34.1,106.9-34.1z M106.9-43.3c-2.1,0-4.1-0.6-5.9-1.9c-1.8-1.2-3.3-2.9-4.4-5.1c-1.1-2.1-1.7-4.5-1.7-7.2
			c0-2.6,0.5-4.9,1.6-6.9c1.1-2.1,2.5-3.7,4.4-4.9c1.8-1.2,3.8-1.8,6-1.8s4.2,0.6,6,1.8s3.3,2.8,4.3,4.9c1.1,2.1,1.6,4.4,1.6,6.9
			c0,2.6-0.5,5-1.6,7.2c-1.1,2.1-2.5,3.8-4.3,5.1S109.1-43.3,106.9-43.3z M23.3,11.5H61c-1.4-0.8-2.6-2.1-3.4-3.9
			c-0.8-1.7-1.1-3.5-0.9-5.2H23.4c-0.5,0-0.8-0.1-1-0.3s-0.3-0.5-0.3-0.8c0-2.7,0.7-5.2,2.2-7.7s3.5-4.7,6-6.7
			c2.6-2,5.5-3.6,8.9-4.7c3.4-1.2,6.9-1.8,10.8-1.8c1.7,0,3.4,0.1,5.1,0.4c1.7,0.3,3.4,0.7,4.9,1.2c1.6,0.5,3,1.1,4.4,1.8
			c0.8-1.3,1.8-2.5,2.9-3.7c1.1-1.1,2.4-2.2,3.9-3.1c-2-1.2-4.2-2.2-6.6-3.1c-2.4-0.8-4.8-1.5-7.2-1.9c-2.5-0.4-4.9-0.7-7.4-0.7
			c-5.2,0-10.1,0.8-14.6,2.5s-8.5,4-12,6.9c-3.4,2.9-6.1,6.2-8.1,9.9c-1.9,3.7-2.9,7.6-2.9,11.6c0,3,0.9,5.3,2.7,6.9
			C17,10.7,19.7,11.5,23.3,11.5z M50.1-33.5c3.5,0,6.6-0.9,9.5-2.8c2.8-1.8,5.1-4.3,6.8-7.4s2.5-6.6,2.5-10.4c0-3.7-0.8-7-2.5-10.1
			c-1.7-3-4-5.5-6.8-7.3s-6-2.7-9.5-2.7c-3.4,0-6.6,0.9-9.5,2.7c-2.9,1.8-5.1,4.3-6.8,7.3s-2.5,6.4-2.5,10.1c0,3.8,0.9,7.2,2.6,10.3
			s4,5.6,6.8,7.4C43.4-34.4,46.6-33.5,50.1-33.5z M50.1-42.6c-1.7,0-3.4-0.5-4.8-1.5c-1.5-1-2.7-2.4-3.5-4.1
			c-0.9-1.7-1.3-3.6-1.3-5.7c0-2,0.4-3.9,1.3-5.6s2.1-3,3.5-4c1.5-1,3.1-1.5,4.9-1.5c1.8,0,3.4,0.5,4.9,1.5s2.7,2.3,3.5,3.9
			c0.9,1.7,1.3,3.5,1.3,5.5c0,2.1-0.4,4.1-1.3,5.8c-0.9,1.7-2.1,3.1-3.6,4.1C53.4-43.1,51.8-42.6,50.1-42.6z"/>
	</g>
	<g id="Medium-M" transform="matrix(1 0 0 1 1665.67 1126)">
		<path d="M75.9,11.2h60.9c8.3,0,12.5-2.8,12.5-8.4c0-3.3-1-6.8-3-10.5c-2-3.6-4.9-7-8.6-10.2c-3.8-3.2-8.3-5.7-13.5-7.7
			c-5.3-2-11.2-3-17.8-3c-6.5,0-12.4,1-17.7,3c-5.3,2-9.8,4.5-13.5,7.7c-3.8,3.2-6.6,6.6-8.6,10.2s-3,7.1-3,10.5
			C63.5,8.4,67.6,11.2,75.9,11.2z M74.3,2.7c-0.6,0-1-0.1-1.2-0.3s-0.4-0.5-0.4-1c0-1.9,0.7-4,2.2-6.5s3.6-4.8,6.5-7.1
			s6.4-4.2,10.6-5.7s9-2.3,14.3-2.3c5.4,0,10.2,0.8,14.4,2.3c4.2,1.5,7.7,3.4,10.6,5.7s5,4.7,6.5,7.1c1.5,2.5,2.2,4.6,2.2,6.5
			c0,0.5-0.1,0.8-0.4,1c-0.2,0.2-0.7,0.3-1.3,0.3H74.3z M106.4-34.2c3.9,0,7.5-1.1,10.8-3.2c3.2-2.1,5.8-4.9,7.7-8.4
			c1.9-3.5,2.9-7.4,2.9-11.6s-1-8-2.9-11.4s-4.5-6.1-7.7-8.2c-3.2-2-6.8-3-10.8-3c-3.9,0-7.5,1-10.7,3.1c-3.2,2-5.8,4.8-7.7,8.2
			c-1.9,3.4-2.9,7.2-2.9,11.4s1,8.1,2.9,11.6s4.5,6.3,7.7,8.4S102.5-34.2,106.4-34.2z M106.4-42.6c-2.2,0-4.3-0.7-6.2-2
			c-1.9-1.3-3.4-3.1-4.6-5.3s-1.7-4.7-1.7-7.4s0.6-5.1,1.7-7.2c1.1-2.1,2.6-3.9,4.6-5.1c1.9-1.3,4-1.9,6.3-1.9s4.4,0.6,6.3,1.9
			s3.4,2.9,4.5,5.1s1.7,4.6,1.7,7.2c0,2.7-0.6,5.2-1.7,7.5c-1.1,2.2-2.7,4-4.5,5.3C110.8-43.3,108.7-42.6,106.4-42.6z M22.9,11.2h38
			c-1.3-0.8-2.4-1.9-3.2-3.5s-1.1-3.2-0.9-4.8H22.4c-0.5,0-0.8-0.1-1-0.3s-0.3-0.5-0.3-0.9c0-2.8,0.8-5.5,2.3-8.2
			c1.5-2.6,3.6-5,6.3-7.1s5.7-3.7,9.2-5c3.5-1.2,7.1-1.8,11-1.8c1.8,0,3.6,0.1,5.4,0.4c1.8,0.3,3.5,0.7,5.2,1.3
			c1.7,0.6,3.2,1.2,4.6,2c0.8-1.2,1.7-2.3,2.7-3.3s2.2-2,3.5-2.8c-2.1-1.3-4.3-2.4-6.6-3.3c-2.4-0.9-4.8-1.5-7.3-2s-5-0.7-7.6-0.7
			c-5.2,0-10,0.8-14.5,2.5s-8.5,4-11.9,6.9s-6.1,6.2-8,9.9s-2.9,7.6-2.9,11.7c0,2.9,0.9,5.1,2.6,6.5C16.8,10.5,19.4,11.2,22.9,11.2z
			 M49.8-33.7c3.4,0,6.5-0.9,9.3-2.7s5.1-4.3,6.7-7.4c1.7-3.1,2.5-6.5,2.5-10.3c0-3.7-0.8-7-2.5-10c-1.7-3-3.9-5.4-6.7-7.2
			S53.2-74,49.7-74c-3.4,0-6.5,0.9-9.3,2.7s-5,4.3-6.7,7.3s-2.5,6.4-2.5,10c0,3.7,0.8,7.1,2.5,10.2c1.7,3.1,3.9,5.5,6.7,7.3
			C43.3-34.6,46.4-33.7,49.8-33.7z M49.8-42c-1.9,0-3.6-0.5-5.1-1.6c-1.6-1.1-2.8-2.5-3.8-4.3c-0.9-1.8-1.4-3.8-1.4-6
			c0-2.1,0.5-4.1,1.4-5.9c0.9-1.8,2.2-3.2,3.7-4.2c1.6-1,3.3-1.6,5.2-1.6s3.6,0.5,5.2,1.5c1.6,1,2.8,2.4,3.7,4.2
			c0.9,1.7,1.4,3.7,1.4,5.8c0,2.2-0.5,4.3-1.4,6.1s-2.2,3.3-3.8,4.3C53.4-42.5,51.7-42,49.8-42z M182.4-79.2
			c-4.4-4.3-9.9-6.8-15.6-6.9h-0.1h-0.1c-5.6,0.1-11.1,2.5-15.6,6.9c-6,5.9-9.5,14.7-9.5,24.1c0,8.6,2.8,16.8,7.9,22.6
			c0.7,0.9,1.4,1.8,2.1,2.8c4.4,5.7,9.7,7.3,10.2,14.5c0.1,0.8,0.1,6.2,0.1,6.6l-0.5,14.5c0,2.9,2.4,5.2,5.3,5.3l0,0
			c2.9,0,5.3-2.4,5.3-5.3l-0.5-14.5c0-0.4,0-5.8,0.1-6.6c0.6-7.2,5.9-8.9,10.2-14.5c0.8-1,1.5-1.9,2.1-2.8
			c5.1-5.8,7.9-13.9,7.9-22.6C191.9-64.5,188.4-73.3,182.4-79.2z M166.7-30.7c-9.2,0-16.7-10.4-16.7-23.4s7.5-23.4,16.7-23.4
			s16.7,10.4,16.7,23.4S176-30.7,166.7-30.7z"/>
	</g>
	<g id="Regular-M" transform="matrix(1 0 0 1 1369.4 1126)">
		<path d="M75.1,10.8h61.3c8,0,12-2.6,12-7.8c0-3.2-1-6.6-2.9-10.2c-2-3.6-4.8-7-8.5-10.2s-8.2-5.8-13.4-7.8c-5.3-2-11.2-3-17.8-3
			s-12.5,1-17.8,3s-9.7,4.6-13.4,7.8c-3.7,3.2-6.5,6.6-8.5,10.2s-2.9,7-2.9,10.2C63.1,8.2,67.1,10.8,75.1,10.8z M72.8,3.4
			c-0.6,0-1.1-0.1-1.3-0.3c-0.4-0.2-0.5-0.5-0.5-1c0-2,0.8-4.3,2.3-6.9C74.8-7.5,77-10,80-12.5c3-2.4,6.6-4.5,10.9-6.1
			s9.3-2.4,14.9-2.4s10.6,0.8,14.9,2.4s8,3.6,10.9,6.1c3,2.4,5.2,5,6.7,7.6s2.3,4.9,2.3,6.9c0,0.5-0.1,0.9-0.4,1.1
			c-0.3,0.2-0.7,0.3-1.4,0.3C138.8,3.4,72.8,3.4,72.8,3.4z M105.8-34.4c3.9,0,7.4-1,10.6-3.1s5.7-4.9,7.6-8.3
			c1.9-3.5,2.9-7.3,2.9-11.5s-0.9-7.9-2.8-11.3s-4.4-6-7.6-8s-6.7-3-10.6-3s-7.4,1-10.6,3s-5.7,4.7-7.6,8.1s-2.9,7.1-2.9,11.3
			s1,8,2.9,11.5s4.5,6.2,7.6,8.3C98.4-35.4,101.9-34.4,105.8-34.4z M105.8-41.7c-2.4,0-4.6-0.7-6.6-2.1c-2-1.4-3.6-3.2-4.8-5.6
			c-1.2-2.3-1.8-4.9-1.8-7.8c0-2.8,0.6-5.4,1.8-7.6c1.2-2.3,2.8-4.1,4.8-5.4s4.2-2,6.6-2s4.7,0.7,6.7,2s3.6,3.1,4.8,5.3
			c1.2,2.3,1.8,4.8,1.8,7.6c0,2.9-0.6,5.5-1.8,7.8c-1.2,2.4-2.8,4.2-4.8,5.6C110.4-42.4,108.2-41.7,105.8-41.7z M22.4,10.8h38.3
			c-1.2-0.7-2.1-1.6-2.9-3s-1-2.8-0.9-4.2H21.2c-0.5,0-0.9-0.1-1.1-0.3s-0.3-0.5-0.3-1c0-3,0.8-5.9,2.4-8.7s3.8-5.3,6.5-7.5
			s5.9-4,9.5-5.2c3.6-1.3,7.4-1.9,11.4-1.9c2.1,0,4,0.2,5.9,0.5s3.7,0.8,5.5,1.4c1.7,0.6,3.4,1.4,5,2.3c0.7-1,1.6-1.9,2.5-2.8
			s1.9-1.7,3-2.4c-2.1-1.4-4.4-2.6-6.7-3.5c-2.4-0.9-4.8-1.6-7.3-2.1s-5.2-0.7-7.9-0.7c-5.1,0-9.9,0.8-14.4,2.5s-8.4,4-11.8,6.9
			s-6.1,6.2-8,10c-1.9,3.7-2.9,7.6-2.9,11.7c0,2.7,0.8,4.7,2.5,6.1C16.6,10.1,19.1,10.8,22.4,10.8z M49.6-34c3.4,0,6.4-0.9,9.2-2.7
			s5-4.2,6.6-7.3c1.7-3,2.5-6.4,2.5-10.1c0-3.6-0.8-6.9-2.5-9.9c-1.6-3-3.8-5.3-6.6-7.1c-2.8-1.8-5.8-2.6-9.2-2.6s-6.4,0.9-9.2,2.7
			c-2.8,1.8-5,4.2-6.7,7.2c-1.7,3-2.5,6.3-2.4,9.9c0,3.7,0.8,7,2.5,10.1c1.7,3,3.9,5.4,6.6,7.3C43.1-34.9,46.2-34,49.6-34z
			 M49.6-41.3c-2,0-3.8-0.6-5.5-1.7c-1.7-1.1-3-2.7-4-4.6c-1-1.9-1.5-4.1-1.5-6.4c0-2.3,0.5-4.4,1.5-6.2c1-1.9,2.3-3.4,4-4.5
			c1.7-1.1,3.5-1.7,5.5-1.7c2.1,0,3.9,0.5,5.6,1.6c1.7,1.1,3,2.6,4,4.4c1,1.9,1.5,3.9,1.5,6.2c0,2.4-0.5,4.5-1.5,6.5
			s-2.4,3.5-4.1,4.6C53.4-41.8,51.5-41.3,49.6-41.3z M176.9-80.2c-4.4-4.3-9.9-6.8-15.6-6.9h-0.1h-0.1c-5.6,0.1-11.1,2.5-15.6,6.9
			c-6,5.9-9.5,14.7-9.5,24.1c0,8.6,2.8,16.8,7.9,22.6c0.7,0.9,1.4,1.8,2.1,2.8c4.4,5.7,9.7,7.3,10.2,14.5c0.1,0.8,0.1,6.2,0.1,6.6
			l-0.5,14.5c0,2.9,2.4,5.2,5.3,5.3l0,0c2.9,0,5.3-2.4,5.3-5.3l-0.5-14.5c0-0.4,0-5.8,0.1-6.6c0.6-7.2,5.9-8.9,10.2-14.5
			c0.8-1,1.5-1.9,2.1-2.8c5.1-5.8,7.9-13.9,7.9-22.6C186.4-65.5,182.9-74.3,176.9-80.2z M161.2-30.2c-10.1,0-18.3-11.4-18.3-25.7
			s8.2-25.7,18.3-25.7s18.3,11.4,18.3,25.7S171.3-30.2,161.2-30.2z"/>
	</g>
	<g id="Light-M" transform="matrix(1 0 0 1 1073.23 1126)">
		<path d="M73.8,10.2h63c7.1,0,10.6-2.4,10.6-7.2c0-3.2-1-6.5-2.9-10.1s-4.7-6.9-8.4-10.1s-8.1-5.7-13.3-7.7s-11-3-17.6-3
			c-6.5,0-12.4,1-17.5,3c-5.2,2-9.6,4.5-13.3,7.7C70.7-14,68-10.7,66-7.1C64.2-3.6,63.2-0.2,63.2,3C63.2,7.8,66.7,10.2,73.8,10.2z
			 M72.2,4.5c-1.1,0-1.9-0.2-2.3-0.5s-0.7-0.9-0.7-1.6c0-2.3,0.8-4.9,2.4-7.7s3.9-5.5,7-8.1s6.9-4.7,11.3-6.3
			c4.5-1.7,9.6-2.5,15.3-2.5c5.7,0,10.8,0.8,15.3,2.5s8.2,3.8,11.3,6.3c3.1,2.6,5.4,5.2,7,8.1c1.6,2.8,2.4,5.4,2.4,7.7
			c0,0.8-0.2,1.3-0.7,1.6c-0.4,0.3-1.2,0.5-2.3,0.5C138.2,4.5,72.2,4.5,72.2,4.5z M105.3-34.5c3.8,0,7.3-1,10.4-3s5.6-4.7,7.4-8.1
			c1.8-3.4,2.8-7.2,2.8-11.3s-0.9-7.8-2.8-11.1c-1.8-3.3-4.3-6-7.4-7.9c-3.1-2-6.5-2.9-10.3-2.9s-7.2,1-10.3,3c-3.1,2-5.6,4.6-7.4,8
			c-1.9,3.3-2.8,7-2.8,11c0,4.1,0.9,7.9,2.8,11.3c1.8,3.4,4.3,6.1,7.4,8.1C98.1-35.5,101.5-34.5,105.3-34.5z M105.3-40.3
			c-2.6,0-5.1-0.7-7.3-2.2c-2.2-1.5-3.9-3.5-5.3-6c-1.3-2.5-2-5.4-2-8.5c0-3,0.6-5.7,1.9-8.2c1.3-2.5,3.1-4.4,5.3-5.9
			c2.2-1.5,4.6-2.2,7.3-2.2c2.7,0,5.1,0.7,7.3,2.2c2.2,1.4,3.9,3.4,5.2,5.8c1.3,2.4,1.9,5.2,1.9,8.2c0,3.1-0.7,5.9-2,8.5
			c-1.3,2.5-3,4.6-5.2,6C110.4-41,108-40.3,105.3-40.3z M21.3,10.2h40.2c-0.9-0.5-1.7-1.3-2.4-2.3c-0.6-1-1-2.1-1-3.3H20.6
			c-0.9,0-1.5-0.2-1.9-0.5s-0.6-0.9-0.6-1.7c0-3.3,0.8-6.4,2.4-9.3c1.6-3,3.9-5.6,6.7-7.9c2.9-2.3,6.2-4.2,9.9-5.5s7.7-2,11.8-2
			c2.4,0,4.7,0.2,6.9,0.6s4.3,1,6.3,1.8s3.8,1.8,5.6,3.1c0.6-0.7,1.3-1.4,2-2.1s1.5-1.3,2.3-1.9c-2.2-1.6-4.5-2.9-6.9-4
			c-2.5-1.1-5-1.9-7.7-2.4C54.7-27.8,51.9-28,49-28c-5.2,0-10.1,0.9-14.5,2.6s-8.3,4-11.6,7c-3.3,2.9-5.9,6.2-7.7,9.9
			C13.4-5,12.5-1.2,12.5,2.6c0,2.5,0.7,4.4,2.2,5.7C16.1,9.6,18.4,10.2,21.3,10.2z M49.1-33.9c3.3,0,6.3-0.9,9-2.6
			c2.7-1.8,4.8-4.1,6.5-7.1c1.6-3,2.4-6.3,2.4-10c0-3.5-0.8-6.8-2.4-9.7c-1.6-2.9-3.8-5.2-6.5-7c-2.7-1.7-5.7-2.6-9-2.6
			s-6.3,0.9-9,2.6s-4.9,4.1-6.5,7c-1.6,2.9-2.4,6.1-2.4,9.6c0,3.6,0.8,7,2.4,9.9c1.6,3,3.7,5.3,6.4,7.1
			C42.8-34.8,45.8-33.9,49.1-33.9z M49.1-39.6c-2.2,0-4.3-0.6-6.1-1.9c-1.8-1.2-3.3-2.9-4.4-5C37.5-48.6,37-51,37-53.6
			c0-2.5,0.5-4.8,1.6-6.8c1.1-2.1,2.6-3.7,4.4-4.9c1.8-1.2,3.9-1.8,6.1-1.8c2.3,0,4.3,0.6,6.2,1.8c1.8,1.2,3.3,2.8,4.4,4.9
			c1.1,2,1.7,4.3,1.7,6.8c0,2.6-0.5,5-1.6,7.1s-2.6,3.8-4.4,5C53.4-40.2,51.3-39.6,49.1-39.6z"/>
	</g>
	<g id="Thin-M" transform="matrix(1 0 0 1 777.226 1126)">
		<path d="M72,9.4h65.2c5.8,0,8.7-2.1,8.7-6.4c0-3.1-1-6.5-2.9-10s-4.7-6.8-8.3-9.9s-7.9-5.6-13-7.5s-10.8-2.9-17.2-2.9
			c-6.4,0-12.1,1-17.2,2.9s-9.4,4.4-13,7.5S67.9-10.5,66-7s-2.9,6.9-2.9,10C63.3,7.2,66.2,9.4,72,9.4z M71.5,5.8
			c-1.7,0-2.9-0.2-3.6-0.7s-1-1.3-1-2.4c0-2.7,0.8-5.6,2.5-8.7s4.2-6,7.4-8.7c3.2-2.7,7.2-4.9,11.9-6.6c4.7-1.7,10-2.6,15.9-2.6
			s11.2,0.9,15.9,2.6c4.7,1.7,8.6,3.9,11.9,6.6c3.2,2.7,5.7,5.6,7.4,8.7s2.5,6,2.5,8.7c0,1.2-0.3,2-1,2.4c-0.7,0.5-1.8,0.7-3.6,0.7
			C137.7,5.8,71.5,5.8,71.5,5.8z M104.7-34.8c3.7,0,7.1-1,10-2.9c3-1.9,5.3-4.6,7.1-7.9c1.8-3.3,2.6-7,2.6-11.1
			c0-3.9-0.9-7.5-2.7-10.8c-1.8-3.2-4.2-5.8-7.2-7.8c-3-1.9-6.3-2.9-9.9-2.9s-7,1-9.9,2.9c-3,1.9-5.4,4.5-7.2,7.8
			c-1.8,3.2-2.7,6.8-2.6,10.7c0,4.1,0.9,7.8,2.7,11.1c1.8,3.3,4.1,5.9,7.1,7.9S101-34.8,104.7-34.8z M104.7-38.3
			c-3,0-5.7-0.8-8.2-2.4c-2.4-1.6-4.4-3.8-5.8-6.6s-2.1-5.9-2.1-9.4c0-3.3,0.7-6.2,2.1-8.9c1.4-2.7,3.4-4.9,5.9-6.5s5.2-2.4,8.1-2.4
			c3,0,5.7,0.8,8.1,2.4s4.4,3.8,5.8,6.5c1.4,2.7,2.2,5.7,2.2,9c0,3.5-0.7,6.6-2.1,9.3c-1.4,2.8-3.4,5-5.8,6.6
			C110.5-39.1,107.7-38.3,104.7-38.3z M19.9,9.4h42.8C62.1,9.1,61.6,8.6,61,8c-0.5-0.6-0.9-1.3-1.1-2.1H19.8c-1.4,0-2.4-0.3-2.9-0.8
			C16.2,4.6,16,3.7,16,2.5c0-3.6,0.8-6.9,2.5-10.1s4-6,7-8.5S32-20.6,35.9-22s8.1-2.1,12.5-2.1c2.8,0,5.5,0.3,8.1,0.8
			s5.1,1.4,7.4,2.4c2.3,1.1,4.4,2.4,6.3,4c0.4-0.4,0.8-0.8,1.3-1.2c0.4-0.4,0.9-0.8,1.4-1.1c-2.2-1.8-4.6-3.3-7.2-4.6
			c-2.6-1.2-5.3-2.2-8.2-2.8c-2.9-0.6-5.9-1-9-1c-5.4,0-10.3,0.9-14.7,2.6c-4.4,1.8-8.2,4.1-11.4,7s-5.6,6.2-7.3,9.7
			S12.5-1,12.5,2.6c0,2.3,0.6,4,1.9,5.1C15.5,8.8,17.4,9.4,19.9,9.4z M48.5-33.8c3.2,0,6.2-0.8,8.8-2.5s4.7-4,6.2-6.9
			s2.3-6.1,2.3-9.7c0-3.4-0.8-6.6-2.3-9.4c-1.6-2.8-3.6-5.1-6.3-6.8c-2.6-1.7-5.5-2.5-8.6-2.5c-3.2,0-6.1,0.9-8.7,2.6
			c-2.6,1.7-4.7,4-6.2,6.8s-2.3,5.9-2.3,9.3c0,3.6,0.8,6.8,2.3,9.7s3.6,5.2,6.1,6.8C42.4-34.7,45.3-33.8,48.5-33.8z M48.5-37.4
			c-2.6,0-4.9-0.7-7-2c-2.1-1.4-3.7-3.2-4.9-5.6c-1.2-2.4-1.8-5-1.8-8c0-2.7,0.6-5.3,1.8-7.6s2.9-4.2,4.9-5.5
			c2.1-1.4,4.4-2.1,6.9-2.1s4.8,0.7,6.9,2.1c2.1,1.4,3.7,3.2,5,5.5s1.9,4.8,1.9,7.6c0,2.9-0.6,5.6-1.8,8s-2.9,4.2-4.9,5.6
			C53.4-38,51.1-37.4,48.5-37.4z"/>
	</g>
	<g id="Ultralight-M" transform="matrix(1 0 0 1 480.879 1126)">
		<path d="M71.1,9h66.4c5.2,0,7.7-2,7.7-6c0-3.1-0.9-6.4-2.8-9.9c-1.9-3.5-4.6-6.8-8.2-9.8c-3.6-3-7.9-5.5-12.9-7.4
			s-10.7-2.9-17-2.9s-12,1-17,2.9s-9.3,4.4-12.9,7.4s-6.3,6.3-8.2,9.8c-1.9,3.5-2.8,6.8-2.8,9.9C63.4,7,65.9,9,71.1,9z M71.1,6.6
			c-2,0-3.4-0.3-4.2-0.8c-0.8-0.5-1.1-1.5-1.1-2.8c0-2.9,0.9-6,2.6-9.2s4.3-6.2,7.6-9c3.3-2.8,7.4-5.1,12.1-6.8
			c4.8-1.7,10.2-2.6,16.2-2.6c6,0,11.4,0.9,16.2,2.6c4.8,1.7,8.8,4,12.1,6.8s5.9,5.8,7.6,9c1.7,3.2,2.6,6.3,2.6,9.2
			c0,1.3-0.4,2.3-1.1,2.8c-0.8,0.5-2.2,0.8-4.2,0.8C137.5,6.6,71.1,6.6,71.1,6.6z M104.4-34.9c3.7,0,7-1,9.9-2.9s5.2-4.5,6.9-7.7
			c1.7-3.3,2.6-6.9,2.6-11c0-3.9-0.9-7.4-2.6-10.6c-1.8-3.2-4.1-5.8-7-7.7s-6.2-2.9-9.7-2.9c-3.6,0-6.8,1-9.8,2.9
			c-2.9,1.9-5.3,4.5-7,7.7c-1.8,3.2-2.6,6.7-2.5,10.5c0,4.1,0.9,7.7,2.6,11s4,5.8,6.9,7.7C97.5-35.8,100.8-34.9,104.4-34.9z
			 M104.4-37.3c-3.2,0-6.1-0.8-8.6-2.5c-2.6-1.7-4.6-4-6.1-6.8s-2.2-6.2-2.2-9.8c0-3.4,0.7-6.5,2.2-9.3c1.5-2.8,3.6-5.1,6.2-6.8
			c2.6-1.7,5.4-2.5,8.5-2.5s5.9,0.8,8.5,2.5s4.6,4,6.1,6.8c1.5,2.8,2.3,6,2.3,9.4c0,3.6-0.7,6.9-2.2,9.8c-1.5,2.9-3.5,5.2-6.1,6.8
			C110.5-38.1,107.6-37.3,104.4-37.3z M19.2,9h44.1c-0.4-0.3-0.9-0.6-1.3-1c-0.4-0.4-0.8-0.9-1.1-1.4H19.3c-1.6,0-2.8-0.3-3.5-0.9
			c-0.7-0.6-1-1.7-1-3.1c0-3.7,0.9-7.2,2.6-10.6c1.7-3.3,4.1-6.2,7.2-8.8c3.1-2.5,6.6-4.5,10.6-6c4-1.4,8.3-2.2,12.8-2.2
			c3.1,0,6,0.3,8.8,0.9s5.5,1.5,7.9,2.7c2.5,1.2,4.7,2.7,6.7,4.5c0.3-0.3,0.6-0.5,0.9-0.8c0.3-0.2,0.6-0.5,0.9-0.8
			c-2.3-1.9-4.7-3.6-7.4-4.9c-2.7-1.3-5.5-2.3-8.5-3s-6.1-1-9.4-1c-5.5,0-10.4,0.9-14.8,2.7c-4.4,1.8-8.1,4.1-11.2,7
			s-5.5,6.1-7.1,9.6s-2.5,7-2.5,10.5c0,2.2,0.6,3.8,1.7,4.9C15.2,8.5,16.9,9,19.2,9z M48.2-33.8c3.2,0,6.1-0.8,8.6-2.5
			c2.6-1.7,4.6-3.9,6.1-6.7s2.2-6,2.2-9.6c0-3.4-0.8-6.5-2.3-9.3c-1.5-2.8-3.6-5-6.2-6.7c-2.6-1.7-5.4-2.5-8.5-2.5s-6,0.8-8.5,2.5
			c-2.6,1.7-4.6,3.9-6.1,6.7C32-59,31.3-56,31.3-52.6c0,3.6,0.8,6.8,2.3,9.6s3.5,5.1,6,6.7C42.1-34.6,45-33.8,48.2-33.8z M48.2-36.2
			c-2.7,0-5.2-0.7-7.4-2.1c-2.2-1.4-3.9-3.4-5.2-5.9s-1.9-5.3-1.9-8.4c0-2.9,0.6-5.5,1.9-8c1.3-2.4,3-4.4,5.2-5.8
			c2.2-1.5,4.6-2.2,7.3-2.2s5.1,0.7,7.3,2.2s3.9,3.4,5.3,5.8s2,5.1,2,8c0,3.1-0.6,5.9-1.9,8.4c-1.3,2.5-3,4.4-5.2,5.9
			C53.4-36.9,50.9-36.2,48.2-36.2z"/>
	</g>
	<g id="Black-S" transform="matrix(1 0 0 1 2868.31 696)">
		<path d="M62.7,2.6h46c7.8,0,11.7-2.9,11.7-8.8c0-3.2-0.9-6.2-2.7-9.2c-1.8-2.9-4.2-5.5-7.4-7.8c-3.2-2.3-6.8-4.1-11-5.5
			s-8.7-2-13.6-2s-9.4,0.7-13.6,2c-4.2,1.4-7.9,3.2-11,5.5c-3.2,2.3-5.6,4.9-7.4,7.8c-1.8,2.9-2.7,6-2.7,9.2
			C51.1-0.3,55,2.6,62.7,2.6z M64.4-8.1c-0.2,0-0.4-0.1-0.5-0.2c-0.1-0.1-0.1-0.3-0.1-0.4c0-0.9,0.5-2.1,1.5-3.3s2.5-2.5,4.3-3.7
			c1.9-1.2,4.2-2.2,6.9-3c2.7-0.8,5.8-1.2,9.2-1.2c3.4,0,6.5,0.4,9.2,1.2c2.7,0.8,5,1.8,6.9,3c1.9,1.2,3.3,2.4,4.3,3.7
			s1.5,2.4,1.5,3.3c0,0.1,0,0.3-0.1,0.4c-0.1,0.1-0.2,0.2-0.5,0.2C107-8.1,64.4-8.1,64.4-8.1z M85.7-33.7c3.3,0,6.3-0.9,9-2.6
			s4.8-4,6.4-6.9s2.4-6.1,2.4-9.7c0-3.5-0.8-6.6-2.4-9.4s-3.8-5.1-6.4-6.9c-2.7-1.7-5.7-2.6-8.9-2.6c-3.3,0-6.2,0.9-8.9,2.6
			c-2.7,1.7-4.9,4-6.4,6.9c-1.6,2.8-2.4,6-2.4,9.4c0,3.5,0.8,6.8,2.4,9.7s3.7,5.2,6.4,6.9C79.4-34.6,82.4-33.7,85.7-33.7z
			 M85.7-44.5c-1.3,0-2.4-0.4-3.5-1.1c-1.1-0.7-1.9-1.7-2.6-3c-0.6-1.3-1-2.7-1-4.4c0-1.5,0.3-2.9,1-4.1c0.7-1.2,1.5-2.2,2.6-2.9
			s2.2-1.1,3.5-1.1s2.4,0.4,3.5,1.1c1.1,0.7,1.9,1.7,2.6,3c0.7,1.2,1,2.6,1,4.1c0,1.6-0.3,3-1,4.3c-0.6,1.3-1.5,2.3-2.5,3
			C88.2-44.8,87-44.5,85.7-44.5z M20.1,2.7h28.3c-1.6-1-2.8-2.6-3.5-4.7s-1-4.1-0.8-5.9H22.4c-0.2,0-0.4-0.1-0.5-0.2
			c-0.1-0.1-0.1-0.3-0.1-0.4c0-1.8,0.8-3.6,2.4-5.4s3.8-3.3,6.5-4.4c2.8-1.2,5.9-1.8,9.4-1.8c0.9,0,2.2,0.1,3.9,0.4s2.9,0.5,3.6,0.7
			c0.8-1.7,1.8-3.2,3.1-4.6s2.9-2.6,4.8-3.7c-2.2-0.9-4.7-1.7-7.7-2.3c-2.9-0.6-5.5-0.9-7.7-0.9c-4.2,0-8.1,0.6-11.8,1.9
			s-6.9,3.1-9.7,5.3s-5,4.8-6.5,7.7c-1.6,2.9-2.3,5.9-2.3,9c0,3,0.9,5.3,2.6,6.9C14.1,1.9,16.7,2.7,20.1,2.7z M40.1-32.9
			c2.9,0,5.6-0.8,7.9-2.3c2.4-1.5,4.2-3.5,5.6-6.1c1.4-2.6,2.1-5.4,2.1-8.5c0-3-0.7-5.8-2.1-8.3c-1.4-2.5-3.3-4.5-5.7-6.1
			c-2.4-1.5-5-2.3-7.8-2.3s-5.5,0.8-7.9,2.3s-4.3,3.5-5.7,6.1c-1.4,2.5-2.1,5.3-2.1,8.3c0,3.2,0.7,6,2.1,8.6
			c1.4,2.6,3.3,4.6,5.6,6.1C34.6-33.7,37.2-32.9,40.1-32.9z M40.1-43.5c-1.4,0-2.6-0.6-3.6-1.8S35-48,35-49.9c0-1.1,0.2-2.1,0.7-3.1
			c0.5-0.9,1.1-1.7,1.9-2.2c0.8-0.6,1.6-0.8,2.5-0.8s1.7,0.3,2.5,0.8c0.8,0.6,1.4,1.3,1.9,2.2s0.7,1.9,0.7,3.1
			c0,1.9-0.5,3.4-1.5,4.6C42.8-44.1,41.6-43.5,40.1-43.5z"/>
	</g>
	<g id="Heavy-S" transform="matrix(1 0 0 1 2572.02 696)">
		<path d="M62,2.3h46.3c7.5,0,11.3-2.7,11.3-8.2c0-3-0.9-6-2.6-8.9s-4.1-5.5-7.2-7.9c-3.1-2.3-6.7-4.2-10.9-5.6
			c-4.2-1.4-8.8-2.1-13.7-2.1c-4.9,0-9.5,0.7-13.7,2.1s-7.8,3.3-10.9,5.6c-3.1,2.3-5.5,5-7.2,7.9s-2.6,5.9-2.6,8.9
			C50.7-0.5,54.4,2.3,62,2.3z M62.7-7.5c-0.2,0-0.4-0.1-0.5-0.2C62.1-7.8,62-8,62-8.1c0-1.1,0.5-2.3,1.6-3.7c1-1.4,2.6-2.8,4.5-4.2
			c2-1.4,4.4-2.5,7.3-3.4s6.1-1.3,9.7-1.3s6.9,0.4,9.7,1.3c2.9,0.9,5.3,2,7.2,3.4c2,1.4,3.5,2.8,4.5,4.2s1.6,2.7,1.6,3.7
			c0,0.2,0,0.3-0.1,0.4s-0.3,0.2-0.5,0.2C107.5-7.5,62.7-7.5,62.7-7.5z M85.1-33.9c3.3,0,6.2-0.8,8.9-2.5c2.7-1.7,4.8-4,6.3-6.8
			c1.6-2.9,2.4-6,2.4-9.5c0-3.4-0.8-6.5-2.4-9.3c-1.6-2.8-3.7-5.1-6.4-6.7c-2.7-1.7-5.6-2.5-8.8-2.5c-3.2,0-6.2,0.8-8.8,2.5
			c-2.7,1.7-4.8,3.9-6.4,6.8c-1.6,2.8-2.4,5.9-2.4,9.3c0,3.5,0.8,6.7,2.4,9.5c1.6,2.9,3.7,5.1,6.3,6.8
			C78.9-34.8,81.9-33.9,85.1-33.9z M85.1-43.7c-1.4,0-2.7-0.4-3.8-1.2c-1.2-0.8-2.1-1.9-2.8-3.3c-0.7-1.4-1-3-1-4.7s0.4-3.1,1.1-4.5
			c0.7-1.3,1.6-2.4,2.8-3.2c1.2-0.8,2.4-1.2,3.8-1.2s2.7,0.4,3.8,1.2c1.2,0.8,2.1,1.8,2.8,3.2c0.7,1.3,1.1,2.8,1.1,4.5
			s-0.3,3.3-1,4.7s-1.6,2.5-2.8,3.3C87.8-44.1,86.5-43.7,85.1-43.7z M19.6,2.3h28.5c-1.5-0.9-2.6-2.3-3.3-4.2s-1-3.7-0.8-5.4H21.1
			c-0.2,0-0.4-0.1-0.5-0.2s-0.1-0.3-0.1-0.4c0-2.1,0.9-4.2,2.6-6.2s4-3.7,7-5c2.9-1.3,6.2-1.9,9.8-1.9c1.2,0,2.7,0.2,4.4,0.5
			s3.1,0.6,4.1,1c0.8-1.5,1.7-2.9,2.9-4.1s2.6-2.4,4.3-3.4c-2.2-1.1-4.8-1.9-7.7-2.6c-2.9-0.6-5.6-1-7.9-1c-4.1,0-8,0.6-11.7,1.9
			c-3.6,1.3-6.8,3.1-9.6,5.3c-2.8,2.3-4.9,4.8-6.5,7.7S9.9-9.8,9.9-6.6c0,2.8,0.8,4.9,2.5,6.5C13.9,1.6,16.3,2.3,19.6,2.3z
			 M39.9-33.2c2.9,0,5.5-0.7,7.8-2.2s4.2-3.5,5.6-6c1.4-2.5,2.1-5.3,2.1-8.4c0-3-0.7-5.7-2.1-8.2c-1.4-2.5-3.3-4.5-5.6-5.9
			c-2.3-1.5-4.9-2.2-7.7-2.2s-5.4,0.7-7.7,2.2c-2.3,1.5-4.2,3.5-5.6,6s-2.1,5.2-2.1,8.2c0,3.1,0.7,5.9,2.1,8.4s3.2,4.5,5.6,6
			C34.5-34,37-33.2,39.9-33.2z M39.9-42.8c-1.6,0-3-0.7-4.1-2c-1.2-1.3-1.7-3-1.7-5.1c0-1.2,0.3-2.4,0.8-3.4s1.3-1.9,2.2-2.5
			s1.9-0.9,2.9-0.9s2,0.3,2.9,0.9c0.9,0.6,1.6,1.4,2.1,2.5c0.5,1,0.8,2.2,0.8,3.4c0,2-0.6,3.7-1.7,5.1
			C42.9-43.5,41.5-42.8,39.9-42.8z"/>
	</g>
	<g id="Bold-S" transform="matrix(1 0 0 1 2275.78 696)">
		<path d="M61.1,1.9h46.6c7.3,0,10.9-2.5,10.9-7.6c0-2.8-0.8-5.7-2.5-8.6s-4-5.6-7-8s-6.6-4.4-10.8-5.8c-4.2-1.5-8.8-2.2-13.9-2.2
			c-5,0-9.7,0.7-13.8,2.2c-4.2,1.5-7.8,3.4-10.8,5.8s-5.4,5.1-7,8c-1.7,2.9-2.5,5.8-2.5,8.6C50.2-0.7,53.9,1.9,61.1,1.9z M60.8-6.8
			c-0.2,0-0.4-0.1-0.5-0.2s-0.2-0.3-0.2-0.5c0-1.2,0.5-2.6,1.6-4.2s2.7-3.2,4.7-4.7c2.1-1.5,4.6-2.8,7.6-3.8s6.5-1.5,10.3-1.5
			c3.9,0,7.3,0.5,10.3,1.5s5.6,2.3,7.6,3.8c2.1,1.5,3.6,3.1,4.7,4.7s1.6,3,1.6,4.2c0,0.2,0,0.4-0.1,0.5s-0.3,0.2-0.5,0.2H60.8z
			 M84.4-34.1c3.2,0,6.1-0.8,8.7-2.5s4.7-3.9,6.2-6.8c1.6-2.8,2.3-6,2.3-9.4c0-3.4-0.8-6.5-2.3-9.2c-1.6-2.8-3.6-5-6.3-6.6
			c-2.6-1.6-5.5-2.5-8.7-2.5s-6.1,0.8-8.7,2.5s-4.7,3.9-6.3,6.6c-1.6,2.8-2.3,5.8-2.3,9.2s0.8,6.5,2.3,9.4c1.5,2.8,3.6,5.1,6.2,6.7
			C78.3-35,81.2-34.1,84.4-34.1z M84.4-42.8c-1.5,0-2.9-0.4-4.2-1.3c-1.2-0.9-2.2-2-3-3.6c-0.8-1.5-1.1-3.2-1.1-5.1
			c0-1.8,0.4-3.5,1.1-4.9c0.8-1.4,1.8-2.6,3.1-3.5c1.3-0.9,2.7-1.3,4.2-1.3s2.9,0.4,4.2,1.3c1.3,0.8,2.3,2,3,3.5
			c0.8,1.5,1.1,3.1,1.1,4.9c0,1.9-0.4,3.6-1.1,5.1c-0.8,1.5-1.8,2.7-3.1,3.6C87.4-43.2,86-42.8,84.4-42.8z M19.1,1.9h28.7
			c-1.3-0.8-2.3-2-3-3.7S43.9-5.1,44-6.6H19.7c-0.2,0-0.4-0.1-0.5-0.2S19-7,19-7.2c0-2.4,0.9-4.7,2.8-7c1.8-2.2,4.3-4.1,7.4-5.5
			c3.1-1.4,6.6-2.1,10.3-2.1c1.6,0,3.2,0.2,5,0.5s3.3,0.8,4.6,1.3c0.7-1.3,1.6-2.4,2.7-3.5c1-1.1,2.3-2.1,3.7-3
			c-2.3-1.2-4.9-2.2-7.8-2.8s-5.6-1-8.2-1c-4.1,0-7.9,0.7-11.5,2s-6.8,3.1-9.5,5.3c-2.8,2.3-4.9,4.9-6.5,7.8S9.7-9.2,9.7-6
			c0,2.6,0.8,4.6,2.3,5.9C13.7,1.2,16,1.9,19.1,1.9z M39.6-33.6c2.8,0,5.3-0.7,7.6-2.2s4.1-3.5,5.5-6s2-5.2,2-8.3
			c0-3-0.7-5.7-2.1-8.1c-1.4-2.4-3.2-4.4-5.5-5.8c-2.3-1.4-4.8-2.2-7.6-2.2s-5.3,0.7-7.6,2.2c-2.3,1.5-4.1,3.4-5.5,5.9
			C25-55.7,24.3-53,24.3-50c0,3,0.7,5.8,2.1,8.3s3.2,4.5,5.5,5.9C34.3-34.3,36.8-33.6,39.6-33.6z M39.6-42.1c-1.8,0-3.3-0.8-4.7-2.3
			c-1.3-1.5-2-3.4-2-5.6c0-1.4,0.3-2.7,0.9-3.8c0.6-1.1,1.4-2.1,2.4-2.7s2.1-1,3.3-1s2.3,0.3,3.3,1s1.8,1.6,2.4,2.7s0.9,2.4,0.9,3.8
			c0,2.2-0.7,4.1-2,5.6C43-42.9,41.4-42.1,39.6-42.1z"/>
	</g>
	<g id="Semibold-S" transform="matrix(1 0 0 1 1979.39 696)">
		<path d="M60.5,1.6h46.8c7.1,0,10.6-2.4,10.6-7.2c0-2.7-0.8-5.5-2.4-8.4s-3.9-5.6-6.9-8c-3-2.5-6.6-4.4-10.7-6
			c-4.2-1.5-8.8-2.3-14-2.3c-5.1,0-9.8,0.8-13.9,2.3c-4.2,1.5-7.7,3.5-10.7,6s-5.3,5.1-6.9,8C50.8-11.1,50-8.3,50-5.6
			C49.9-0.8,53.5,1.6,60.5,1.6z M59.5-6.3c-0.3,0-0.4-0.1-0.6-0.2c-0.1-0.1-0.2-0.3-0.2-0.5c0-1.3,0.6-2.8,1.7-4.5
			c1.1-1.7,2.7-3.4,4.9-5.1c2.1-1.6,4.8-3,7.9-4.1s6.7-1.6,10.7-1.6s7.6,0.5,10.8,1.6c3.1,1.1,5.8,2.5,7.9,4.1s3.8,3.3,4.9,5.1
			c1.1,1.7,1.7,3.2,1.7,4.5c0,0.2-0.1,0.4-0.2,0.5s-0.3,0.2-0.6,0.2H59.5z M84-34.3c3.1,0,6-0.8,8.6-2.5s4.7-3.9,6.2-6.7
			s2.3-5.9,2.3-9.3c0-3.4-0.8-6.4-2.3-9.1c-1.5-2.7-3.6-4.9-6.2-6.5s-5.5-2.4-8.6-2.4s-6,0.8-8.6,2.5s-4.7,3.8-6.2,6.6
			c-1.6,2.7-2.3,5.8-2.3,9.1c0,3.4,0.8,6.5,2.3,9.3s3.6,5,6.2,6.7C77.9-35.1,80.8-34.3,84-34.3z M84-42.2c-1.6,0-3.1-0.5-4.4-1.4
			c-1.4-0.9-2.4-2.2-3.2-3.8c-0.8-1.6-1.2-3.4-1.2-5.4c0-1.9,0.4-3.7,1.2-5.2c0.8-1.5,1.9-2.7,3.2-3.6c1.4-0.9,2.8-1.3,4.4-1.3
			s3.1,0.4,4.4,1.3c1.3,0.9,2.4,2.1,3.2,3.6c0.8,1.5,1.2,3.3,1.2,5.2c0,2-0.4,3.8-1.2,5.4c-0.8,1.6-1.9,2.9-3.2,3.8
			C87-42.6,85.6-42.2,84-42.2z M18.7,1.6h28.9c-1.2-0.7-2.2-1.8-2.8-3.3c-0.7-1.5-0.9-3-0.7-4.4H18.6c-0.2,0-0.4-0.1-0.5-0.2
			c0-0.1-0.1-0.3-0.1-0.5c0-2.6,1-5.1,2.9-7.6s4.5-4.4,7.8-5.9c3.2-1.5,6.8-2.3,10.7-2.3c1.8,0,3.6,0.2,5.5,0.6
			c1.8,0.4,3.5,0.9,4.9,1.6c0.7-1.1,1.6-2.2,2.5-3.1c1-1,2.1-1.9,3.3-2.7c-2.4-1.3-5-2.3-7.8-3c-2.9-0.7-5.7-1.1-8.4-1.1
			c-4,0-7.8,0.7-11.4,2s-6.7,3.1-9.5,5.4s-4.9,4.9-6.4,7.8c-1.6,2.9-2.3,6-2.3,9.2c0,2.5,0.7,4.3,2.2,5.6C13.5,1,15.7,1.6,18.7,1.6z
			 M39.4-33.8c2.7,0,5.2-0.7,7.5-2.2s4.1-3.4,5.4-5.9c1.3-2.5,2-5.2,2-8.2c0-2.9-0.7-5.6-2-8s-3.1-4.3-5.4-5.7
			c-2.2-1.4-4.8-2.1-7.5-2.1s-5.2,0.7-7.5,2.2c-2.3,1.4-4.1,3.4-5.4,5.8c-1.3,2.4-2,5.1-2,8c0,3,0.7,5.7,2,8.2
			c1.4,2.5,3.2,4.4,5.4,5.9C34.2-34.6,36.7-33.8,39.4-33.8z M39.4-41.6c-1.9,0-3.6-0.8-5-2.4c-1.4-1.6-2.1-3.6-2.1-6
			c0-1.5,0.3-2.9,1-4.1c0.6-1.2,1.5-2.2,2.6-2.9s2.3-1.1,3.6-1.1s2.5,0.4,3.6,1.1c1.1,0.7,2,1.7,2.6,2.9s1,2.6,1,4.1
			c0,2.4-0.7,4.4-2.1,6C43-42.4,41.3-41.6,39.4-41.6z"/>
	</g>
	<g id="Medium-S" transform="matrix(1 0 0 1 1682.93 696)">
		<path d="M60.1,1.4h47c6.9,0,10.4-2.3,10.4-6.8c0-2.6-0.8-5.4-2.4-8.3s-3.9-5.6-6.8-8c-3-2.5-6.5-4.5-10.7-6.1s-8.8-2.3-14-2.3
			s-9.8,0.8-14,2.3c-4.2,1.6-7.7,3.6-10.7,6.1s-5.2,5.2-6.8,8c-1.6,2.9-2.4,5.6-2.4,8.3C49.7-0.9,53.2,1.4,60.1,1.4z M58.5-5.9
			c-0.3,0-0.4-0.1-0.6-0.2c-0.1-0.1-0.2-0.3-0.2-0.5c0-1.3,0.6-2.9,1.7-4.8c1.1-1.8,2.8-3.6,5-5.4c2.2-1.7,4.9-3.2,8.1-4.3
			c3.2-1.2,6.9-1.7,11-1.7c4.2,0,7.9,0.6,11.1,1.7c3.2,1.2,5.9,2.6,8.1,4.3c2.2,1.7,3.8,3.5,5,5.4c1.1,1.8,1.7,3.4,1.7,4.8
			c0,0.2-0.1,0.4-0.2,0.5s-0.3,0.2-0.6,0.2C108.6-5.9,58.5-5.9,58.5-5.9z M83.6-34.4c3.1,0,5.9-0.8,8.5-2.5s4.6-3.9,6.2-6.6
			c1.5-2.8,2.3-5.8,2.3-9.2c0-3.3-0.8-6.4-2.3-9.1c-1.5-2.7-3.6-4.8-6.1-6.4c-2.6-1.6-5.4-2.4-8.5-2.4s-6,0.8-8.5,2.4
			c-2.6,1.6-4.6,3.8-6.2,6.5c-1.5,2.7-2.3,5.7-2.3,9s0.8,6.4,2.3,9.2s3.6,5,6.2,6.6C77.6-35.2,80.5-34.4,83.6-34.4z M83.6-41.7
			c-1.7,0-3.2-0.5-4.6-1.5s-2.5-2.3-3.4-3.9c-0.8-1.7-1.3-3.5-1.3-5.6c0-2,0.4-3.8,1.3-5.4c0.8-1.6,2-2.9,3.4-3.8
			c1.4-0.9,3-1.4,4.6-1.4c1.7,0,3.2,0.5,4.6,1.4s2.5,2.2,3.3,3.8s1.3,3.4,1.3,5.4s-0.4,3.9-1.3,5.6c-0.8,1.7-2,3-3.4,4
			C86.8-42.2,85.3-41.7,83.6-41.7z M18.4,1.4h29c-1.1-0.7-2.1-1.7-2.7-3C44-3,43.8-4.4,44-5.8H17.9c-0.2,0-0.4-0.1-0.5-0.2
			s-0.2-0.3-0.2-0.5c0-2.8,1-5.4,3-8c2-2.5,4.7-4.6,8-6.2s7-2.4,10.9-2.4c2,0,3.9,0.2,5.8,0.6c1.9,0.4,3.6,1,5.2,1.8
			c0.7-1,1.5-1.9,2.4-2.8s1.9-1.7,3.1-2.5c-2.4-1.4-5-2.5-7.9-3.2c-2.8-0.7-5.7-1.1-8.6-1.1c-4,0-7.8,0.7-11.3,2s-6.7,3.1-9.4,5.4
			S13.5-18,12-15.1s-2.3,6-2.3,9.3c0,2.3,0.7,4.1,2.2,5.3C13.4,0.8,15.5,1.4,18.4,1.4z M39.3-34c2.7,0,5.2-0.7,7.4-2.2
			s4-3.4,5.4-5.9c1.3-2.4,2-5.1,2-8.1c0-2.9-0.7-5.6-2-7.9c-1.3-2.4-3.1-4.3-5.3-5.7c-2.2-1.4-4.7-2.1-7.4-2.1s-5.2,0.7-7.4,2.2
			c-2.2,1.4-4,3.3-5.4,5.7c-1.3,2.4-2,5-2,7.9c0,3,0.7,5.7,2,8.1c1.3,2.4,3.1,4.4,5.4,5.8C34.1-34.8,36.5-34,39.3-34z M39.3-41.3
			c-2,0-3.8-0.9-5.3-2.6c-1.5-1.7-2.3-3.8-2.3-6.3c0-1.6,0.3-3,1-4.3s1.6-2.3,2.8-3.1s2.4-1.2,3.8-1.2c1.4,0,2.7,0.4,3.8,1.1
			c1.2,0.8,2.1,1.8,2.7,3.1c0.7,1.3,1,2.7,1,4.3c0,2.5-0.8,4.6-2.3,6.3C43.1-42.1,41.3-41.3,39.3-41.3z"/>
	</g>
	<g id="Regular-S" transform="matrix(1 0 0 1 1386.54 696)">
		<path d="M59.5,1.1h47.2c6.7,0,10.1-2.1,10.1-6.4c0-2.5-0.8-5.2-2.3-8.1s-3.8-5.6-6.7-8.1c-2.9-2.5-6.4-4.6-10.6-6.2
			s-8.9-2.4-14.1-2.4s-9.9,0.8-14.1,2.4s-7.7,3.7-10.6,6.2c-2.9,2.5-5.1,5.2-6.7,8.1c-1.5,2.9-2.3,5.6-2.3,8.1
			C49.4-1,52.8,1.1,59.5,1.1z M57.3-5.5c-0.3,0-0.5,0-0.6-0.1s-0.2-0.3-0.2-0.5c0-1.4,0.6-3.1,1.7-5.1c1.2-2,2.9-3.9,5.1-5.7
			c2.3-1.9,5.1-3.4,8.4-4.6c3.3-1.2,7.1-1.9,11.4-1.9s8.2,0.6,11.5,1.9c3.3,1.2,6.1,2.8,8.3,4.6c2.2,1.9,3.9,3.8,5.1,5.7
			c1.2,2,1.7,3.6,1.7,5.1c0,0.3-0.1,0.4-0.2,0.5s-0.3,0.1-0.6,0.1H57.3z M83.2-34.5c3.1,0,5.9-0.8,8.4-2.5c2.5-1.6,4.6-3.8,6.1-6.6
			s2.3-5.8,2.3-9.1s-0.8-6.3-2.3-9c-1.5-2.7-3.5-4.8-6.1-6.3c-2.5-1.6-5.4-2.3-8.4-2.3c-3.1,0-5.9,0.8-8.4,2.4s-4.6,3.7-6.1,6.4
			c-1.5,2.7-2.3,5.7-2.3,9s0.8,6.3,2.3,9.1s3.6,4.9,6.1,6.6C77.2-35.3,80.1-34.5,83.2-34.5z M83.2-41.1c-1.8,0-3.4-0.5-4.9-1.5
			s-2.7-2.4-3.6-4.2c-0.9-1.7-1.3-3.7-1.3-5.8s0.4-4.1,1.3-5.7c0.9-1.7,2.1-3,3.5-4c1.5-1,3.1-1.5,4.9-1.5s3.4,0.5,4.9,1.4
			c1.5,1,2.6,2.3,3.5,4s1.3,3.6,1.3,5.7c0,2.1-0.4,4.1-1.3,5.9c-0.9,1.8-2.1,3.2-3.6,4.2C86.5-41.6,84.9-41.1,83.2-41.1z M18.1,1.1
			h29.1c-1-0.6-1.9-1.5-2.5-2.7c-0.7-1.1-1-2.4-0.8-3.7h-27c-0.2,0-0.3,0-0.5-0.1S16.3-5.7,16.3-6c0-3,1-5.8,3.1-8.5
			s4.9-4.9,8.3-6.6c3.5-1.7,7.2-2.5,11.3-2.5c2.2,0,4.2,0.2,6.2,0.7c1.9,0.5,3.8,1.1,5.5,2c0.7-0.8,1.4-1.7,2.2-2.4
			c0.8-0.8,1.7-1.5,2.7-2.2c-2.4-1.5-5.1-2.6-7.9-3.4C45-29.7,42-30.1,39-30.1c-3.9,0-7.7,0.7-11.2,2s-6.6,3.1-9.4,5.4
			c-2.7,2.3-4.9,4.9-6.4,7.9S9.7-8.7,9.7-5.5c0,2.2,0.7,3.9,2.1,5S15.3,1.1,18.1,1.1z M39.1-34.3c2.6,0,5.1-0.7,7.3-2.2
			c2.2-1.4,4-3.4,5.3-5.8c1.3-2.4,2-5.1,2-8s-0.7-5.5-2-7.9c-1.3-2.3-3.1-4.2-5.2-5.6c-2.2-1.4-4.6-2.1-7.3-2.1s-5.1,0.7-7.3,2.1
			s-4,3.3-5.3,5.7s-2,5-2,7.8c0,2.9,0.7,5.6,2,8s3.1,4.3,5.3,5.8C34-35,36.4-34.3,39.1-34.3z M39.1-40.8c-2.2,0-4.1-0.9-5.7-2.8
			c-1.6-1.8-2.4-4.1-2.4-6.7c0-1.7,0.4-3.2,1.1-4.6c0.7-1.4,1.7-2.5,3-3.3c1.2-0.8,2.6-1.2,4.1-1.2s2.9,0.4,4.1,1.2
			c1.2,0.8,2.2,1.9,2.9,3.2c0.7,1.4,1.1,2.9,1.1,4.6c0,2.6-0.8,4.8-2.4,6.7C43.1-41.7,41.2-40.8,39.1-40.8z"/>
	</g>
	<g id="Light-S" transform="matrix(1 0 0 1 1090.3 696)">
		<path d="M58.3,0.6H107c5.9,0,8.9-2,8.9-5.9c0-2.5-0.8-5.2-2.3-8s-3.7-5.5-6.6-8s-6.4-4.5-10.4-6.1c-4.1-1.6-8.7-2.4-13.9-2.4
			c-5.1,0-9.8,0.8-13.8,2.4c-4.1,1.6-7.6,3.6-10.4,6.1s-5.1,5.1-6.6,8c-1.5,2.8-2.3,5.5-2.3,8C49.5-1.4,52.4,0.6,58.3,0.6z
			 M56.8-4.5c-0.7,0-1.2-0.1-1.4-0.3C55.1-5,55-5.3,55-5.9c0-1.7,0.6-3.6,1.8-5.7s3-4.2,5.4-6.1c2.4-2,5.3-3.6,8.7-4.9
			c3.4-1.3,7.4-1.9,11.8-1.9c4.5,0,8.4,0.6,11.9,1.9s6.4,2.9,8.7,4.9c2.4,2,4.1,4,5.4,6.1c1.2,2.1,1.8,4,1.8,5.7
			c0,0.5-0.1,0.9-0.4,1.1s-0.8,0.3-1.4,0.3C108.7-4.5,56.8-4.5,56.8-4.5z M82.7-34.7c3,0,5.7-0.8,8.2-2.4c2.5-1.6,4.4-3.7,5.9-6.4
			s2.2-5.7,2.2-9c0-3.2-0.7-6.1-2.2-8.8c-1.5-2.6-3.4-4.7-5.9-6.2s-5.2-2.3-8.2-2.3S77-69,74.5-67.5c-2.5,1.6-4.4,3.7-5.9,6.3
			s-2.2,5.5-2.2,8.7c0,3.3,0.8,6.2,2.2,8.9c1.5,2.7,3.4,4.8,5.9,6.4C77-35.4,79.7-34.7,82.7-34.7z M82.7-39.7c-2,0-3.8-0.6-5.4-1.7
			c-1.6-1.1-3-2.6-3.9-4.5c-1-1.9-1.5-4-1.5-6.4c0-2.3,0.5-4.4,1.4-6.2s2.3-3.3,3.9-4.4c1.7-1.1,3.5-1.6,5.5-1.6s3.8,0.5,5.4,1.6
			s2.9,2.5,3.9,4.4c1,1.8,1.5,3.9,1.5,6.2c0,2.4-0.5,4.5-1.5,6.4s-2.3,3.4-3.9,4.6C86.5-40.3,84.7-39.7,82.7-39.7z M17.1,0.6h30.8
			c-0.8-0.5-1.5-1.1-2.1-2.1c-0.6-0.9-0.8-1.9-0.7-3H16.3c-0.5,0-0.9-0.1-1.2-0.3c-0.2-0.2-0.4-0.6-0.4-1.1c0-3.3,1.1-6.4,3.3-9.2
			c2.2-2.9,5.1-5.2,8.7-7c3.6-1.8,7.6-2.7,11.8-2.7c2.6,0,5.1,0.3,7.4,1c2.3,0.6,4.4,1.6,6.4,2.9c0.6-0.6,1.1-1.3,1.8-1.9
			c0.6-0.6,1.3-1.2,2.1-1.7c-2.5-1.7-5.3-3.1-8.2-4c-3-0.9-6.1-1.3-9.4-1.3c-4,0-7.8,0.7-11.3,2s-6.5,3.2-9.2,5.4
			c-2.6,2.3-4.7,4.9-6.1,7.8c-1.5,2.9-2.2,5.9-2.2,9c0,2.1,0.6,3.6,1.8,4.6C12.8,0.1,14.7,0.6,17.1,0.6z M38.7-34.2
			c2.6,0,5-0.7,7.1-2.1c2.1-1.4,3.9-3.3,5.1-5.6c1.3-2.4,1.9-5,1.9-7.8s-0.6-5.4-1.9-7.7c-1.3-2.3-3-4.1-5.1-5.5
			c-2.1-1.4-4.5-2-7.1-2s-5,0.7-7.1,2.1c-2.2,1.4-3.9,3.2-5.1,5.5c-1.3,2.3-1.9,4.8-1.9,7.6c0,2.9,0.7,5.5,1.9,7.9s3,4.2,5.1,5.6
			C33.7-34.9,36-34.2,38.7-34.2z M38.7-39.3c-2.5,0-4.6-1-6.4-3c-1.8-2-2.7-4.5-2.7-7.4c0-1.9,0.4-3.6,1.2-5.1
			c0.8-1.5,1.9-2.8,3.3-3.7c1.4-0.9,2.9-1.4,4.6-1.4c1.7,0,3.2,0.5,4.6,1.4c1.4,0.9,2.5,2.1,3.3,3.7c0.8,1.5,1.2,3.2,1.2,5.1
			c0,2.9-0.9,5.4-2.7,7.5C43.3-40.3,41.2-39.3,38.7-39.3z"/>
	</g>
	<g id="Thin-S" transform="matrix(1 0 0 1 794.224 696)">
		<path d="M56.7-0.1h50.7c4.8,0,7.2-1.7,7.2-5.2c0-2.5-0.7-5.1-2.2-7.9s-3.7-5.4-6.5-7.8s-6.2-4.4-10.2-5.9s-8.5-2.3-13.6-2.3
			c-5,0-9.5,0.8-13.5,2.3s-7.4,3.5-10.2,5.9s-5,5-6.5,7.8s-2.2,5.4-2.2,7.9C49.6-1.9,52-0.1,56.7-0.1z M56.2-3.3
			c-1.2,0-2.1-0.2-2.5-0.5S53-4.7,53-5.5c0-2,0.7-4.2,2-6.6s3.2-4.6,5.7-6.7s5.6-3.8,9.2-5.1c3.6-1.3,7.7-2,12.3-2
			c4.6,0,8.7,0.7,12.4,2c3.6,1.3,6.7,3,9.2,5.1s4.4,4.3,5.7,6.7s2,4.6,2,6.6c0,0.8-0.2,1.4-0.7,1.7s-1.3,0.5-2.6,0.5
			C108.2-3.3,56.2-3.3,56.2-3.3z M82.2-34.8c2.9,0,5.6-0.8,7.9-2.3c2.4-1.5,4.2-3.6,5.6-6.2c1.4-2.6,2.1-5.5,2.1-8.8
			c0-3.1-0.7-5.9-2.1-8.5s-3.3-4.6-5.7-6.1c-2.4-1.5-5-2.3-7.9-2.3s-5.5,0.8-7.8,2.3c-2.4,1.5-4.3,3.6-5.7,6.1
			c-1.4,2.6-2.1,5.4-2.1,8.4c0,3.2,0.7,6.1,2.1,8.7s3.3,4.7,5.6,6.2C76.6-35.6,79.3-34.8,82.2-34.8z M82.2-38
			c-2.3,0-4.4-0.6-6.2-1.9s-3.3-2.9-4.4-5S70-49.4,70-52.1c0-2.5,0.5-4.8,1.6-6.9c1.1-2.1,2.6-3.7,4.5-4.9s3.9-1.9,6.2-1.9
			c2.3,0,4.3,0.6,6.2,1.8c1.9,1.2,3.4,2.9,4.5,4.9c1.1,2.1,1.7,4.4,1.7,6.9c0,2.7-0.5,5.1-1.6,7.2c-1.1,2.1-2.6,3.8-4.4,5
			C86.5-38.6,84.5-38,82.2-38z M15.9-0.1h33c-0.5-0.3-1-0.7-1.4-1.3s-0.7-1.2-0.8-1.9H15.6c-1,0-1.7-0.2-2.1-0.6
			c-0.4-0.4-0.6-1-0.6-1.9c0-3.7,1.1-7,3.4-10.1s5.3-5.6,9.2-7.5s8-2.8,12.5-2.8c3.2,0,6.2,0.5,9,1.4s5.3,2.2,7.5,4
			c0.4-0.4,0.8-0.7,1.2-1.1s0.8-0.7,1.2-1c-2.6-2.1-5.5-3.7-8.7-4.7c-3.2-1.1-6.6-1.6-10.2-1.6c-4.2,0-8,0.7-11.5,2.1
			s-6.4,3.2-8.9,5.5s-4.4,4.8-5.8,7.6s-2,5.7-2,8.5c0,1.8,0.5,3.2,1.5,4.1C12.3-0.6,13.9-0.1,15.9-0.1z M38.1-34.2
			c2.5,0,4.8-0.7,6.9-2c2.1-1.3,3.7-3.1,4.9-5.4c1.2-2.3,1.8-4.8,1.8-7.6c0-2.7-0.6-5.2-1.8-7.4s-2.9-4-4.9-5.3
			c-2.1-1.3-4.3-2-6.9-2c-2.5,0-4.8,0.7-6.8,2c-2.1,1.3-3.7,3.1-4.9,5.4c-1.2,2.2-1.8,4.7-1.8,7.4c0,2.8,0.6,5.4,1.8,7.7
			c1.2,2.3,2.8,4.1,4.9,5.4S35.6-34.2,38.1-34.2z M38.1-37.3c-2.9,0-5.4-1.1-7.4-3.4s-3-5.1-3-8.5c0-2.1,0.5-4,1.4-5.8
			s2.2-3.2,3.8-4.2c1.6-1.1,3.3-1.6,5.2-1.6s3.7,0.5,5.3,1.6c1.6,1,2.9,2.4,3.8,4.2c1,1.8,1.4,3.7,1.4,5.8c0,3.4-1,6.2-3,8.5
			C43.5-38.5,41-37.3,38.1-37.3z"/>
	</g>
	<g id="Ultralight-S" transform="matrix(1 0 0 1 497.836 696)">
		<path d="M55.9-0.5h51.7c4.2,0,6.3-1.6,6.3-4.8c0-2.5-0.7-5.1-2.2-7.8s-3.6-5.3-6.4-7.7s-6.2-4.3-10.1-5.8c-4-1.5-8.4-2.2-13.4-2.2
			c-4.9,0-9.4,0.7-13.3,2.2c-4,1.5-7.3,3.4-10.1,5.8s-5,5-6.4,7.7c-1.5,2.7-2.2,5.3-2.2,7.8C49.6-2.1,51.7-0.5,55.9-0.5z M55.8-2.7
			c-1.5,0-2.5-0.2-3.1-0.6s-0.9-1.1-0.9-2.1c0-2.2,0.7-4.6,2-7.1c1.4-2.5,3.3-4.8,5.9-7c2.6-2.2,5.7-3.9,9.4-5.3s7.9-2,12.6-2
			s8.9,0.7,12.6,2c3.7,1.4,6.9,3.1,9.4,5.3c2.6,2.2,4.5,4.5,5.9,7s2,4.8,2,7.1c0,1-0.3,1.7-0.9,2.1s-1.6,0.6-3.2,0.6
			C107.5-2.7,55.8-2.7,55.8-2.7z M81.9-34.9c2.9,0,5.5-0.7,7.8-2.2s4.1-3.5,5.5-6.1c1.3-2.6,2-5.5,2-8.7c0-3-0.7-5.8-2.1-8.3
			s-3.2-4.5-5.5-6s-4.9-2.3-7.7-2.3c-2.8,0-5.3,0.8-7.7,2.3c-2.3,1.5-4.2,3.5-5.6,6s-2.1,5.3-2,8.3c0,3.2,0.7,6.1,2.1,8.6
			c1.3,2.6,3.2,4.6,5.5,6.1C76.5-35.7,79-34.9,81.9-34.9z M81.9-37.1c-2.5,0-4.7-0.6-6.6-1.9c-2-1.3-3.5-3.1-4.7-5.3
			s-1.7-4.7-1.7-7.6c0-2.6,0.5-5,1.7-7.2s2.7-3.9,4.7-5.2c2-1.3,4.2-2,6.6-2s4.6,0.6,6.6,1.9c2,1.3,3.6,3,4.7,5.2
			C94.4-57,95-54.6,95-52c0,2.8-0.6,5.3-1.7,7.6c-1.2,2.2-2.7,4-4.7,5.3C86.6-37.8,84.3-37.1,81.9-37.1z M15.3-0.5h34.1
			C49-0.7,48.7-1,48.3-1.3c-0.4-0.4-0.6-0.8-0.8-1.3H15.3c-1.2,0-2.1-0.2-2.6-0.7S12-4.5,12-5.6c0-3.8,1.2-7.4,3.5-10.6
			S21-22,24.9-24s8.2-2.9,12.9-2.9c3.5,0,6.8,0.5,9.9,1.5c3.1,1,5.8,2.6,8.1,4.6c0.3-0.2,0.6-0.5,0.8-0.7c0.3-0.2,0.5-0.5,0.8-0.7
			c-2.7-2.3-5.6-4-9-5.1c-3.3-1.2-6.9-1.7-10.6-1.7c-4.3,0-8.1,0.7-11.6,2.1c-3.4,1.4-6.4,3.2-8.8,5.5s-4.3,4.8-5.6,7.6
			s-2,5.5-2,8.3c0,1.7,0.5,3,1.4,3.8C12.1-0.9,13.4-0.5,15.3-0.5z M37.8-34.1c2.5,0,4.8-0.6,6.8-1.9c2-1.3,3.6-3.1,4.8-5.3
			s1.8-4.7,1.8-7.6c0-2.7-0.6-5.1-1.8-7.3s-2.8-4-4.8-5.3s-4.3-2-6.7-2s-4.7,0.7-6.7,2s-3.6,3.1-4.8,5.3c-1.2,2.2-1.8,4.6-1.8,7.3
			c0,2.8,0.6,5.3,1.8,7.6c1.2,2.2,2.8,4,4.8,5.3C33.1-34.8,35.3-34.1,37.8-34.1z M37.8-36.3c-3.1,0-5.8-1.2-7.9-3.6
			c-2.1-2.4-3.2-5.4-3.2-9c0-2.2,0.5-4.3,1.5-6.2s2.3-3.4,4-4.5c1.7-1.1,3.5-1.7,5.6-1.7c2,0,3.9,0.6,5.6,1.7c1.7,1.1,3,2.6,4.1,4.5
			c1,1.9,1.5,3.9,1.5,6.2c0,3.6-1.1,6.6-3.2,9C43.6-37.5,41-36.3,37.8-36.3z"/>
	</g>
</g>
<path d="M1530.3,1038.9L1530.3,1038.9L1530.3,1038.9L1530.3,1038.9z"/>
<path d="M1530.2,1038.9L1530.2,1038.9L1530.2,1038.9C1530.2,1038.9,1530.2,1038.9,1530.2,1038.9z"/>
</svg>
